<svg width="17" height="16" viewBox="0 0 17 16" fill="none" xmlns="http://www.w3.org/2000/svg">
<path d="M15.6055 8.61136C16 8.25063 16.9435 6.45541 15.1886 4.84759C14.5983 4.30602 13.2631 3.72604 11.7556 3.72604C9.46843 3.72604 6.55261 4.88881 5.41889 7.49263C3.78577 11.2405 6.8693 14.9696 10.6509 14.9696C12.3927 14.9696 14.3003 13.8958 15.0761 12.8071C15.1249 12.7387 15.1783 12.674 15.2289 12.6075C15.42 12.3592 15.792 11.6687 14.5411 11.1421C13.9855 10.9078 13.9171 10.3682 13.9855 10.0992C14.1907 9.2869 14.8897 9.26629 15.6055 8.61136ZM12.8068 12.6759C12.2006 12.882 11.5728 12.6534 11.4042 12.1643C11.2355 11.6762 11.5897 11.113 12.1959 10.9069C12.8021 10.7008 13.4299 10.9294 13.5986 11.4185C13.7672 11.9066 13.413 12.4698 12.8068 12.6759Z" fill="url(#paint0_radial_46_2250)"/>
<mask id="mask0_46_2250" style="mask-type:luminance" maskUnits="userSpaceOnUse" x="2" y="1" width="12" height="13">
<path d="M11.3196 4.16268C11.3956 3.63359 10.9861 1.64732 8.60952 1.5178C7.80966 1.47365 6.40964 1.87235 5.24429 2.82876C3.47634 4.27971 1.96007 7.02832 2.73557 9.7603C3.85079 13.6934 8.60011 14.6198 11.5233 12.2208C12.8697 11.1158 13.6631 9.07558 13.5721 7.74181C13.5664 7.65802 13.5666 7.57417 13.5636 7.49065C13.5538 7.17746 13.4032 6.40769 12.1023 6.79418C11.5242 6.9656 11.1289 6.59181 11.0112 6.34055C10.6545 5.58244 11.1817 5.12307 11.3196 4.16268ZM11.7347 9.08006C11.3969 9.62398 10.7666 9.84552 10.3259 9.57444C9.88587 9.30409 9.8024 8.64412 10.1402 8.10019C10.4781 7.55627 11.1084 7.33474 11.549 7.60582C11.9891 7.87617 12.0725 8.53614 11.7347 9.08006Z" fill="white"/>
</mask>
<g mask="url(#mask0_46_2250)">
<path opacity="0.2" d="M7.4849 12.6673C8.12691 12.1404 8.54037 11.5829 8.4084 11.4221C8.27643 11.2613 7.649 11.5581 7.007 12.0849C6.36499 12.6118 5.95153 13.1693 6.0835 13.3301C6.21546 13.4909 6.8429 13.1942 7.4849 12.6673Z" fill="#FFA726"/>
</g>
<mask id="mask1_46_2250" style="mask-type:luminance" maskUnits="userSpaceOnUse" x="4" y="3" width="13" height="12">
<path d="M15.6055 8.61136C16 8.25063 16.9435 6.45541 15.1886 4.84759C14.5983 4.30602 13.2631 3.72604 11.7556 3.72604C9.46843 3.72604 6.55261 4.88881 5.41889 7.49263C3.78577 11.2405 6.8693 14.9696 10.6509 14.9696C12.3927 14.9696 14.3003 13.8958 15.0761 12.8071C15.1249 12.7387 15.1783 12.674 15.2289 12.6075C15.42 12.3592 15.792 11.6687 14.5411 11.1421C13.9855 10.9078 13.9171 10.3682 13.9855 10.0992C14.1907 9.2869 14.8897 9.26629 15.6055 8.61136ZM12.8068 12.6759C12.2006 12.882 11.5728 12.6534 11.4042 12.1643C11.2355 11.6762 11.5897 11.113 12.1959 10.9069C12.8021 10.7008 13.4299 10.9294 13.5986 11.4185C13.7672 11.9066 13.413 12.4698 12.8068 12.6759Z" fill="white"/>
</mask>
<g mask="url(#mask1_46_2250)">
<path opacity="0.2" d="M5.68311 12.8858C5.68311 12.8858 7.9365 10.6249 8.68794 11.0015C9.43939 11.3782 6.81028 13.6391 6.81028 13.6391H6.43456L6.81028 14.0157C6.81028 14.0157 10.1899 11.3782 9.81511 10.2473C9.44032 9.11637 5.64001 12.3751 5.38797 12.5222L5.68311 12.8858Z" fill="#FFA726"/>
</g>
<mask id="mask2_46_2250" style="mask-type:luminance" maskUnits="userSpaceOnUse" x="4" y="3" width="13" height="12">
<path d="M15.6055 8.61136C16 8.25063 16.9435 6.45541 15.1886 4.84759C14.5983 4.30602 13.2631 3.72604 11.7556 3.72604C9.46843 3.72604 6.55261 4.88881 5.41889 7.49263C3.78577 11.2405 6.8693 14.9696 10.6509 14.9696C12.3927 14.9696 14.3003 13.8958 15.0761 12.8071C15.1249 12.7387 15.1783 12.674 15.2289 12.6075C15.42 12.3592 15.792 11.6687 14.5411 11.1421C13.9855 10.9078 13.9171 10.3682 13.9855 10.0992C14.1907 9.2869 14.8897 9.26629 15.6055 8.61136ZM12.8068 12.6759C12.2006 12.882 11.5728 12.6534 11.4042 12.1643C11.2355 11.6762 11.5897 11.113 12.1959 10.9069C12.8021 10.7008 13.4299 10.9294 13.5986 11.4185C13.7672 11.9066 13.413 12.4698 12.8068 12.6759Z" fill="white"/>
</mask>
<g mask="url(#mask2_46_2250)">
<path opacity="0.2" d="M4.73772 11.5515C4.73772 11.5515 7.88122 9.04048 10.9769 8.74253C10.9769 8.74253 11.9617 8.52328 11.7434 9.27566C11.5241 10.029 10.3988 12.6965 7.59919 14.532L7.27126 14.2968C7.27126 14.2968 12.0563 10.9547 10.5085 9.43213C10.5085 9.43213 10.3361 9.1501 9.32039 9.55768C8.30473 9.96526 4.87826 12.273 4.87826 12.273L4.73772 11.5515Z" fill="#FFA726"/>
</g>
<mask id="mask3_46_2250" style="mask-type:luminance" maskUnits="userSpaceOnUse" x="4" y="3" width="13" height="12">
<path d="M15.6055 8.61136C16 8.25063 16.9435 6.45541 15.1886 4.84759C14.5983 4.30602 13.2631 3.72604 11.7556 3.72604C9.46843 3.72604 6.55261 4.88881 5.41889 7.49263C3.78577 11.2405 6.8693 14.9696 10.6509 14.9696C12.3927 14.9696 14.3003 13.8958 15.0761 12.8071C15.1249 12.7387 15.1783 12.674 15.2289 12.6075C15.42 12.3592 15.792 11.6687 14.5411 11.1421C13.9855 10.9078 13.9171 10.3682 13.9855 10.0992C14.1907 9.2869 14.8897 9.26629 15.6055 8.61136ZM12.8068 12.6759C12.2006 12.882 11.5728 12.6534 11.4042 12.1643C11.2355 11.6762 11.5897 11.113 12.1959 10.9069C12.8021 10.7008 13.4299 10.9294 13.5986 11.4185C13.7672 11.9066 13.413 12.4698 12.8068 12.6759Z" fill="white"/>
</mask>
<g mask="url(#mask3_46_2250)">
<path opacity="0.2" d="M4.28517 10.7083C4.28517 10.7083 6.54981 9.10982 9.12176 8.26281C11.6937 7.41579 12.73 5.75925 12.73 5.75925C12.73 5.75925 12.7487 7.26119 8.71887 8.84091C4.689 10.4206 4.63091 11.2095 4.63091 11.2095L4.28517 10.7083Z" fill="#FFA726"/>
</g>
<mask id="mask4_46_2250" style="mask-type:luminance" maskUnits="userSpaceOnUse" x="4" y="3" width="13" height="12">
<path d="M15.6055 8.61136C16 8.25063 16.9435 6.45541 15.1886 4.84759C14.5983 4.30602 13.2631 3.72604 11.7556 3.72604C9.46843 3.72604 6.55261 4.88881 5.41889 7.49263C3.78577 11.2405 6.8693 14.9696 10.6509 14.9696C12.3927 14.9696 14.3003 13.8958 15.0761 12.8071C15.1249 12.7387 15.1783 12.674 15.2289 12.6075C15.42 12.3592 15.792 11.6687 14.5411 11.1421C13.9855 10.9078 13.9171 10.3682 13.9855 10.0992C14.1907 9.2869 14.8897 9.26629 15.6055 8.61136ZM12.8068 12.6759C12.2006 12.882 11.5728 12.6534 11.4042 12.1643C11.2355 11.6762 11.5897 11.113 12.1959 10.9069C12.8021 10.7008 13.4299 10.9294 13.5986 11.4185C13.7672 11.9066 13.413 12.4698 12.8068 12.6759Z" fill="white"/>
</mask>
<g mask="url(#mask4_46_2250)">
<path opacity="0.2" d="M10.738 3.67732C10.738 3.67732 7.09137 7.99109 5.19121 6.98948L4.84547 7.66315C4.84547 7.66315 8.05082 8.06792 11.2168 3.63797L10.738 3.67732Z" fill="#FFA726"/>
</g>
<mask id="mask5_46_2250" style="mask-type:luminance" maskUnits="userSpaceOnUse" x="4" y="3" width="13" height="12">
<path d="M15.6055 8.61136C16 8.25063 16.9435 6.45541 15.1886 4.84759C14.5983 4.30602 13.2631 3.72604 11.7556 3.72604C9.46843 3.72604 6.55261 4.88881 5.41889 7.49263C3.78577 11.2405 6.8693 14.9696 10.6509 14.9696C12.3927 14.9696 14.3003 13.8958 15.0761 12.8071C15.1249 12.7387 15.1783 12.674 15.2289 12.6075C15.42 12.3592 15.792 11.6687 14.5411 11.1421C13.9855 10.9078 13.9171 10.3682 13.9855 10.0992C14.1907 9.2869 14.8897 9.26629 15.6055 8.61136ZM12.8068 12.6759C12.2006 12.882 11.5728 12.6534 11.4042 12.1643C11.2355 11.6762 11.5897 11.113 12.1959 10.9069C12.8021 10.7008 13.4299 10.9294 13.5986 11.4185C13.7672 11.9066 13.413 12.4698 12.8068 12.6759Z" fill="white"/>
</mask>
<g mask="url(#mask5_46_2250)">
<path opacity="0.2" d="M4.63652 8.6732C4.63652 8.6732 7.38088 8.28811 9.01213 7.18999C10.6434 6.09187 11.4679 4.12894 14.0211 4.22451L14.5393 4.43626C14.5393 4.43626 12.8696 4.06991 11.4876 5.70772C10.1056 7.34553 9.76076 7.47951 8.5324 7.92269C7.30405 8.36588 4.36761 9.01988 4.36761 9.01988L4.63652 8.6732Z" fill="#FFA726"/>
</g>
<mask id="mask6_46_2250" style="mask-type:luminance" maskUnits="userSpaceOnUse" x="4" y="3" width="13" height="12">
<path d="M15.6055 8.61136C16 8.25063 16.9435 6.45541 15.1886 4.84759C14.5983 4.30602 13.2631 3.72604 11.7556 3.72604C9.46843 3.72604 6.55261 4.88881 5.41889 7.49263C3.78577 11.2405 6.8693 14.9696 10.6509 14.9696C12.3927 14.9696 14.3003 13.8958 15.0761 12.8071C15.1249 12.7387 15.1783 12.674 15.2289 12.6075C15.42 12.3592 15.792 11.6687 14.5411 11.1421C13.9855 10.9078 13.9171 10.3682 13.9855 10.0992C14.1907 9.2869 14.8897 9.26629 15.6055 8.61136ZM12.8068 12.6759C12.2006 12.882 11.5728 12.6534 11.4042 12.1643C11.2355 11.6762 11.5897 11.113 12.1959 10.9069C12.8021 10.7008 13.4299 10.9294 13.5986 11.4185C13.7672 11.9066 13.413 12.4698 12.8068 12.6759Z" fill="white"/>
</mask>
<g mask="url(#mask6_46_2250)">
<path opacity="0.2" d="M15.7208 5.24954C15.7208 5.24954 13.7541 6.37015 13.1469 7.12627C13.1469 7.12627 15.5268 5.93259 16.2314 6.07875L15.7208 5.24954Z" fill="#FFA726"/>
</g>
<mask id="mask7_46_2250" style="mask-type:luminance" maskUnits="userSpaceOnUse" x="4" y="3" width="13" height="12">
<path d="M15.6055 8.61136C16 8.25063 16.9435 6.45541 15.1886 4.84759C14.5983 4.30602 13.2631 3.72604 11.7556 3.72604C9.46843 3.72604 6.55261 4.88881 5.41889 7.49263C3.78577 11.2405 6.8693 14.9696 10.6509 14.9696C12.3927 14.9696 14.3003 13.8958 15.0761 12.8071C15.1249 12.7387 15.1783 12.674 15.2289 12.6075C15.42 12.3592 15.792 11.6687 14.5411 11.1421C13.9855 10.9078 13.9171 10.3682 13.9855 10.0992C14.1907 9.2869 14.8897 9.26629 15.6055 8.61136ZM12.8068 12.6759C12.2006 12.882 11.5728 12.6534 11.4042 12.1643C11.2355 11.6762 11.5897 11.113 12.1959 10.9069C12.8021 10.7008 13.4299 10.9294 13.5986 11.4185C13.7672 11.9066 13.413 12.4698 12.8068 12.6759Z" fill="white"/>
</mask>
<g mask="url(#mask7_46_2250)">
<path opacity="0.2" d="M16.2361 6.64842C16.2361 6.64842 12.5576 7.98172 11.6703 10.385C10.783 12.7883 9.59867 13.5173 9.32883 13.6522C9.05992 13.7871 7.57952 15.0829 7.55235 15.1916L8.65609 15.4081C8.65609 15.4081 11.1315 13.3018 11.4005 11.8439C11.6694 10.386 13.086 8.35182 16.6128 6.81052L16.2361 6.64842Z" fill="#FFA726"/>
</g>
<mask id="mask8_46_2250" style="mask-type:luminance" maskUnits="userSpaceOnUse" x="4" y="3" width="13" height="12">
<path d="M15.6055 8.61136C16 8.25063 16.9435 6.45541 15.1886 4.84759C14.5983 4.30602 13.2631 3.72604 11.7556 3.72604C9.46843 3.72604 6.55261 4.88881 5.41889 7.49263C3.78577 11.2405 6.8693 14.9696 10.6509 14.9696C12.3927 14.9696 14.3003 13.8958 15.0761 12.8071C15.1249 12.7387 15.1783 12.674 15.2289 12.6075C15.42 12.3592 15.792 11.6687 14.5411 11.1421C13.9855 10.9078 13.9171 10.3682 13.9855 10.0992C14.1907 9.2869 14.8897 9.26629 15.6055 8.61136ZM12.8068 12.6759C12.2006 12.882 11.5728 12.6534 11.4042 12.1643C11.2355 11.6762 11.5897 11.113 12.1959 10.9069C12.8021 10.7008 13.4299 10.9294 13.5986 11.4185C13.7672 11.9066 13.413 12.4698 12.8068 12.6759Z" fill="white"/>
</mask>
<g mask="url(#mask8_46_2250)">
<path opacity="0.2" d="M12.2943 12.3395C12.2943 12.3395 11.2983 14.7157 9.46843 16.2007C9.46843 16.2007 11.5672 15.2282 12.8865 12.555L12.2943 12.3395Z" fill="#FFA726"/>
</g>
<mask id="mask9_46_2250" style="mask-type:luminance" maskUnits="userSpaceOnUse" x="4" y="3" width="13" height="12">
<path d="M15.6055 8.61136C16 8.25063 16.9435 6.45541 15.1886 4.84759C14.5983 4.30602 13.2631 3.72604 11.7556 3.72604C9.46843 3.72604 6.55261 4.88881 5.41889 7.49263C3.78577 11.2405 6.8693 14.9696 10.6509 14.9696C12.3927 14.9696 14.3003 13.8958 15.0761 12.8071C15.1249 12.7387 15.1783 12.674 15.2289 12.6075C15.42 12.3592 15.792 11.6687 14.5411 11.1421C13.9855 10.9078 13.9171 10.3682 13.9855 10.0992C14.1907 9.2869 14.8897 9.26629 15.6055 8.61136ZM12.8068 12.6759C12.2006 12.882 11.5728 12.6534 11.4042 12.1643C11.2355 11.6762 11.5897 11.113 12.1959 10.9069C12.8021 10.7008 13.4299 10.9294 13.5986 11.4185C13.7672 11.9066 13.413 12.4698 12.8068 12.6759Z" fill="white"/>
</mask>
<g mask="url(#mask9_46_2250)">
<path opacity="0.2" d="M14.617 11.1627C14.617 11.1627 13.8337 14.3502 12.418 15.1382C12.418 15.1382 14.3762 14.9668 15.2795 11.0596L14.617 11.1627Z" fill="#FFA726"/>
</g>
<path opacity="0.2" d="M11.7556 4.00713C13.1338 4.00713 14.4306 4.53464 14.9993 5.05559C15.6196 5.62433 15.9344 6.26427 15.9335 6.95856C15.9325 7.68751 15.5784 8.25719 15.4163 8.40429C15.1764 8.62354 14.9393 8.76502 14.7089 8.90181C14.2788 9.15854 13.8721 9.40121 13.7138 10.0309C13.6164 10.4188 13.7269 11.1037 14.4334 11.4016C14.8419 11.574 15.0864 11.7736 15.1408 11.9807C15.1895 12.1643 15.078 12.3451 15.0077 12.436C14.9918 12.4566 14.9759 12.4763 14.96 12.4969C14.9234 12.5438 14.885 12.5916 14.8485 12.644C14.1467 13.6269 12.343 14.6885 10.6509 14.6885C8.81443 14.6885 7.05295 13.7422 6.05509 12.2187C5.14342 10.8263 5.00569 9.14542 5.67655 7.60506C6.17127 6.46946 7.07356 5.52782 8.28693 4.88132C9.34475 4.31727 10.5769 4.00713 11.7556 4.00713ZM12.3571 13.0329C12.5389 13.0329 12.7206 13.002 12.8977 12.942C13.3015 12.8052 13.6295 12.5269 13.8 12.1802C13.9359 11.9029 13.9583 11.5993 13.8647 11.3267C13.7016 10.8554 13.2238 10.5499 12.6466 10.5499C12.4648 10.5499 12.2831 10.5808 12.106 10.6408C11.7021 10.7776 11.3742 11.0559 11.2037 11.4026C11.0678 11.6799 11.0453 11.9835 11.139 12.2561C11.3021 12.7284 11.7799 13.0329 12.3571 13.0329ZM11.7556 3.72604C9.46843 3.72604 6.55261 4.88881 5.41889 7.49263C3.78577 11.2405 6.8693 14.9696 10.6509 14.9696C12.3927 14.9696 14.3003 13.8958 15.0761 12.8071C15.1249 12.7387 15.1783 12.674 15.2289 12.6075C15.42 12.3592 15.792 11.6687 14.5411 11.1421C13.9855 10.9078 13.9171 10.3682 13.9855 10.0992C14.1898 9.2869 14.8887 9.26536 15.6046 8.61136C15.999 8.25063 16.9426 6.45541 15.1876 4.84759C14.5983 4.30602 13.2631 3.72604 11.7556 3.72604ZM12.3571 12.7518C11.9167 12.7518 11.5316 12.5316 11.4042 12.1652C11.2355 11.6771 11.5897 11.114 12.1959 10.9078C12.3468 10.8563 12.4995 10.832 12.6457 10.832C13.086 10.832 13.4711 11.0521 13.5986 11.4194C13.7672 11.9076 13.413 12.4707 12.8068 12.6768C12.656 12.7274 12.5032 12.7518 12.3571 12.7518Z" fill="#424242"/>
<path d="M10.7428 6.49898C11.3761 6.30136 11.761 5.72949 11.6025 5.22168C11.444 4.71388 10.8022 4.46243 10.1689 4.66005C9.53564 4.85768 9.15073 5.42954 9.3092 5.93735C9.46767 6.44516 10.1095 6.69661 10.7428 6.49898Z" fill="#C62828"/>
<path d="M11.4229 5.10712C11.5738 5.6009 11.1915 6.15745 10.5675 6.34953C9.94347 6.5416 9.31477 6.29706 9.16392 5.80328C9.01307 5.3095 9.39535 4.75295 10.0194 4.56087C10.6434 4.36879 11.2711 4.61334 11.4229 5.10712Z" fill="url(#paint1_radial_46_2250)"/>
<path d="M8.15218 8.52703C8.79138 8.32755 9.18034 7.75178 9.02095 7.24101C8.86155 6.73024 8.21416 6.47789 7.57495 6.67736C6.93575 6.87684 6.54679 7.45261 6.70618 7.96338C6.86558 8.47415 7.51297 8.7265 8.15218 8.52703Z" fill="#1565C0"/>
<path d="M8.86502 7.11315C9.02056 7.62004 8.62703 8.18972 7.98803 8.38741C7.34902 8.58511 6.70439 8.33401 6.54885 7.82711C6.39332 7.32022 6.78684 6.75054 7.42585 6.55284C8.06486 6.35515 8.70949 6.60625 8.86502 7.11315Z" fill="url(#paint2_radial_46_2250)"/>
<path d="M7.46561 11.3594C8.1226 11.1544 8.52186 10.5609 8.35738 10.0338C8.19289 9.50676 7.52696 9.24569 6.86997 9.45071C6.21298 9.65574 5.81373 10.2492 5.97821 10.7763C6.14269 11.3034 6.80863 11.5644 7.46561 11.3594Z" fill="#F9A825"/>
<path d="M8.20541 9.96432C8.35627 10.4581 7.97399 11.0147 7.34997 11.2067C6.72595 11.3988 6.09725 11.1543 5.9464 10.6605C5.79555 10.1667 6.17783 9.61015 6.80185 9.41807C7.42586 9.22506 8.05456 9.46961 8.20541 9.96432Z" fill="url(#paint3_radial_46_2250)"/>
<path d="M9.40996 13.938C10.0363 13.7423 10.4146 13.1696 10.255 12.6589C10.0954 12.1482 9.45826 11.8928 8.83196 12.0886C8.20567 12.2843 7.82734 12.857 7.98695 13.3677C8.14656 13.8784 8.78366 14.1338 9.40996 13.938Z" fill="#558B2F"/>
<path d="M10.0953 12.5719C10.2461 13.0657 9.86383 13.6222 9.23982 13.8143C8.6158 14.0064 7.9871 13.7618 7.83625 13.268C7.6854 12.7743 8.06768 12.2177 8.69169 12.0256C9.31571 11.8336 9.94441 12.0781 10.0953 12.5719Z" fill="url(#paint4_radial_46_2250)"/>
<defs>
<radialGradient id="paint0_radial_46_2250" cx="0" cy="0" r="1" gradientUnits="userSpaceOnUse" gradientTransform="translate(10.2795 5.29723) rotate(90) scale(9.97301 6.54628)">
<stop stop-color="#FFCC80"/>
<stop offset="0.2942" stop-color="#FFCB7D"/>
<stop offset="0.4879" stop-color="#FFC774"/>
<stop offset="0.6526" stop-color="#FFC166"/>
<stop offset="0.8012" stop-color="#FFB850"/>
<stop offset="0.9375" stop-color="#FFAD35"/>
<stop offset="1" stop-color="#FFA726"/>
</radialGradient>
<radialGradient id="paint1_radial_46_2250" cx="0" cy="0" r="1" gradientUnits="userSpaceOnUse" gradientTransform="translate(10.14 4.64744) rotate(90) scale(1.60211 1.24932)">
<stop stop-color="#EF5350"/>
<stop offset="0.3459" stop-color="#E94B49"/>
<stop offset="0.8869" stop-color="#D73534"/>
<stop offset="1" stop-color="#D32F2F"/>
</radialGradient>
<radialGradient id="paint2_radial_46_2250" cx="0" cy="0" r="1" gradientUnits="userSpaceOnUse" gradientTransform="translate(7.54967 6.64145) rotate(90) scale(1.91018 1.48956)">
<stop stop-color="#42A5F5"/>
<stop offset="0.2859" stop-color="#3B9DEF"/>
<stop offset="0.7328" stop-color="#2787DE"/>
<stop offset="1" stop-color="#1976D2"/>
</radialGradient>
<radialGradient id="paint3_radial_46_2250" cx="0" cy="0" r="1" gradientUnits="userSpaceOnUse" gradientTransform="translate(6.92298 9.5039) rotate(90) scale(1.96818 1.53479)">
<stop stop-color="#FFEB3B"/>
<stop offset="0.436" stop-color="#FFEB3B"/>
<stop offset="0.6129" stop-color="#FEE238"/>
<stop offset="0.8995" stop-color="#FCCA30"/>
<stop offset="1" stop-color="#FBC02D"/>
</radialGradient>
<radialGradient id="paint4_radial_46_2250" cx="0" cy="0" r="1" gradientUnits="userSpaceOnUse" gradientTransform="translate(8.81244 12.1118) rotate(90) scale(1.60211 1.24932)">
<stop stop-color="#8BC34A"/>
<stop offset="0.3459" stop-color="#83BB46"/>
<stop offset="0.8869" stop-color="#6DA53B"/>
<stop offset="1" stop-color="#689F38"/>
</radialGradient>
</defs>
</svg>
