<svg width="17" height="18" viewBox="0 0 17 18" fill="none" xmlns="http://www.w3.org/2000/svg">
<path d="M8.84372 2.57942C10.7983 2.57942 12.6728 3.35587 14.0549 4.73797C15.437 6.12007 16.2135 7.9946 16.2135 9.94918C16.2135 11.9038 15.437 13.7783 14.0549 15.1604C12.6728 16.5425 10.7983 17.3189 8.84372 17.3189C6.88913 17.3189 5.01461 16.5425 3.63251 15.1604C2.25041 13.7783 1.47395 11.9038 1.47395 9.94918C1.47395 7.9946 2.25041 6.12007 3.63251 4.73797C5.01461 3.35587 6.88913 2.57942 8.84372 2.57942Z" fill="url(#paint0_linear_46_2170)"/>
<path d="M8.84372 2.57942C6.88913 2.57942 5.01461 3.35587 3.63251 4.73797C2.25041 6.12007 1.47395 7.9946 1.47395 9.94918C1.47395 11.9038 2.25041 13.7783 3.63251 15.1604C5.01461 16.5425 6.88913 17.3189 8.84372 17.3189V2.57942Z" fill="url(#paint1_linear_46_2170)"/>
<path d="M16.2135 9.70352C16.2135 10.6713 16.0229 11.6297 15.6525 12.5238C15.2821 13.418 14.7393 14.2304 14.0549 14.9147C13.3706 15.5991 12.5581 16.1419 11.664 16.5123C10.7699 16.8827 9.81153 17.0733 8.84372 17.0733C7.87591 17.0733 6.91757 16.8827 6.02343 16.5123C5.12929 16.1419 4.31685 15.5991 3.63251 14.9147C2.94816 14.2304 2.40531 13.418 2.03494 12.5238C1.66458 11.6297 1.47395 10.6713 1.47395 9.70352C1.47395 7.74894 2.25041 5.87441 3.63251 4.49231C5.01461 3.11021 6.88913 2.33376 8.84372 2.33376C10.7983 2.33376 12.6728 3.11021 14.0549 4.49231C15.437 5.87441 16.2135 7.74894 16.2135 9.70352Z" fill="#40A1C8"/>
<path d="M4.42186 9.82635C4.41523 11.4436 4.74134 13.0449 5.37993 14.5307C4.93354 14.7534 4.52686 15.048 4.1762 15.4028C3.34793 14.7252 2.67715 13.8754 2.2105 12.9124C1.74384 11.9494 1.4925 10.8963 1.47395 9.82635H4.42186Z" fill="#49BBB0"/>
<path d="M8.84372 13.7569V17.0733C8.29099 17.0733 7.73825 17.0119 7.1978 16.889C6.3931 16.2733 5.76587 15.4553 5.37993 14.5184C6.46 13.9999 7.64574 13.7392 8.84372 13.7569Z" fill="#378BDE"/>
<path d="M13.2656 9.82635C13.2722 11.4436 12.9461 13.0449 12.3075 14.5307C12.7539 14.7534 13.1606 15.048 13.5112 15.4028C14.3395 14.7252 15.0103 13.8754 15.4769 12.9124C15.9436 11.9494 16.1949 10.8963 16.2135 9.82635H13.2656Z" fill="#266EC6"/>
<path d="M8.84372 9.82635V17.0733C9.39645 17.0733 9.94918 17.0119 10.4896 16.889C12.1355 15.7222 13.241 12.9462 13.2656 9.82635H8.84372Z" fill="#378BDE"/>
<path d="M8.84372 13.7569V17.0733C9.39645 17.0733 9.94918 17.0119 10.4896 16.889C11.202 16.3977 11.8285 15.5748 12.3075 14.5184C11.2274 13.9999 10.0417 13.7392 8.84372 13.7569Z" fill="#266EC6"/>
<path d="M12.3075 14.5307C11.8162 15.5748 11.202 16.3854 10.4896 16.889C11.5969 16.6371 12.6311 16.1327 13.5112 15.4151C13.1647 15.0523 12.7573 14.753 12.3075 14.5307Z" fill="#1E62B5"/>
<path d="M8.84372 2.33376C7.86549 2.33362 6.89701 2.52824 5.99477 2.90626C5.09253 3.28429 4.27457 3.83815 3.5886 4.53556C2.90262 5.23297 2.36235 6.05996 1.99929 6.96833C1.63623 7.8767 1.45765 8.84826 1.47395 9.82635H8.84372V2.33376Z" fill="#53D795"/>
<path d="M7.1978 2.518C6.09049 2.76996 5.05638 3.2744 4.17619 3.99195C4.52276 4.35473 4.93015 4.65403 5.37992 4.87633C5.87124 3.83228 6.48539 3.0216 7.1978 2.518Z" fill="#72E99A"/>
<path d="M8.84372 2.33376C8.29099 2.33376 7.73825 2.39517 7.1978 2.518C5.52732 3.69717 4.42186 6.53453 4.42186 9.70352V9.82635H8.84372V2.33376Z" fill="#49BBB0"/>
<path d="M8.84372 2.33376C8.29099 2.33376 7.73825 2.39517 7.1978 2.518C6.39352 3.13419 5.76638 3.95201 5.37993 4.88861C6.46 5.40718 7.64574 5.66788 8.84372 5.65015V2.33376Z" fill="#53D795"/>
<path d="M8.84372 2.33376C9.82195 2.33362 10.7904 2.52824 11.6927 2.90626C12.5949 3.28429 13.4129 3.83815 14.0988 4.53556C14.7848 5.23297 15.3251 6.05996 15.6881 6.96833C16.0512 7.8767 16.2298 8.84826 16.2135 9.82635H8.84372V2.33376Z" fill="#378BDE"/>
<path d="M10.4896 2.51801C11.5969 2.76996 12.631 3.2744 13.5112 3.99196C13.1647 4.35473 12.7573 4.65404 12.3075 4.87633C11.8162 3.83228 11.202 3.02161 10.4896 2.51801Z" fill="#40A1C8"/>
<path d="M8.84372 2.33376C9.39645 2.33376 9.94918 2.39517 10.4896 2.518C12.1601 3.69717 13.2656 6.53453 13.2656 9.70352V9.82635H8.84372V2.33376Z" fill="#40A1C8"/>
<path d="M8.84372 2.33376C9.39645 2.33376 9.94918 2.39517 10.4896 2.518C11.202 3.00932 11.8285 3.83228 12.3075 4.87633C11.3249 5.36765 10.0966 5.65015 8.84372 5.65015V2.33376Z" fill="#49BBB0"/>
<defs>
<linearGradient id="paint0_linear_46_2170" x1="13.0199" y1="15.7222" x2="14.2482" y2="15.7222" gradientUnits="userSpaceOnUse">
<stop stop-color="#16529C"/>
<stop offset="1" stop-color="#236AC0"/>
</linearGradient>
<linearGradient id="paint1_linear_46_2170" x1="8.10674" y1="16.7048" x2="2.70225" y2="16.7048" gradientUnits="userSpaceOnUse">
<stop stop-color="#2166BB"/>
<stop offset="1" stop-color="#89EDA9"/>
</linearGradient>
</defs>
</svg>
