<svg width="88" height="88" viewBox="0 0 88 88" fill="none" xmlns="http://www.w3.org/2000/svg">
<path d="M44 88C68.3005 88 88 68.3005 88 44C88 19.6995 68.3005 0 44 0C19.6995 0 0 19.6995 0 44C0 68.3005 19.6995 88 44 88Z" fill="#4F5D73"/>
<g opacity="0.2">
<path d="M60.7749 56.375C62.2937 56.375 63.5249 55.1438 63.5249 53.625C63.5249 52.1063 62.2937 50.875 60.7749 50.875C59.2561 50.875 58.0249 52.1063 58.0249 53.625C58.0249 55.1438 59.2561 56.375 60.7749 56.375Z" fill="#231F20"/>
<path d="M60.7749 72.875C62.2937 72.875 63.5249 71.6438 63.5249 70.125C63.5249 68.6063 62.2937 67.375 60.7749 67.375C59.2561 67.375 58.0249 68.6063 58.0249 70.125C58.0249 71.6438 59.2561 72.875 60.7749 72.875Z" fill="#231F20"/>
<path d="M36.025 30.25H30.525V24.75C30.525 23.2375 29.2875 22 27.775 22C26.2625 22 25.025 23.2375 25.025 24.75V30.25H19.525C18.0125 30.25 16.775 31.4875 16.775 33C16.775 34.5125 18.0125 35.75 19.525 35.75H25.025V41.25C25.025 42.7625 26.2625 44 27.775 44C29.2875 44 30.525 42.7625 30.525 41.25V35.75H36.025C37.5375 35.75 38.775 34.5125 38.775 33C38.775 31.4875 37.5375 30.25 36.025 30.25Z" fill="#231F20"/>
<path d="M52.525 35.7501H69.025C70.5375 35.7501 71.775 34.5126 71.775 33.0001C71.775 31.4876 70.5375 30.2501 69.025 30.2501H52.525C51.0125 30.2501 49.775 31.4876 49.775 33.0001C49.775 34.5126 51.0125 35.7501 52.525 35.7501Z" fill="#231F20"/>
<path d="M69.025 59.125H52.525C51.0125 59.125 49.775 60.3625 49.775 61.875C49.775 63.3875 51.0125 64.625 52.525 64.625H69.025C70.5375 64.625 71.775 63.3875 71.775 61.875C71.775 60.3625 70.5375 59.125 69.025 59.125Z" fill="#231F20"/>
<path d="M37.125 53.9001C36.025 52.8001 34.375 52.8001 33.275 53.9001L27.775 59.4001L22.275 53.9001C21.175 52.8001 19.525 52.8001 18.425 53.9001C17.325 55.0001 17.325 56.6501 18.425 57.7501L23.925 63.2501L18.425 68.7501C17.325 69.8501 17.325 71.5001 18.425 72.6001C19.525 73.7001 21.175 73.7001 22.275 72.6001L27.775 67.1001L33.275 72.6001C34.375 73.7001 36.025 73.7001 37.125 72.6001C38.225 71.5001 38.225 69.8501 37.125 68.7501L31.625 63.2501L37.125 57.7501C38.225 56.6501 38.225 55.0001 37.125 53.9001Z" fill="#231F20"/>
</g>
<path d="M60.775 53.625C62.2938 53.625 63.525 52.3938 63.525 50.875C63.525 49.3562 62.2938 48.125 60.775 48.125C59.2562 48.125 58.025 49.3562 58.025 50.875C58.025 52.3938 59.2562 53.625 60.775 53.625Z" fill="#E0E0D1"/>
<path d="M60.775 70.125C62.2938 70.125 63.525 68.8938 63.525 67.375C63.525 65.8562 62.2938 64.625 60.775 64.625C59.2562 64.625 58.025 65.8562 58.025 67.375C58.025 68.8938 59.2562 70.125 60.775 70.125Z" fill="#E0E0D1"/>
<path d="M38.775 30.25C38.775 31.7625 37.5375 33 36.025 33H19.525C18.0125 33 16.775 31.7625 16.775 30.25C16.775 28.7375 18.0125 27.5 19.525 27.5H36.025C37.5375 27.5 38.775 28.7375 38.775 30.25Z" fill="#F5CF87"/>
<path d="M71.775 30.25C71.775 31.7625 70.5375 33 69.025 33H52.525C51.0125 33 49.775 31.7625 49.775 30.25C49.775 28.7375 51.0125 27.5 52.525 27.5H69.025C70.5375 27.5 71.775 28.7375 71.775 30.25Z" fill="#E0995E"/>
<path d="M27.775 41.25C26.2625 41.25 25.025 40.0125 25.025 38.5V22C25.025 20.4875 26.2625 19.25 27.775 19.25C29.2875 19.25 30.525 20.4875 30.525 22V38.5C30.525 40.0125 29.2875 41.25 27.775 41.25Z" fill="#F5CF87"/>
<path d="M71.775 59.125C71.775 60.6375 70.5375 61.875 69.025 61.875H52.525C51.0125 61.875 49.775 60.6375 49.775 59.125C49.775 57.6125 51.0125 56.375 52.525 56.375H69.025C70.5375 56.375 71.775 57.6125 71.775 59.125Z" fill="#E0E0D1"/>
<path d="M37.125 69.85C36.025 70.95 34.375 70.95 33.275 69.85L18.425 55C17.325 53.9 17.325 52.25 18.425 51.15C19.525 50.05 21.175 50.05 22.275 51.15L37.125 66C38.225 67.1 38.225 68.75 37.125 69.85Z" fill="#76C2AF"/>
<path d="M18.425 69.85C17.325 68.75 17.325 67.1 18.425 66L33.275 51.15C34.375 50.05 36.025 50.05 37.125 51.15C38.225 52.25 38.225 53.9 37.125 55L22.275 69.85C21.175 70.95 19.525 70.95 18.425 69.85Z" fill="#76C2AF"/>
</svg>
