<svg width="24" height="21" viewBox="0 0 24 21" fill="none" xmlns="http://www.w3.org/2000/svg">
<path d="M22.423 5.86278V15.8823C22.423 16.2764 22.2666 16.6543 21.9882 16.9332C21.7097 17.2121 21.332 17.3691 20.9379 17.3697L2.76506 17.3811C2.56915 17.3811 2.37517 17.3424 2.19427 17.2672C2.01336 17.192 1.84908 17.0819 1.71087 16.943C1.57267 16.8042 1.46325 16.6394 1.3889 16.4581C1.31456 16.2769 1.27675 16.0827 1.27765 15.8868L1.31871 5.94491C1.32051 5.55319 1.47676 5.17798 1.75354 4.90078C2.03032 4.62357 2.40528 4.46674 2.797 4.46434L20.9265 4.36853C21.1232 4.36732 21.3181 4.40513 21.5001 4.47976C21.6821 4.5544 21.8474 4.66438 21.9866 4.80335C22.1258 4.94232 22.236 5.1075 22.3109 5.28935C22.3858 5.4712 22.424 5.66611 22.423 5.86278Z" fill="white"/>
<g opacity="0.3">
<path opacity="0.3" d="M9.81743 10.8943L13.4415 7.07798L13.9378 7.54925L10.3137 11.3656L9.81743 10.8943Z" fill="#F5A8A0"/>
<path opacity="0.3" d="M11.3411 10.9013L13.6312 8.42039L14.1341 8.88461L11.844 11.3655L11.3411 10.9013Z" fill="#F5A8A0"/>
</g>
<path d="M1.35977 16.2769H22.0968C22.0968 16.6206 21.9603 16.9502 21.7173 17.1932C21.4743 17.4362 21.1447 17.5727 20.801 17.5727H2.65555C2.31189 17.5727 1.9823 17.4362 1.7393 17.1932C1.49629 16.9502 1.35977 16.6206 1.35977 16.2769Z" fill="#E2E9F1"/>
<path d="M13.9959 3.37844C13.7031 3.37844 13.4168 3.29161 13.1734 3.12892C12.9299 2.96624 12.7401 2.735 12.6281 2.46447C12.516 2.19393 12.4867 1.89624 12.5438 1.60903C12.6009 1.32183 12.7419 1.05802 12.949 0.850961C13.1561 0.6439 13.4199 0.50289 13.7071 0.445762C13.9943 0.388634 14.292 0.417954 14.5625 0.530015C14.833 0.642075 15.0643 0.831843 15.227 1.07532C15.3896 1.3188 15.4765 1.60505 15.4765 1.89788C15.4759 2.29036 15.3197 2.6666 15.0422 2.94413C14.7646 3.22166 14.3884 3.37784 13.9959 3.37844ZM13.9959 1.09714C13.8384 1.09714 13.6845 1.14384 13.5536 1.23132C13.4227 1.31881 13.3206 1.44315 13.2603 1.58863C13.2001 1.73412 13.1843 1.8942 13.215 2.04864C13.2458 2.20309 13.3216 2.34495 13.4329 2.4563C13.5443 2.56764 13.6861 2.64347 13.8406 2.67419C13.995 2.70491 14.1551 2.68915 14.3006 2.62889C14.4461 2.56863 14.5704 2.46658 14.6579 2.33565C14.7454 2.20472 14.7921 2.05078 14.7921 1.89332C14.7909 1.68274 14.7065 1.48116 14.5574 1.33247C14.4083 1.18378 14.2065 1.10002 13.9959 1.09942V1.09714Z" fill="#F5A8A0"/>
<path d="M11.5572 3.21191C11.8256 3.21191 12.0431 2.99436 12.0431 2.72599C12.0431 2.45763 11.8256 2.24007 11.5572 2.24007C11.2888 2.24007 11.0713 2.45763 11.0713 2.72599C11.0713 2.99436 11.2888 3.21191 11.5572 3.21191Z" fill="#F5A8A0"/>
<path d="M3.61142 19.108C3.87979 19.108 4.09734 18.8905 4.09734 18.6221C4.09734 18.3538 3.87979 18.1362 3.61142 18.1362C3.34306 18.1362 3.1255 18.3538 3.1255 18.6221C3.1255 18.8905 3.34306 19.108 3.61142 19.108Z" fill="#D5DFEB"/>
<path d="M5.9452 20.6114C5.7029 20.6114 5.46605 20.5396 5.26459 20.4049C5.06313 20.2703 4.90611 20.079 4.81339 19.8552C4.72067 19.6313 4.69641 19.385 4.74368 19.1473C4.79095 18.9097 4.90762 18.6914 5.07895 18.5201C5.25028 18.3488 5.46856 18.2321 5.7062 18.1848C5.94384 18.1376 6.19016 18.1618 6.41401 18.2545C6.63786 18.3473 6.82919 18.5043 6.9638 18.7057C7.09841 18.9072 7.17026 19.1441 7.17026 19.3863C7.16965 19.7111 7.04039 20.0223 6.81078 20.2519C6.58117 20.4815 6.26992 20.6108 5.9452 20.6114ZM5.9452 18.8457C5.83826 18.8457 5.73373 18.8774 5.64482 18.9368C5.55591 18.9962 5.48661 19.0806 5.44569 19.1794C5.40476 19.2782 5.39406 19.3869 5.41492 19.4918C5.43578 19.5967 5.48727 19.693 5.56289 19.7687C5.6385 19.8443 5.73484 19.8958 5.83972 19.9166C5.9446 19.9375 6.05331 19.9268 6.1521 19.8859C6.2509 19.8449 6.33534 19.7756 6.39475 19.6867C6.45416 19.5978 6.48587 19.4933 6.48587 19.3863C6.48587 19.243 6.4289 19.1054 6.32751 19.004C6.22611 18.9026 6.08859 18.8457 5.9452 18.8457Z" fill="#3E6177"/>
<path d="M2.52324 17.7233C2.28261 17.7233 2.04436 17.6757 1.82219 17.5833C1.60001 17.4908 1.39831 17.3554 1.22869 17.1847C1.05907 17.014 0.92488 16.8115 0.833837 16.5887C0.742794 16.366 0.696698 16.1274 0.698202 15.8868L0.74839 5.9449C0.74839 5.46087 0.940671 4.99667 1.28293 4.6544C1.62519 4.31214 2.0894 4.11986 2.57343 4.11986L20.7029 4.02405C21.187 4.02405 21.6512 4.21633 21.9934 4.55859C22.3357 4.90085 22.528 5.36506 22.528 5.84909V15.8823C22.528 16.3663 22.3357 16.8305 21.9934 17.1728C21.6512 17.515 21.187 17.7073 20.7029 17.7073L2.52781 17.7187L2.52324 17.7233ZM20.6984 4.71984L2.57115 4.80425C2.26863 4.80425 1.9785 4.92443 1.76459 5.13834C1.55067 5.35226 1.4305 5.64238 1.4305 5.9449L1.38259 15.8891C1.38259 16.1916 1.50277 16.4818 1.71668 16.6957C1.9306 16.9096 2.22072 17.0298 2.52324 17.0298L20.6984 17.0183C21.0009 17.0183 21.291 16.8982 21.5049 16.6843C21.7189 16.4703 21.839 16.1802 21.839 15.8777V5.86278C21.839 5.56026 21.7189 5.27013 21.5049 5.05621C21.291 4.8423 21.0009 4.72213 20.6984 4.72213V4.71984Z" fill="#3E6177"/>
<path d="M11.6211 13.6192C11.2959 13.62 10.9739 13.5562 10.6736 13.4317C10.3732 13.3072 10.1005 13.1243 9.87132 12.8938L3.91484 6.93956L4.39848 6.45593L10.355 12.4101C10.6908 12.7459 11.1462 12.9345 11.6211 12.9345C12.0959 12.9345 12.5514 12.7459 12.8872 12.4101L18.8437 6.45364L19.3273 6.93728L13.3708 12.8938C13.1416 13.1243 12.869 13.3072 12.5686 13.4317C12.2683 13.5562 11.9462 13.62 11.6211 13.6192Z" fill="#3E6177"/>
<path d="M3.09583 14.8672L7.50216 9.84097L8.01679 10.2921L3.61046 15.3184L3.09583 14.8672Z" fill="#3E6177"/>
<path d="M15.2255 10.2893L15.7402 9.83822L20.1457 14.8652L19.631 15.3163L15.2255 10.2893Z" fill="#3E6177"/>
<path d="M20.0208 8.09618C19.931 8.09594 19.8434 8.06806 19.7699 8.01633L18.0201 6.79127C17.9457 6.73924 17.895 6.65978 17.8792 6.57036C17.8633 6.48094 17.8837 6.3889 17.9357 6.31448C17.9878 6.24006 18.0672 6.18936 18.1566 6.17353C18.246 6.1577 18.3381 6.17804 18.4125 6.23007L19.9684 7.31369L22.5074 3.92824C22.535 3.89229 22.5694 3.86212 22.6086 3.83945C22.6478 3.81679 22.6911 3.80207 22.736 3.79614C22.7809 3.79021 22.8266 3.79318 22.8703 3.80488C22.9141 3.81659 22.9551 3.8368 22.9911 3.86436C23.027 3.89193 23.0572 3.9263 23.0799 3.96552C23.1025 4.00474 23.1173 4.04804 23.1232 4.09295C23.1291 4.13786 23.1261 4.1835 23.1144 4.22726C23.1027 4.27102 23.0825 4.31205 23.055 4.348L20.3721 7.91824C20.3315 7.97327 20.2786 8.01802 20.2176 8.04892C20.1566 8.07982 20.0892 8.096 20.0208 8.09618Z" fill="white"/>
</svg>
