<svg width="10" height="16" viewBox="0 0 10 16" fill="none" xmlns="http://www.w3.org/2000/svg">
<path d="M4.58916 15.193C5.78516 15.193 6.46837 14.6314 6.63029 13.9039H2.54852C2.71044 14.6314 3.39316 15.193 4.58916 15.193Z" fill="#D0CFCE"/>
<path d="M7.03922 1.61884C7.03922 1.61884 3.97852 0.753688 2.48445 1.93642C0.990642 3.11916 0.569702 5.84051 0.569702 5.84051C0.716055 6.39434 1.62731 7.96598 1.62731 7.96598C1.76245 8.19399 2.19115 9.96332 2.44041 10.9341H6.7374C6.95418 10.2221 7.82604 7.51801 7.93991 7.25273C8.08606 6.91163 8.33532 6.24768 8.4612 5.99717C8.76402 5.39429 8.59579 4.88225 8.59579 4.23858C8.59579 2.8654 8.11979 2.30506 7.03891 1.61834L7.03922 1.61884Z" fill="#FCEA2B"/>
<path d="M4.58915 0.815997C2.45391 0.815997 0.459829 2.50576 0.459829 4.64C0.459829 4.91003 0.393735 5.76392 0.764397 5.76392C0.764397 5.76392 1.36327 3.80562 2.85708 2.62314C4.3509 1.44065 6.74114 1.69091 6.74114 1.69091C6.57485 1.17913 5.35219 0.815247 4.5899 0.815247L4.58915 0.815997Z" fill="white"/>
<path d="M8.80356 4.95734C8.80356 5.95463 8.35684 6.43588 7.86408 7.58508C7.73824 7.87839 6.81022 10.9336 6.81022 10.9336H2.51323C2.51323 10.9336 1.7672 8.01303 1.6258 7.77528C1.03268 6.77474 0.519897 6.04597 0.519897 4.95734C0.519897 2.66969 2.37434 0.815506 4.66173 0.815506C6.94937 0.815506 8.80356 2.66994 8.80356 4.95734Z" stroke="black" stroke-width="0.500523" stroke-miterlimit="10" stroke-linecap="round" stroke-linejoin="round"/>
<path d="M4.66171 10.831V7.84285Z" fill="black"/>
<path d="M4.66171 10.831V7.84285" stroke="black" stroke-width="0.500523" stroke-miterlimit="10" stroke-linecap="round" stroke-linejoin="round"/>
<path d="M6.15579 7.84285H3.16766Z" fill="black"/>
<path d="M6.15579 7.84285H3.16766" stroke="black" stroke-width="0.500523" stroke-miterlimit="10" stroke-linecap="round" stroke-linejoin="round"/>
<path d="M6.70384 13.7265C6.70384 14.5373 5.79013 15.1948 4.66295 15.1948C3.53578 15.1948 2.62207 14.5373 2.62207 13.7265H6.70384Z" stroke="black" stroke-width="0.424444" stroke-miterlimit="10" stroke-linecap="round" stroke-linejoin="round"/>
<path d="M2.65714 12.773L6.66633 11.9046Z" fill="black"/>
<path d="M2.65714 12.773L6.66633 11.9046" stroke="black" stroke-width="0.491764" stroke-miterlimit="10" stroke-linecap="round" stroke-linejoin="round"/>
<path d="M5.21228 13.0458L6.65879 12.7505Z" fill="black"/>
<path d="M5.21228 13.0458L6.65879 12.7505" stroke="black" stroke-width="0.500523" stroke-miterlimit="10" stroke-linecap="round" stroke-linejoin="round"/>
<path d="M2.66464 11.9271L4.11115 11.6318Z" fill="black"/>
<path d="M2.66464 11.9271L4.11115 11.6318" stroke="black" stroke-width="0.500523" stroke-miterlimit="10" stroke-linecap="round" stroke-linejoin="round"/>
</svg>
