<svg width="431" height="419" viewBox="0 0 431 419" fill="none" xmlns="http://www.w3.org/2000/svg">
<path d="M0 419V209.5V0H431V419H0Z" fill="#AAC5FB"/>
<path fill-rule="evenodd" clip-rule="evenodd" d="M189.459 72.6818C191.798 72.5899 193.233 73.1412 194.774 74.7033C195.89 75.8059 197.59 78.5625 198.494 80.7678C199.663 83.6162 200.141 86.0053 200.248 89.4969C200.407 92.6211 200.088 95.8371 199.344 99.2368C198.76 101.993 198.388 104.382 198.494 104.566C198.653 104.658 200.992 101.075 203.702 96.5722C206.359 92.1616 209.442 87.6592 210.451 86.7404C211.567 85.7296 213.481 85.0864 215.234 85.0864C217.466 84.9945 218.742 85.6377 220.708 87.5673C222.409 89.2213 223.684 91.4265 224.641 94.4588C225.757 97.7667 226.076 99.9719 226.076 103.831C226.023 106.771 225.651 110.171 225.066 112.101C224.588 113.847 221.718 119.268 218.742 124.23C215.819 129.1 213.481 133.235 213.64 133.51C213.799 133.694 218.529 139.759 224.163 146.926C229.743 154.001 234.898 160.249 235.535 160.709C236.226 161.26 236.651 161.627 236.492 161.719C236.333 161.719 237.077 163.281 238.086 165.211C239.096 167.141 240.265 170.265 240.584 172.286C240.956 174.308 241.275 177.248 241.275 178.718C241.275 180.28 241.062 182.945 240.744 184.691C240.478 186.437 239.415 189.653 238.352 191.858C237.236 194.155 235.589 196.268 234.207 197.187C232.772 198.106 230.806 198.566 228.733 198.29C225.597 198.014 225.225 197.647 215.713 186.804C210.345 180.556 205.721 175.502 205.403 175.502C205.084 175.502 200.566 178.81 195.305 182.853C190.044 186.988 185.208 191.215 184.517 192.317C183.826 193.42 182.816 196.177 182.179 198.474C181.328 201.69 181.116 203.895 181.275 208.214C181.435 212.257 181.86 214.738 182.923 217.586C183.773 219.699 185.527 222.548 189.459 226.499L204.34 226.958C216.616 227.326 219.486 227.693 220.814 228.888C221.665 229.715 223.206 232.012 224.163 233.942C225.119 235.871 226.129 239.179 226.448 241.201C226.767 243.222 226.926 249.287 226.82 254.616C226.66 263.529 226.501 264.723 225.066 268.858C223.844 272.258 222.728 274.004 217.626 278.414L90.611 277.955L87.1566 275.015C84.8182 273.085 82.7988 270.42 80.8856 266.745C79.2381 263.621 77.5906 259.302 76.8998 256.362C75.9432 252.043 75.7306 249.011 75.5711 234.309C75.4649 223.65 75.6243 215.289 75.9963 211.797C76.3152 208.765 77.3249 203.711 78.1752 200.587C79.0255 197.279 81.0981 192.317 82.8519 189.101C84.6057 185.793 87.316 182.026 89.0698 180.372C90.7704 178.81 93.5339 176.88 95.1282 176.054C97.5729 174.767 101.612 174.583 143.755 174.491L149.867 169.53L150.026 133.235C150.133 98.4099 150.186 96.7559 151.249 93.2643C151.833 91.2428 153.321 88.2105 154.544 86.6485C156.032 84.627 157.626 83.4325 159.273 83.0649C160.761 82.6974 162.728 82.973 163.95 83.6162C165.119 84.1676 166.873 85.7296 167.776 86.9241C168.733 88.1186 170.062 90.8752 170.646 93.0805C171.39 95.4695 171.922 99.3287 172.028 103.372C172.187 106.955 172.453 109.436 172.719 108.885C172.985 108.425 174.738 101.81 176.705 94.1831C178.618 86.6485 180.744 79.3895 181.381 78.2868C182.019 77.0923 183.401 75.3465 184.411 74.3358C185.633 73.2331 187.387 72.6818 189.459 72.6818V72.6818ZM122.71 114.857C123.72 114.857 123.826 115.317 123.667 120.187C123.614 124.138 123.348 125.424 122.763 125.424C122.179 125.424 121.913 124.138 121.807 120.187C121.647 115.317 121.754 114.857 122.71 114.857V114.857ZM115.695 119.452C115.961 119.452 117.024 121.014 118.087 122.852C119.309 125.057 119.947 126.803 119.681 127.538C119.415 128.457 119.043 128.548 118.246 127.905C117.661 127.354 116.599 125.884 115.854 124.597C115.004 123.127 114.685 121.749 114.898 120.83C115.11 120.095 115.482 119.452 115.695 119.452ZM129.778 119.452C129.991 119.452 130.363 120.003 130.522 120.646C130.735 121.289 129.938 123.311 128.662 125.424C127.174 127.997 126.324 128.824 125.899 128.181C125.509 127.568 125.491 126.649 125.846 125.424C126.111 124.414 127.015 122.668 127.812 121.565C128.609 120.371 129.513 119.452 129.778 119.452ZM344.906 126.895C345.916 126.895 347.723 127.63 348.892 128.548C350.061 129.467 351.656 131.397 352.453 132.867C353.25 134.337 354.153 136.634 354.419 138.105C354.738 139.483 355.004 142.883 355.004 145.639C355.004 149.958 354.738 151.428 353.144 155.287C352.134 157.86 351.284 160.341 351.284 160.8C351.284 161.352 352.931 166.957 355.004 173.481C357.023 179.913 359.202 187.723 359.787 190.939C360.637 195.441 361.062 196.636 361.912 196.636C362.497 196.636 363.826 198.106 364.835 199.852C366.43 202.609 366.695 203.711 366.695 207.203C366.695 209.592 366.323 212.348 365.739 213.727C365.261 215.105 364.198 216.759 363.347 217.402C362.55 218.137 361.168 218.689 358.724 218.689L359.999 221.721C360.743 223.283 361.647 226.315 362.072 228.337C362.497 230.358 362.922 233.666 363.028 235.688C363.135 237.709 363.028 239.914 362.816 240.557C362.55 241.384 358.511 241.66 345.544 241.66C332.417 241.752 328.538 241.476 328.06 240.557C327.599 239.761 327.493 237.832 327.741 234.769C327.9 232.288 328.432 228.704 328.91 226.958C329.441 225.213 330.238 222.64 331.62 218.689H330.026C329.122 218.689 327.688 218.045 326.837 217.31C325.934 216.575 324.765 214.554 324.18 212.992C323.595 211.338 323.117 209.041 323.117 207.938C323.117 206.743 323.542 204.354 324.021 202.517C324.658 200.495 325.668 198.657 326.89 197.739C328.538 196.36 328.963 195.441 329.707 191.123C330.185 188.366 332.045 181.567 333.799 175.962C335.606 170.448 337.413 164.476 337.785 162.914C338.476 160.065 338.423 159.698 336.935 156.666C336.031 154.92 335.128 151.888 334.809 150.05C334.543 148.12 334.277 145.731 334.277 144.72C334.277 143.71 334.596 141.229 334.968 139.207C335.287 137.186 336.509 133.97 337.572 132.132C338.688 130.202 340.389 128.273 341.292 127.813C342.249 127.354 343.897 126.895 344.906 126.895V126.895ZM115.217 131.581C117.502 131.764 118.246 132.224 118.246 133.235C118.246 134.245 117.502 134.705 115.164 134.889C112.4 135.072 112.134 134.889 112.188 133.235C112.188 131.489 112.453 131.305 115.217 131.581V131.581ZM130.469 131.397C133.02 131.397 133.392 131.581 133.392 133.235C133.392 134.889 133.02 135.072 130.469 135.072C128.875 135.072 127.44 134.705 127.281 134.154C127.121 133.694 127.121 132.867 127.281 132.316C127.493 131.856 128.928 131.397 130.469 131.397ZM119.043 137.829C119.362 137.829 119.681 138.38 119.787 139.023C119.947 139.575 119.149 141.688 118.087 143.71C116.971 145.639 115.854 146.926 115.429 146.65C115.11 146.374 114.792 145.547 114.792 144.812C114.792 144.077 115.589 142.239 116.652 140.677C117.715 139.115 118.777 137.829 119.043 137.829V137.829ZM126.324 137.829C126.59 137.829 127.653 139.391 128.822 141.229C129.938 143.158 130.682 145.272 130.522 145.915C130.363 146.466 129.885 147.018 129.513 147.018C129.194 147.018 128.025 145.639 127.015 143.893C125.739 141.688 125.261 140.218 125.527 139.207C125.739 138.472 126.111 137.829 126.324 137.829V137.829ZM122.976 140.861C123.295 141.045 123.614 143.526 123.667 146.374C123.826 151.061 123.72 151.612 122.763 151.612C121.86 151.612 121.7 150.969 121.594 146.742C121.541 143.985 121.7 141.504 121.966 141.137C122.232 140.861 122.657 140.677 122.976 140.861V140.861ZM236.067 199.393C236.439 199.393 237.98 202.976 239.468 207.387C242.125 215.381 242.125 215.473 244.092 215.289C245.686 215.013 246.377 215.564 247.652 217.77C248.981 220.067 249.193 221.078 248.768 227.418L261.045 244.876C267.794 254.432 276.138 266.377 285.916 280.252L287.617 278.414C288.573 277.404 290.061 276.577 290.965 276.577C291.815 276.577 293.144 277.128 293.888 277.771C294.579 278.323 295.748 280.344 296.386 282.09C297.076 283.836 297.608 286.317 297.608 287.603C297.608 288.889 297.236 291.187 296.811 292.657C296.332 294.127 296.014 295.505 296.014 295.689C296.014 295.781 296.864 295.873 297.874 295.873C298.883 295.873 301.115 296.792 302.763 297.894C304.463 298.997 306.642 301.11 307.546 302.489C308.502 303.867 309.3 305.613 309.3 306.256C309.3 306.807 303.826 316.915 297.076 328.492C287.192 345.583 284.694 349.442 284.003 348.707C283.578 348.156 282.355 345.491 281.346 342.735C280.336 339.886 279.273 335.292 278.901 332.168C278.529 329.136 278.21 326.563 278.104 326.471C277.998 326.287 277.413 326.838 276.722 327.573C276.084 328.309 274.543 328.952 273.268 328.952C271.673 328.952 270.611 328.309 269.441 326.655C268.538 325.368 267.635 322.887 267.369 320.958C267.05 318.752 267.05 316.455 267.369 314.709C267.635 313.239 268.113 311.402 268.379 310.85C268.751 309.931 265.19 301.937 255.518 281.906C248.184 266.561 241.222 252.135 240.106 249.746C238.246 245.703 237.927 245.427 236.333 245.887C235.323 246.254 234.154 245.979 233.41 245.244C232.772 244.509 231.975 242.947 231.656 241.66C231.337 240.374 231.231 238.26 231.39 236.882C231.709 234.493 231.443 234.034 226.926 229.715C224.216 227.142 222.143 224.569 222.143 223.742C222.143 223.007 222.462 222.18 222.781 221.905C223.153 221.721 224.481 221.078 227.989 219.607L226.129 212.716C225.119 208.949 224.269 205.181 224.269 204.446C224.269 203.711 224.588 203.068 224.907 203.068C225.279 203.068 226.926 203.987 228.52 205.181C230.115 206.468 231.975 207.662 232.612 208.03C233.569 208.489 233.888 208.122 234.047 206.56C234.207 205.365 234.579 203.344 234.845 201.965C235.163 200.495 235.695 199.393 236.067 199.393V199.393ZM246.43 299.548C246.802 299.548 247.121 300.283 247.121 301.202C247.121 302.029 245.42 305.705 243.294 309.288C241.169 312.872 238.352 317.007 237.023 318.569C235.695 320.131 233.091 322.704 231.178 324.357C229.264 326.011 226.395 328.125 224.8 329.136C223.206 330.054 219.964 331.433 217.626 332.168C215.287 332.995 210.398 333.638 206.731 333.638C203.064 333.638 198.281 333.179 196.102 332.627C193.923 332.076 189.725 330.514 186.802 329.319C183.879 328.033 181.222 326.655 180.956 326.103C180.602 325.552 180.655 324.909 181.116 324.174C181.647 323.163 182.657 323.347 186.164 325.001C188.556 326.103 192.807 327.665 195.571 328.492C198.334 329.227 203.224 329.871 206.465 329.871C209.654 329.871 214.225 329.319 216.563 328.492C218.901 327.757 222.621 326.103 224.8 324.817C226.979 323.531 230.115 321.141 231.709 319.579C233.303 318.017 235.961 314.985 237.555 312.78C239.149 310.666 241.647 306.807 243.135 304.234C244.57 301.662 246.058 299.548 246.43 299.548Z" fill="#383A48"/>
<path d="M197.165 182.761C196.581 182.21 197.272 181.291 199.822 179.27C201.736 177.799 203.436 176.513 203.649 176.513C203.915 176.421 204.074 187.815 204.074 226.958L196.74 226.683C189.884 226.499 189.3 226.315 186.908 223.926C185.527 222.548 183.773 219.699 182.923 217.586C181.647 214.278 181.488 212.9 181.488 206.652C181.488 200.22 181.647 199.117 183.082 195.533C184.357 192.409 185.686 190.755 189.725 187.264C192.489 184.875 194.933 182.945 195.146 182.945C195.411 182.853 195.571 183.496 195.571 184.231C195.571 184.966 195.943 185.61 196.368 185.61C196.793 185.61 197.325 185.15 197.59 184.599C197.803 184.048 197.59 183.221 197.165 182.761Z" fill="#AAC5FB"/>
<path fill-rule="evenodd" clip-rule="evenodd" d="M204.446 64.1364C203.489 65.239 203.383 66.2498 203.489 80.0327C203.489 88.0268 203.702 94.8263 203.968 95.102C204.18 95.2857 205.19 93.9993 206.2 92.2535C207.209 90.4158 209.016 88.1186 210.186 87.016C211.567 85.7296 213.321 85.0864 215.234 85.0864C217.466 84.9945 218.742 85.6377 220.708 87.5673C222.409 89.2213 223.684 91.4265 224.641 94.4588C225.757 97.7667 226.076 99.9719 226.076 103.831C226.023 106.771 225.651 110.171 225.066 112.101C224.588 113.847 221.718 119.268 218.742 124.23C215.819 129.1 213.481 133.235 213.64 133.51C213.799 133.694 218.689 139.942 224.535 147.385L235.163 160.8C256.049 160.8 259.291 160.525 259.769 159.698C260.247 158.779 260.407 147.293 260.46 112.101C260.46 75.2546 260.301 65.5147 259.769 64.5958C259.238 63.7689 252.063 63.4013 232.294 63.2175C210.93 63.0338 205.296 63.2175 204.446 64.1364V64.1364ZM57.6615 64.3202C57.5021 64.8715 57.5021 65.6985 57.6615 66.1579C57.821 66.7092 58.2993 67.0768 58.7244 67.0768C59.1496 67.0768 59.5216 66.2498 59.5216 65.239C59.5216 64.2283 59.1496 63.4013 58.7244 63.4013C58.3524 63.4013 57.8741 63.8607 57.6615 64.3202ZM67.6526 64.9634C67.7058 65.8822 68.1309 66.6173 68.5561 66.6173C68.9812 66.6173 69.3533 65.9741 69.3533 65.239C69.3533 64.5039 68.9281 63.7689 68.4498 63.5851C67.7589 63.3094 67.5464 63.7689 67.6526 64.9634V64.9634ZM77.3249 64.3202C77.1655 64.8715 77.1655 65.6985 77.3249 66.1579C77.4843 66.7092 77.9626 67.0768 78.3878 67.0768C78.8129 67.0768 79.1849 66.2498 79.1849 65.239C79.1849 64.2283 78.8129 63.4013 78.3878 63.4013C78.0158 63.4013 77.5375 63.8607 77.3249 64.3202ZM87.316 64.9634C87.3692 65.8822 87.7943 66.6173 88.2195 66.6173C88.6446 66.6173 89.0166 65.9741 89.0166 65.239C89.0166 64.5039 88.5915 63.7689 88.1132 63.5851C87.4223 63.3094 87.2097 63.7689 87.316 64.9634ZM96.9883 64.3202C96.8288 64.8715 96.8288 65.6985 96.9883 66.1579C97.1477 66.7092 97.626 67.0768 98.0512 67.0768C98.4763 67.0768 98.8483 66.2498 98.8483 65.239C98.8483 64.2283 98.4763 63.4013 98.0512 63.4013C97.6791 63.4013 97.2009 63.8607 96.9883 64.3202ZM116.758 64.1364C116.599 64.5039 116.545 65.3309 116.705 65.9741C116.811 66.5254 117.289 67.0768 117.715 67.0768C118.14 67.0768 118.565 66.5254 118.671 65.7903C118.777 65.0553 118.724 64.2283 118.565 63.9526C118.405 63.5851 117.98 63.4013 117.661 63.4013C117.343 63.4013 116.971 63.677 116.758 64.1364V64.1364ZM136.634 65.1471C136.581 66.5254 136.846 66.9849 137.537 66.8011C138.016 66.7092 138.441 65.9741 138.441 65.239C138.441 64.5039 138.069 63.7689 137.537 63.5851C136.97 63.4013 136.669 63.922 136.634 65.1471ZM146.359 64.5958C146.2 65.1471 146.253 66.066 146.466 66.5254C146.731 66.893 147.263 66.9849 147.635 66.7092C147.954 66.4336 148.272 65.5147 148.272 64.7796C148.272 64.0445 147.9 63.4013 147.475 63.4013C147.103 63.4013 146.572 63.9526 146.359 64.5958V64.5958ZM156.297 65.1471C156.244 66.5254 156.51 66.9849 157.201 66.8011C157.679 66.7092 158.104 65.9741 158.104 65.239C158.104 64.5039 157.732 63.7689 157.201 63.5851C156.634 63.4013 156.333 63.922 156.297 65.1471ZM166.023 64.5958C165.863 65.1471 165.916 66.066 166.129 66.5254C166.395 66.893 166.926 66.9849 167.298 66.7092C167.617 66.4336 167.936 65.5147 167.936 64.7796C167.936 64.0445 167.564 63.4013 167.139 63.4013C166.767 63.4013 166.235 63.9526 166.023 64.5958V64.5958ZM175.961 65.1471C175.908 66.5254 176.173 66.9849 176.864 66.8011C177.342 66.7092 177.768 65.9741 177.768 65.239C177.768 64.5039 177.396 63.7689 176.864 63.5851C176.297 63.4013 175.996 63.922 175.961 65.1471ZM185.686 64.5958C185.527 65.1471 185.58 66.066 185.792 66.5254C186.058 66.893 186.59 66.9849 186.962 66.7092C187.28 66.4336 187.599 65.5147 187.599 64.7796C187.599 64.0445 187.227 63.4013 186.802 63.4013C186.43 63.4013 185.899 63.9526 185.686 64.5958V64.5958ZM195.624 65.1471C195.571 66.5254 195.837 66.9849 196.527 66.8011C197.006 66.7092 197.431 65.9741 197.431 65.239C197.431 64.5039 197.059 63.7689 196.527 63.5851C195.961 63.4013 195.659 63.922 195.624 65.1471ZM316.74 64.5039C316.102 65.4228 315.996 73.2331 316.102 112.101C316.155 148.12 316.315 158.779 316.846 159.698C317.378 160.525 320.247 160.8 328.006 160.8C333.799 160.8 338.529 160.525 338.529 160.157C338.476 159.698 337.785 158.044 336.935 156.482C336.031 154.828 335.075 151.704 334.756 149.59C334.437 147.385 334.277 144.445 334.437 142.883C334.543 141.412 335.128 138.472 335.659 136.543C336.244 134.521 337.626 131.673 338.795 130.294C339.964 128.824 341.983 127.446 343.312 127.17C344.641 126.803 346.607 127.078 347.67 127.63C348.786 128.181 350.54 130.019 351.656 131.673C352.718 133.235 353.888 135.991 354.313 137.645C354.685 139.207 355.004 142.883 355.004 145.639C355.004 149.958 354.738 151.428 353.144 155.287C352.134 157.86 351.284 160.065 351.284 160.341C351.284 160.617 355.96 160.8 361.647 160.8C371.478 160.8 372.063 160.709 372.541 158.963C372.86 157.86 373.073 146.007 373.073 129.375V101.534C367.865 101.166 365.951 100.248 363.507 98.2261C361.594 96.664 359.202 94.0912 358.192 92.6211C357.183 91.059 355.429 87.6592 354.313 85.0864C353.09 82.2379 351.815 77.8274 351.177 73.9682C350.593 70.4765 350.168 66.6173 350.274 65.5147L350.486 63.4013C321.895 63.4013 317.271 63.677 316.74 64.5039V64.5039ZM67.7589 80.4921C67.4932 80.8596 67.3338 81.6866 67.3869 82.4217C67.4401 83.0649 67.9715 83.6162 68.5561 83.6162C69.247 83.6162 69.5658 83.0649 69.4595 82.0542C69.4064 81.2272 69.0875 80.4002 68.7687 80.2164C68.4498 80.0327 68.0247 80.2164 67.7589 80.4921V80.4921ZM87.4223 80.4921C87.1566 80.8596 86.9972 81.6866 87.0503 82.4217C87.1034 83.0649 87.6349 83.6162 88.2195 83.6162C88.9103 83.6162 89.2292 83.0649 89.1229 82.0542C89.0698 81.2272 88.7509 80.4002 88.432 80.2164C88.1132 80.0327 87.688 80.2164 87.4223 80.4921V80.4921ZM107.086 80.4921C106.82 80.8596 106.661 81.6866 106.714 82.4217C106.767 83.0649 107.298 83.6162 107.883 83.6162C108.574 83.6162 108.893 83.0649 108.786 82.0542C108.733 81.2272 108.414 80.4002 108.095 80.2164C107.777 80.0327 107.351 80.2164 107.086 80.4921V80.4921ZM126.749 80.4921C126.483 80.8596 126.324 81.6866 126.377 82.4217C126.43 83.0649 126.962 83.6162 127.546 83.6162C128.237 83.6162 128.556 83.0649 128.45 82.0542C128.397 81.2272 128.078 80.4002 127.759 80.2164C127.44 80.0327 127.015 80.2164 126.749 80.4921V80.4921ZM146.412 80.4921C146.147 80.8596 145.987 81.6866 146.04 82.4217C146.094 83.0649 146.625 83.6162 147.21 83.6162C147.9 83.6162 148.219 83.0649 148.113 82.0542C148.06 81.2272 147.741 80.4002 147.422 80.2164C147.103 80.0327 146.678 80.2164 146.412 80.4921V80.4921ZM166.076 80.4921C165.81 80.8596 165.651 81.6866 165.704 82.4217C165.757 83.0649 166.288 83.6162 166.873 83.6162C167.564 83.6162 167.883 83.0649 167.776 82.0542C167.723 81.2272 167.404 80.4002 167.086 80.2164C166.767 80.0327 166.342 80.2164 166.076 80.4921V80.4921ZM57.6615 98.318C57.5021 98.8693 57.5021 99.6963 57.6615 100.156C57.821 100.707 58.2993 101.075 58.7244 101.075C59.1496 101.075 59.5216 100.248 59.5216 99.2368C59.5216 98.2261 59.1496 97.3991 58.7244 97.3991C58.3524 97.3991 57.8741 97.8586 57.6615 98.318ZM67.6526 98.9612C67.7058 99.88 68.1309 100.615 68.5561 100.615C68.9812 100.615 69.3533 99.9719 69.3533 99.2368C69.3533 98.5018 68.9281 97.7667 68.3967 97.5829C67.7589 97.3072 67.5464 97.7667 67.6526 98.9612V98.9612ZM77.3249 98.318C77.1655 98.8693 77.1655 99.6963 77.3249 100.156C77.4843 100.707 77.9626 101.075 78.3878 101.075C78.8129 101.075 79.1849 100.248 79.1849 99.2368C79.1849 98.2261 78.8129 97.3991 78.3878 97.3991C78.0158 97.3991 77.5375 97.8586 77.3249 98.318ZM87.316 98.9612C87.3692 99.88 87.7943 100.615 88.2195 100.615C88.6446 100.615 89.0166 99.9719 89.0166 99.2368C89.0166 98.5018 88.5915 97.7667 88.06 97.5829C87.4223 97.3072 87.2097 97.7667 87.316 98.9612V98.9612ZM96.9883 98.318C96.8288 98.8693 96.8288 99.6963 96.9883 100.156C97.1477 100.707 97.626 101.075 98.0512 101.075C98.4763 101.075 98.8483 100.248 98.8483 99.2368C98.8483 98.2261 98.4763 97.3991 98.0512 97.3991C97.6791 97.3991 97.2009 97.8586 96.9883 98.318ZM116.917 99.2368C116.917 100.248 117.289 101.075 117.715 101.075C118.14 101.075 118.565 100.523 118.671 99.7882C118.777 99.0531 118.724 98.2261 118.565 97.9504C118.405 97.5829 117.927 97.3991 117.555 97.3991C117.236 97.3991 116.917 98.2261 116.917 99.2368V99.2368ZM136.634 99.145C136.581 100.523 136.846 100.983 137.484 100.799C138.016 100.707 138.441 99.9719 138.441 99.2368C138.441 98.5018 138.069 97.7667 137.537 97.5829C136.97 97.3991 136.669 97.9198 136.634 99.145V99.145ZM146.359 98.5936C146.2 99.145 146.253 100.064 146.466 100.523C146.731 100.891 147.263 100.983 147.582 100.707C147.954 100.431 148.272 99.5125 148.272 98.7774C148.272 98.0423 147.9 97.3991 147.475 97.3991C147.103 97.3991 146.572 97.9504 146.359 98.5936ZM67.7589 114.49C67.4932 114.857 67.3338 115.684 67.3869 116.42C67.4401 117.063 67.9715 117.614 68.5561 117.614C69.247 117.614 69.5658 117.063 69.4595 116.052C69.4064 115.225 69.0875 114.398 68.7687 114.214C68.4498 114.03 68.0247 114.214 67.7589 114.49V114.49ZM87.4223 114.49C87.1566 114.857 86.9972 115.684 87.0503 116.42C87.1034 117.063 87.6349 117.614 88.2195 117.614C88.9103 117.614 89.2292 117.063 89.1229 116.052C89.0698 115.225 88.7509 114.398 88.432 114.214C88.1132 114.03 87.688 114.214 87.4223 114.49V114.49ZM107.086 114.49C106.82 114.857 106.661 115.684 106.714 116.42C106.767 117.063 107.298 117.614 107.883 117.614C108.574 117.614 108.893 117.063 108.786 116.052C108.733 115.225 108.414 114.398 108.095 114.214C107.777 114.03 107.351 114.214 107.086 114.49V114.49ZM146.412 114.49C146.147 114.857 145.987 115.684 146.04 116.42C146.094 117.063 146.625 117.614 147.21 117.614C147.9 117.614 148.219 117.063 148.113 116.052C148.06 115.225 147.741 114.398 147.422 114.214C147.103 114.03 146.678 114.214 146.412 114.49V114.49ZM57.6615 132.316C57.5021 132.867 57.5021 133.694 57.6615 134.154C57.821 134.705 58.2993 135.072 58.7244 135.072C59.1496 135.072 59.5216 134.245 59.5216 133.235C59.5216 132.224 59.1496 131.397 58.7244 131.397C58.3524 131.397 57.8741 131.856 57.6615 132.316ZM67.6526 132.959C67.7058 133.878 68.1309 134.613 68.5561 134.613C68.9812 134.613 69.3533 133.97 69.3533 133.235C69.3533 132.5 68.9281 131.764 68.3967 131.581C67.7589 131.305 67.5464 131.764 67.6526 132.959V132.959ZM77.3249 132.316C77.1655 132.867 77.1655 133.694 77.3249 134.154C77.4843 134.705 77.9626 135.072 78.3878 135.072C78.8129 135.072 79.1849 134.245 79.1849 133.235C79.1849 132.224 78.8129 131.397 78.3878 131.397C78.0158 131.397 77.5375 131.856 77.3249 132.316ZM87.316 132.959C87.3692 133.878 87.7943 134.613 88.2195 134.613C88.6446 134.613 89.0166 133.97 89.0166 133.235C89.0166 132.5 88.5915 131.764 88.06 131.581C87.4223 131.305 87.2097 131.764 87.316 132.959V132.959ZM96.9883 132.316C96.8288 132.867 96.8288 133.694 96.9883 134.154C97.1477 134.705 97.626 135.072 98.0512 135.072C98.4763 135.072 98.8483 134.245 98.8483 133.235C98.8483 132.224 98.4763 131.397 98.0512 131.397C97.6791 131.397 97.2009 131.856 96.9883 132.316ZM146.359 132.591C146.2 133.143 146.253 134.062 146.466 134.521C146.731 134.889 147.263 134.98 147.582 134.705C147.954 134.429 148.272 133.51 148.272 132.775C148.272 132.04 147.9 131.397 147.475 131.397C147.103 131.397 146.572 131.948 146.359 132.591ZM67.7589 148.488C67.4932 148.855 67.3338 149.682 67.3869 150.417C67.4401 151.061 67.9715 151.612 68.5561 151.612C69.247 151.612 69.5658 151.061 69.4595 150.05C69.4064 149.223 69.0875 148.396 68.7687 148.212C68.4498 148.028 68.0247 148.212 67.7589 148.488V148.488ZM87.4223 148.488C87.1566 148.855 86.9972 149.682 87.0503 150.417C87.1034 151.061 87.6349 151.612 88.2195 151.612C88.9103 151.612 89.2292 151.061 89.1229 150.05C89.0698 149.223 88.7509 148.396 88.432 148.212C88.1132 148.028 87.688 148.212 87.4223 148.488V148.488ZM107.086 148.488C106.82 148.855 106.661 149.682 106.714 150.417C106.767 151.061 107.298 151.612 107.883 151.612C108.574 151.612 108.893 151.061 108.786 150.05C108.733 149.223 108.414 148.396 108.095 148.212C107.777 148.028 107.351 148.212 107.086 148.488V148.488ZM146.412 148.488C146.147 148.855 145.987 149.682 146.04 150.417C146.094 151.061 146.625 151.612 147.21 151.612C147.9 151.612 148.219 151.061 148.113 150.05C148.06 149.223 147.741 148.396 147.422 148.212C147.103 148.028 146.678 148.212 146.412 148.488V148.488ZM260.991 161.536C260.407 162.179 260.247 169.162 260.354 203.068L260.407 243.957L271.036 259.118C306.27 259.118 315.039 258.751 315.677 258.2C316.74 257.281 316.74 256.362 316.74 210.235C316.74 173.389 316.634 162.822 316.102 161.903C315.571 160.984 309.565 160.8 288.573 160.8C273.799 160.8 261.417 161.168 260.991 161.536V161.536ZM57.6615 166.314C57.5021 166.865 57.5021 167.692 57.6615 168.151C57.821 168.703 58.2993 169.07 58.7244 169.07C59.1496 169.07 59.5216 168.243 59.5216 167.232C59.5216 166.222 59.1496 165.395 58.7244 165.395C58.3524 165.395 57.8741 165.854 57.6615 166.314ZM67.6526 166.957C67.7058 167.876 68.1309 168.611 68.5561 168.611C68.9812 168.611 69.3533 167.968 69.3533 167.232C69.3533 166.497 68.9281 165.762 68.3967 165.579C67.7589 165.303 67.5464 165.762 67.6526 166.957V166.957ZM77.3249 166.314C77.1655 166.865 77.1655 167.692 77.3249 168.151C77.4843 168.703 77.9626 169.07 78.3878 169.07C78.8129 169.07 79.1849 168.243 79.1849 167.232C79.1849 166.222 78.8129 165.395 78.3878 165.395C78.0158 165.395 77.5375 165.854 77.3249 166.314ZM87.316 166.957C87.3692 167.876 87.7943 168.611 88.2195 168.611C88.6446 168.611 89.0166 167.968 89.0166 167.232C89.0166 166.497 88.5915 165.762 88.06 165.579C87.4223 165.303 87.2097 165.762 87.316 166.957V166.957ZM96.9883 166.314C96.8288 166.865 96.8288 167.692 96.9883 168.151C97.1477 168.703 97.626 169.07 98.0512 169.07C98.4763 169.07 98.8483 168.243 98.8483 167.232C98.8483 166.222 98.4763 165.395 98.0512 165.395C97.6791 165.395 97.2009 165.854 96.9883 166.314ZM116.917 167.232C116.917 168.243 117.289 169.07 117.715 169.07C118.14 169.07 118.565 168.519 118.671 167.784C118.777 167.049 118.724 166.222 118.565 165.946C118.405 165.579 117.927 165.395 117.555 165.395C117.236 165.395 116.917 166.222 116.917 167.232V167.232ZM136.634 167.141C136.581 168.519 136.846 168.978 137.484 168.795C138.016 168.703 138.441 167.968 138.441 167.232C138.441 166.497 138.069 165.762 137.537 165.579C136.97 165.395 136.669 165.915 136.634 167.141V167.141ZM146.359 166.589C146.2 167.141 146.253 168.059 146.466 168.519C146.731 168.886 147.263 168.978 147.582 168.703C147.954 168.427 148.272 167.508 148.272 166.773C148.272 166.038 147.9 165.395 147.475 165.395C147.103 165.395 146.572 165.946 146.359 166.589ZM67.7589 182.486C67.4932 182.853 67.3338 183.68 67.3869 184.415C67.4401 185.058 67.9715 185.61 68.5561 185.61C69.247 185.61 69.5658 185.058 69.4595 184.048C69.4064 183.221 69.0875 182.394 68.7687 182.21C68.4498 182.026 68.0247 182.21 67.7589 182.486V182.486ZM57.6615 200.311C57.5021 200.863 57.5021 201.69 57.6615 202.149C57.821 202.7 58.2993 203.068 58.7244 203.068C59.1496 203.068 59.5216 202.241 59.5216 201.23C59.5216 200.22 59.1496 199.393 58.7244 199.393C58.3524 199.393 57.8741 199.852 57.6615 200.311ZM67.6526 200.955C67.7058 201.873 68.1309 202.609 68.5561 202.609C68.9812 202.609 69.3533 201.965 69.3533 201.23C69.3533 200.495 68.9281 199.76 68.3967 199.576C67.7589 199.301 67.5464 199.76 67.6526 200.955V200.955ZM67.7058 216.575C67.4932 216.943 67.3338 217.678 67.3869 218.413C67.4401 219.056 67.9715 219.607 68.5561 219.607C69.1407 219.607 69.619 219.056 69.619 218.321C69.5658 217.586 69.247 216.851 68.8218 216.575C68.3967 216.3 67.9184 216.3 67.7058 216.575V216.575ZM57.6615 234.309C57.5021 234.861 57.5021 235.688 57.6615 236.147C57.821 236.698 58.2993 237.066 58.7244 237.066C59.1496 237.066 59.5216 236.239 59.5216 235.228C59.5216 234.217 59.1496 233.39 58.7244 233.39C58.3524 233.39 57.8741 233.85 57.6615 234.309V234.309ZM67.6526 234.952C67.7058 235.871 68.1309 236.606 68.5561 236.606C68.9812 236.606 69.3533 235.963 69.3533 235.228C69.3533 234.493 68.9281 233.758 68.3967 233.574C67.7589 233.298 67.5464 233.758 67.6526 234.952V234.952ZM67.7058 250.573C67.4932 250.941 67.3338 251.676 67.3869 252.411C67.4401 253.054 67.9715 253.605 68.5561 253.605C69.1407 253.605 69.619 253.054 69.619 252.319C69.5658 251.584 69.247 250.849 68.8218 250.573C68.3967 250.297 67.9184 250.297 67.7058 250.573V250.573ZM226.713 261.232C226.554 263.345 225.757 266.929 224.96 269.226C223.897 272.258 222.674 274.096 220.549 275.934C217.785 278.323 217.201 278.414 210.876 278.414H204.074V329.871C210.451 329.871 214.225 329.319 216.563 328.492C218.901 327.757 222.621 326.103 224.8 324.817C226.979 323.53 230.115 321.141 231.709 319.579C233.303 318.017 235.961 314.985 237.555 312.78C239.149 310.666 241.7 306.807 243.135 304.234C244.623 301.662 246.111 299.548 246.483 299.548C246.802 299.548 247.121 300.283 247.121 301.202C247.121 302.029 245.42 305.705 243.294 309.288C241.169 312.872 238.352 317.007 237.023 318.569C235.695 320.131 233.091 322.704 231.178 324.357C229.264 326.011 226.395 328.125 224.8 329.136C223.206 330.054 220.017 331.433 217.785 332.168C215.5 332.903 211.461 333.546 208.857 333.546H204.074C204.074 353.393 204.18 354.772 205.031 355.139C205.509 355.507 217.891 355.691 232.506 355.599C252.754 355.599 259.238 355.323 259.716 354.404C260.194 353.577 260.407 345.583 260.407 322.795V292.197L243.666 257.281H227.032L226.713 261.232ZM316.899 259.394C316.634 260.037 316.368 280.804 316.315 305.613C316.208 335.476 316.315 351.464 316.687 353.118L317.271 355.691C359.043 355.966 371.638 355.782 372.116 355.415C373.02 354.772 373.073 351.556 373.073 307.634C373.073 270.88 372.913 260.313 372.435 259.394C371.904 258.475 365.792 258.2 344.534 258.2C323.33 258.2 317.218 258.475 316.899 259.394ZM57.6615 268.399C57.5021 268.858 57.5021 269.685 57.6615 270.237C57.821 270.696 58.2993 271.155 58.7244 271.155C59.1496 271.155 59.5216 270.329 59.5216 269.318C59.5216 268.215 59.1496 267.48 58.7244 267.48C58.2993 267.48 57.821 267.848 57.6615 268.399ZM67.5995 268.95C67.7058 269.869 68.1309 270.696 68.5561 270.696C68.9812 270.696 69.3533 270.053 69.3533 269.318C69.3533 268.491 68.9281 267.756 68.3967 267.572C67.7589 267.388 67.5464 267.756 67.5995 268.95V268.95ZM77.3249 268.399C77.1655 268.858 77.1655 269.685 77.3249 270.237C77.4843 270.696 77.9626 271.155 78.3878 271.155C78.8129 271.155 79.1849 270.329 79.1849 269.318C79.1849 268.215 78.8129 267.48 78.3878 267.48C77.9626 267.48 77.4843 267.848 77.3249 268.399ZM67.7058 284.663C67.4932 284.938 67.3338 285.765 67.3869 286.409C67.4401 287.052 67.9715 287.695 68.5561 287.695C69.1407 287.695 69.619 287.052 69.5658 286.409C69.5658 285.673 69.247 284.846 68.8218 284.571C68.3967 284.295 67.8652 284.387 67.7058 284.663ZM87.3692 284.663C87.1566 284.938 86.9972 285.765 87.0503 286.409C87.1034 287.052 87.6349 287.695 88.2195 287.695C88.8041 287.695 89.2824 287.052 89.2292 286.409C89.2292 285.673 88.9103 284.846 88.4852 284.571C88.06 284.295 87.5286 284.387 87.3692 284.663ZM97.3071 285.122C96.8288 285.949 96.882 286.592 97.3603 287.419C97.8917 288.338 98.1574 288.338 98.6889 287.419C99.2735 286.5 99.2203 286.041 98.6357 285.122C98.0512 284.203 97.8386 284.203 97.3071 285.122ZM107.086 284.571C106.82 284.938 106.661 285.765 106.714 286.409C106.767 287.052 107.298 287.695 107.883 287.695C108.574 287.695 108.893 287.144 108.786 286.133C108.733 285.306 108.414 284.479 108.095 284.295C107.777 284.111 107.351 284.203 107.086 284.571V284.571ZM116.971 285.122C116.492 285.949 116.545 286.592 117.024 287.419C117.555 288.338 117.821 288.338 118.352 287.419C118.937 286.5 118.884 286.041 118.299 285.122C117.715 284.203 117.502 284.203 116.971 285.122ZM126.749 284.571C126.483 284.938 126.324 285.765 126.377 286.409C126.43 287.052 126.962 287.695 127.546 287.695C128.237 287.695 128.556 287.144 128.45 286.133C128.397 285.306 128.078 284.479 127.759 284.295C127.44 284.111 127.015 284.203 126.749 284.571V284.571ZM146.625 284.663C146.253 284.846 145.987 285.673 146.04 286.317C146.094 287.052 146.625 287.695 147.21 287.695C147.794 287.695 148.272 287.052 148.326 286.317C148.326 285.582 148.166 284.846 147.9 284.663C147.582 284.387 147.05 284.387 146.625 284.663ZM166.342 284.663C165.916 284.846 165.651 285.673 165.704 286.317C165.757 287.052 166.182 287.879 166.607 288.154C167.032 288.338 167.564 287.971 167.776 287.144C167.989 286.409 167.936 285.398 167.617 285.03C167.351 284.571 166.767 284.387 166.342 284.663ZM186.005 284.663C185.58 284.846 185.314 285.673 185.367 286.317C185.42 287.052 185.845 287.879 186.271 288.154C186.696 288.338 187.227 287.971 187.44 287.144C187.652 286.409 187.599 285.398 187.28 285.03C187.015 284.571 186.43 284.387 186.005 284.663ZM195.783 285.398C195.677 286.133 195.677 287.144 195.837 287.695C195.996 288.246 196.421 288.154 196.899 287.419C197.378 286.776 197.697 286.041 197.697 285.673C197.644 285.398 197.271 284.846 196.846 284.571C196.368 284.203 195.943 284.571 195.783 285.398ZM57.7147 296.424C57.4489 296.884 57.2364 302.121 57.2895 308.277L57.3958 319.396C62.9228 321.233 65.7394 322.795 67.2275 324.082C68.6624 325.368 71.0539 328.309 72.4356 330.698C74.03 333.27 75.7306 337.497 76.8466 341.448C77.8032 344.94 78.7598 349.81 78.9192 352.199L79.1849 356.609H93.0025C93.0025 350.545 92.6304 346.318 92.2053 343.286C91.727 340.254 90.3984 334.189 89.1761 329.962C87.5817 324.266 85.8811 320.223 83.1176 315.261C80.9919 311.402 77.7501 306.807 75.89 304.878C74.03 302.948 70.735 300.375 68.5561 299.181C66.3772 297.986 63.1354 296.792 61.3816 296.424C59.6279 296.057 57.9804 296.057 57.7147 296.424V296.424ZM77.3249 302.397C77.1655 302.856 77.1655 303.683 77.3249 304.234C77.4843 304.694 77.9626 305.153 78.3878 305.153C78.8129 305.153 79.1849 304.326 79.1849 303.316C79.1849 302.213 78.8129 301.478 78.3878 301.478C77.9626 301.478 77.4843 301.845 77.3249 302.397ZM96.9883 302.397C96.8288 302.856 96.8288 303.683 96.9883 304.234C97.1477 304.694 97.626 305.153 98.0512 305.153C98.4763 305.153 98.8483 304.326 98.8483 303.316C98.8483 302.213 98.4763 301.478 98.0512 301.478C97.626 301.478 97.1477 301.845 96.9883 302.397ZM116.971 303.224C116.917 304.51 117.183 305.061 117.821 304.878C118.352 304.694 118.777 304.051 118.777 303.316C118.777 302.489 118.352 301.754 117.874 301.57C117.307 301.386 117.006 301.937 116.971 303.224V303.224ZM136.634 303.224C136.581 304.51 136.846 305.061 137.484 304.878C138.016 304.694 138.441 304.051 138.441 303.316C138.441 302.489 138.016 301.754 137.537 301.57C136.97 301.386 136.669 301.937 136.634 303.224V303.224ZM156.297 303.224C156.244 304.51 156.51 305.061 157.148 304.878C157.679 304.694 158.104 304.051 158.104 303.316C158.104 302.489 157.679 301.754 157.201 301.57C156.634 301.386 156.333 301.937 156.297 303.224V303.224ZM166.023 302.58C165.863 303.224 165.916 304.051 166.129 304.51C166.395 304.97 166.873 305.061 167.245 304.786C167.617 304.418 167.936 303.591 167.936 302.856C167.936 302.029 167.564 301.478 167.139 301.478C166.714 301.478 166.235 301.937 166.023 302.58ZM175.961 303.224C175.908 304.51 176.173 305.061 176.811 304.878C177.342 304.694 177.768 304.051 177.768 303.316C177.768 302.489 177.342 301.754 176.864 301.57C176.297 301.386 175.996 301.937 175.961 303.224V303.224ZM185.739 302.397C185.58 302.856 185.58 303.683 185.739 304.234C185.899 304.694 186.377 305.153 186.802 305.153C187.227 305.153 187.599 304.326 187.599 303.316C187.599 302.213 187.227 301.478 186.802 301.478C186.377 301.478 185.899 301.845 185.739 302.397ZM195.624 303.224C195.571 304.51 195.837 305.061 196.474 304.878C197.006 304.694 197.431 304.051 197.431 303.316C197.431 302.489 197.006 301.754 196.527 301.57C195.961 301.386 195.659 301.937 195.624 303.224V303.224ZM87.3692 318.661C87.1566 318.936 86.9972 319.763 87.0503 320.406C87.1034 321.05 87.6349 321.693 88.2195 321.693C88.8041 321.693 89.2824 321.05 89.2292 320.406C89.2292 319.671 88.9103 318.844 88.4852 318.569C88.06 318.293 87.5286 318.385 87.3692 318.661ZM97.3071 319.12C96.8288 319.947 96.882 320.59 97.3603 321.417C97.8917 322.336 98.1574 322.336 98.6889 321.417C99.2735 320.498 99.2203 320.039 98.6357 319.12C98.0512 318.201 97.8386 318.201 97.3071 319.12ZM107.086 318.569C106.82 318.936 106.661 319.763 106.714 320.406C106.767 321.05 107.298 321.693 107.883 321.693C108.574 321.693 108.893 321.141 108.786 320.131C108.733 319.304 108.414 318.477 108.095 318.293C107.777 318.109 107.351 318.201 107.086 318.569V318.569ZM116.971 319.12C116.492 319.947 116.545 320.59 117.024 321.417C117.555 322.336 117.821 322.336 118.352 321.417C118.937 320.498 118.884 320.039 118.299 319.12C117.715 318.201 117.502 318.201 116.971 319.12ZM126.962 318.661C126.59 318.844 126.324 319.671 126.377 320.314C126.43 321.05 126.962 321.693 127.546 321.693C128.131 321.693 128.609 321.05 128.662 320.314C128.662 319.579 128.503 318.844 128.237 318.661C127.918 318.385 127.387 318.385 126.962 318.661V318.661ZM146.678 318.661C146.253 318.844 145.987 319.671 146.04 320.314C146.094 321.05 146.519 321.877 146.944 322.152C147.369 322.336 147.9 321.968 148.113 321.141C148.326 320.406 148.272 319.396 147.954 319.028C147.688 318.569 147.103 318.385 146.678 318.661ZM166.342 318.661C165.916 318.844 165.651 319.671 165.704 320.314C165.757 321.05 166.182 321.877 166.607 322.152C167.032 322.336 167.564 321.968 167.776 321.141C167.989 320.406 167.936 319.396 167.617 319.028C167.351 318.569 166.767 318.385 166.342 318.661ZM186.005 318.661C185.58 318.844 185.314 319.671 185.367 320.314C185.42 321.05 185.845 321.877 186.271 322.152C186.696 322.336 187.227 321.968 187.44 321.141C187.652 320.406 187.599 319.396 187.28 319.028C187.015 318.569 186.43 318.385 186.005 318.661ZM195.783 319.396C195.677 320.131 195.677 321.141 195.837 321.693C195.996 322.244 196.421 322.152 196.899 321.417C197.378 320.774 197.697 320.039 197.697 319.671C197.644 319.396 197.271 318.844 196.846 318.569C196.368 318.201 195.943 318.569 195.783 319.396ZM96.9883 336.395C96.8288 336.854 96.8288 337.681 96.9883 338.232C97.1477 338.692 97.626 339.151 98.0512 339.151C98.4763 339.151 98.8483 338.324 98.8483 337.313C98.8483 336.211 98.4763 335.476 98.0512 335.476C97.626 335.476 97.1477 335.843 96.9883 336.395ZM116.971 337.221C116.917 338.508 117.183 339.059 117.821 338.875C118.352 338.692 118.777 338.048 118.777 337.313C118.777 336.486 118.352 335.751 117.874 335.568C117.307 335.384 117.006 335.935 116.971 337.221V337.221ZM136.634 337.221C136.581 338.508 136.846 339.059 137.484 338.875C138.016 338.692 138.441 338.048 138.441 337.313C138.441 336.486 138.016 335.751 137.537 335.568C136.97 335.384 136.669 335.935 136.634 337.221V337.221ZM156.297 337.221C156.244 338.508 156.51 339.059 157.148 338.875C157.679 338.692 158.104 338.048 158.104 337.313C158.104 336.486 157.679 335.751 157.201 335.568C156.634 335.384 156.333 335.935 156.297 337.221V337.221ZM166.076 336.395C165.916 336.854 165.916 337.681 166.076 338.232C166.235 338.692 166.714 339.151 167.139 339.151C167.564 339.151 167.936 338.324 167.936 337.313C167.936 336.211 167.564 335.476 167.139 335.476C166.714 335.476 166.235 335.843 166.076 336.395ZM175.961 337.221C175.908 338.508 176.173 339.059 176.811 338.875C177.342 338.692 177.768 338.048 177.768 337.313C177.768 336.486 177.342 335.751 176.864 335.568C176.297 335.384 175.996 335.935 175.961 337.221V337.221ZM185.739 336.395C185.58 336.854 185.58 337.681 185.739 338.232C185.899 338.692 186.377 339.151 186.802 339.151C187.227 339.151 187.599 338.324 187.599 337.313C187.599 336.211 187.227 335.476 186.802 335.476C186.377 335.476 185.899 335.843 185.739 336.395ZM195.624 337.221C195.571 338.508 195.837 339.059 196.474 338.875C197.006 338.692 197.431 338.048 197.431 337.313C197.431 336.486 197.006 335.751 196.527 335.568C195.961 335.384 195.659 335.935 195.624 337.221V337.221ZM97.3071 353.118C96.8288 353.945 96.882 354.588 97.3603 355.415C97.8917 356.334 98.1574 356.334 98.6889 355.415C99.2735 354.496 99.2203 354.037 98.6357 353.118C98.0512 352.199 97.8386 352.199 97.3071 353.118ZM107.033 352.658C106.82 352.934 106.661 353.761 106.714 354.404C106.767 355.047 107.298 355.691 107.883 355.691C108.467 355.691 108.946 355.047 108.893 354.404C108.893 353.669 108.574 352.842 108.149 352.566C107.723 352.291 107.192 352.383 107.033 352.658ZM116.971 353.118C116.492 353.945 116.545 354.588 117.024 355.415C117.555 356.334 117.821 356.334 118.352 355.415C118.937 354.496 118.884 354.037 118.299 353.118C117.715 352.199 117.502 352.199 116.971 353.118ZM127.015 352.658C126.59 352.842 126.324 353.669 126.377 354.312C126.43 355.047 126.855 355.874 127.281 356.15C127.706 356.334 128.237 355.966 128.45 355.139C128.662 354.404 128.609 353.393 128.29 353.026C128.025 352.566 127.44 352.383 127.015 352.658V352.658ZM146.678 352.658C146.253 352.842 145.987 353.669 146.04 354.312C146.094 355.047 146.519 355.874 146.944 356.15C147.369 356.334 147.9 355.966 148.113 355.139C148.326 354.404 148.272 353.393 147.954 353.026C147.688 352.566 147.103 352.383 146.678 352.658ZM166.342 352.658C165.916 352.842 165.651 353.669 165.704 354.312C165.757 355.047 166.182 355.874 166.607 356.15C167.032 356.334 167.564 355.966 167.776 355.139C167.989 354.404 167.936 353.393 167.617 353.026C167.351 352.566 166.767 352.383 166.342 352.658ZM186.005 352.658C185.58 352.842 185.314 353.669 185.367 354.312C185.42 355.047 185.845 355.874 186.271 356.15C186.696 356.334 187.227 355.966 187.44 355.139C187.652 354.404 187.599 353.393 187.28 353.026C187.015 352.566 186.43 352.383 186.005 352.658ZM195.783 353.393C195.677 354.129 195.677 355.139 195.837 355.691C195.996 356.15 196.474 356.334 196.899 356.15C197.325 355.874 197.697 355.047 197.644 354.404C197.644 353.669 197.271 352.842 196.846 352.566C196.368 352.199 195.943 352.566 195.783 353.393Z" fill="#F3F6E7"/>
<path d="M57.6615 356.058L57.5021 337.957V337.865C57.3958 322.152 57.5021 319.763 58.193 319.763C58.6181 319.763 60.2656 320.223 61.7536 320.774C63.2948 321.325 65.7395 322.795 67.2275 324.082C68.6624 325.276 71.1602 328.492 72.6482 331.065C74.402 334.097 76.0494 338.048 77.006 341.816C77.8564 345.124 78.7067 349.718 79.185 356.518L57.6615 356.058Z" fill="#F6E258"/>
<path d="M260.407 112.101C260.407 75.8978 260.301 65.4228 259.769 64.5039C259.185 63.5851 264.712 63.4013 288.308 63.4013C311.638 63.4013 317.378 63.677 316.846 64.5958C316.368 65.4228 316.208 76.9085 316.208 112.101C316.208 148.304 316.315 158.779 316.846 159.698C317.378 160.525 320.194 160.8 327.741 160.8C335.606 160.8 337.998 161.076 337.998 161.995C337.998 162.546 336.297 168.243 334.277 174.583C332.258 180.923 330.185 188.366 329.707 191.123C328.963 195.441 328.538 196.36 326.89 197.739C325.668 198.657 324.658 200.495 324.021 202.517C323.542 204.354 323.117 206.743 323.117 207.938C323.117 209.041 323.595 211.338 324.18 212.992C324.765 214.554 325.987 216.575 326.837 217.31C327.688 218.045 329.176 218.689 331.62 218.689L330.717 221.261C330.238 222.64 329.441 225.213 328.91 226.958C328.432 228.704 327.9 232.288 327.741 234.769C327.493 237.832 327.599 239.761 328.06 240.557C328.538 241.476 332.417 241.752 345.544 241.66C358.511 241.66 362.55 241.384 362.816 240.557C363.028 239.914 363.135 237.709 363.028 235.688C362.922 233.666 362.497 230.358 362.072 228.337C361.647 226.315 360.743 223.283 358.724 218.689H360.318C361.168 218.689 362.55 218.137 363.347 217.402C364.198 216.759 365.261 215.105 365.739 213.727C366.323 212.348 366.695 209.592 366.695 207.203C366.695 203.711 366.43 202.609 364.835 199.852C363.826 198.106 362.497 196.636 361.912 196.636C361.062 196.636 360.637 195.441 359.787 190.939C359.202 187.723 357.023 179.913 355.004 173.481C352.931 166.957 351.284 161.536 351.284 161.26C351.284 160.984 355.907 160.8 361.54 160.8C369.034 160.8 371.957 160.525 372.435 159.698C372.966 158.779 373.073 169.438 373.073 209.5C373.073 250.665 372.966 260.313 372.435 259.302C371.904 258.383 365.792 258.2 344.481 258.2C323.277 258.2 317.165 258.475 316.846 259.394C316.634 259.945 316.421 280.804 316.315 305.521C316.208 334.649 316.368 351.464 317.271 355.599H288.201C264.977 355.599 259.238 355.323 259.769 354.496C260.247 353.577 260.407 345.675 260.407 323.714C260.407 304.51 260.619 294.035 260.938 294.035C261.257 294.035 263.117 297.527 265.19 301.845C267.847 307.45 268.751 310.023 268.379 310.85C268.113 311.402 267.635 313.239 267.369 314.709C267.05 316.455 267.05 318.752 267.369 320.958C267.635 322.887 268.538 325.368 269.441 326.655C270.611 328.309 271.673 328.952 273.268 328.952C274.543 328.952 276.084 328.309 276.722 327.573C277.413 326.838 277.998 326.287 278.104 326.471C278.21 326.563 278.529 329.136 278.901 332.168C279.273 335.292 280.336 339.886 281.346 342.735C282.355 345.491 283.578 348.156 284.003 348.707C284.694 349.442 287.192 345.583 297.076 328.492C303.826 316.915 309.3 306.807 309.3 306.256C309.3 305.613 308.502 303.867 307.546 302.489C306.642 301.11 304.464 298.997 302.763 297.894C301.115 296.792 298.883 295.873 297.874 295.873C296.864 295.873 296.014 295.781 296.014 295.689C296.014 295.505 296.332 294.127 296.811 292.657C297.236 291.187 297.608 288.889 297.608 287.603C297.608 286.317 297.076 283.836 296.386 282.09C295.748 280.344 294.579 278.323 293.888 277.771C293.144 277.128 291.815 276.577 290.965 276.577C290.115 276.577 288.573 277.404 285.916 280.252L278.954 270.42C275.128 264.907 271.886 260.221 271.78 259.854C271.673 259.394 281.239 259.118 293.091 259.118C306.377 259.118 315.039 258.751 315.677 258.2C316.74 257.281 316.74 256.362 316.74 210.143C316.74 173.389 316.634 162.822 316.102 161.903C315.571 160.984 309.565 160.8 288.68 160.8C274.012 160.8 261.629 160.984 261.204 161.26C260.513 161.627 260.407 167.049 260.407 202.149C260.407 230.358 260.247 242.487 259.822 242.395C259.503 242.211 256.899 238.812 254.03 234.769C248.875 227.51 248.768 227.326 249.034 224.018C249.193 221.078 248.981 220.067 247.652 217.77C246.377 215.564 245.686 215.013 244.092 215.289C242.154 215.47 242.126 215.383 239.585 207.737L239.468 207.387C237.767 202.425 236.492 199.393 236.014 199.576C235.589 199.76 234.898 201.69 234.472 203.987C234.047 206.284 233.622 208.214 233.516 208.397C233.41 208.489 231.55 207.295 229.424 205.825C227.351 204.262 225.279 203.068 224.907 203.068C224.588 203.068 224.269 203.711 224.269 204.446C224.269 205.181 225.119 208.949 227.989 219.607L225.704 220.526C224.481 221.078 223.153 221.721 222.781 221.905C222.462 222.18 222.143 223.007 222.143 223.742C222.143 224.569 224.216 227.142 226.926 229.715C231.443 234.034 231.709 234.493 231.39 236.882C231.231 238.26 231.337 240.374 231.656 241.66C231.975 242.947 232.772 244.509 233.41 245.244C234.154 245.979 235.323 246.254 236.333 245.887C237.927 245.427 238.246 245.703 240.106 249.746C241.222 252.135 242.444 254.8 242.869 255.719C243.613 257.281 243.294 257.373 226.926 257.281V250.665C226.926 246.989 226.713 242.487 226.395 240.741C226.129 238.995 225.119 235.871 224.163 233.942C223.206 231.92 221.452 229.531 220.283 228.612C218.582 227.326 216.722 226.958 204.074 226.958V201.23C204.074 177.34 204.127 175.502 204.977 175.502C205.509 175.502 210.345 180.556 215.713 186.804C225.225 197.647 225.597 198.014 228.733 198.29C230.806 198.566 232.772 198.106 234.207 197.187C235.589 196.268 237.236 194.155 238.352 191.858C239.415 189.653 240.478 186.437 240.744 184.691C241.062 182.945 241.275 180.28 241.275 178.718C241.275 177.156 240.956 174.308 240.584 172.286C240.265 170.265 239.096 167.049 238.086 165.211C237.077 163.281 236.333 161.536 236.439 161.26C236.545 160.984 241.7 160.8 247.918 160.8C256.209 160.8 259.291 160.525 259.769 159.698C260.247 158.779 260.407 147.293 260.407 112.101Z" fill="#4053FA"/>
<path d="M350.646 70.6603C350.061 66.3417 350.061 65.239 350.699 63.9526C351.284 62.6662 352.825 62.4825 361.328 62.4825C368.449 62.4825 371.478 62.7581 372.169 63.5851C373.02 64.6877 373.073 66.4335 372.807 101.534L369.884 101.35C367.865 101.166 365.792 100.156 363.241 97.9504C360.903 96.0208 358.458 93.0805 356.704 89.9564C355.163 87.1998 353.303 82.973 352.559 80.4002C351.868 77.9193 350.965 73.5088 350.646 70.6603Z" fill="#EEBDD2"/>
<path d="M230.115 299.916C232.028 298.262 234.419 295.597 235.429 294.127C236.439 292.565 237.714 291.37 238.246 291.279C238.724 291.279 239.149 291.922 239.149 292.657C239.149 293.392 238.139 295.413 236.917 297.159C235.642 298.813 233.569 301.294 232.24 302.58C230.912 303.867 228.042 305.98 225.863 307.267C223.684 308.553 219.964 309.839 217.626 310.115C214.969 310.575 212.843 310.391 211.939 309.748C211.089 309.196 210.504 308.186 210.611 307.542C210.77 306.807 212.205 306.348 215.287 306.256C217.732 306.164 221.293 305.429 223.206 304.602C225.119 303.775 228.201 301.662 230.115 299.916Z" fill="#383A48"/>
<path d="M234.366 213.175C234.632 213.175 235.27 211.613 235.748 209.776L236.598 206.284L240.69 219.148L233.569 231.645L226.129 224.753L228.361 223.559C229.636 222.915 230.646 222.088 230.646 221.629C230.646 221.261 230.062 218.597 229.318 215.656C228.573 212.808 228.042 210.235 228.095 209.959C228.201 209.684 229.53 210.327 231.018 211.338C232.559 212.348 234.047 213.175 234.366 213.175Z" fill="#AAC5FB"/>
<path d="M233.356 238.628C233.41 237.985 235.907 233.207 238.883 228.061C243.135 220.802 244.57 218.872 245.261 219.424C245.792 219.791 246.377 220.802 246.643 221.721C246.961 222.823 246.802 224.11 246.111 225.856C245.527 227.234 243.188 231.553 240.903 235.504C238.618 239.363 236.333 242.579 235.801 242.579C235.323 242.579 234.526 242.028 234.1 241.201C233.675 240.466 233.303 239.363 233.356 238.628Z" fill="#AAC5FB"/>
<path d="M239.734 243.038L243.294 236.882C245.208 233.482 247.015 230.634 247.227 230.634C247.44 230.634 255.89 242.579 284.375 283.468L277.573 295.23C271.089 306.348 270.717 306.807 269.867 305.337C269.335 304.418 262.373 290.084 239.734 243.038Z" fill="#AAC5FB"/>
<path d="M295.748 308.553C297.183 307.267 299.681 305.521 301.275 304.786C303.082 303.959 304.464 303.775 305.101 304.326C305.633 304.786 306.217 305.429 306.324 305.797C306.483 306.164 301.7 314.985 284.8 344.113L283.737 341.816C282.94 340.162 282.727 338.784 282.993 336.762C283.153 335.292 284.056 331.341 284.96 328.033C286.022 324.266 287.776 320.131 289.849 316.547C291.656 313.515 294.26 309.931 295.748 308.553Z" fill="#AAC5FB"/>
<path d="M337.998 137.186C338.582 135.44 340.07 133.327 341.346 132.316C342.94 130.937 344.162 130.57 345.703 130.937C346.873 131.213 348.414 132.224 349.158 133.143C349.902 134.062 351.071 136.175 351.709 137.921C352.718 140.402 352.931 141.964 352.772 145.639C352.665 148.304 352.081 151.428 351.496 152.99C350.858 154.552 349.424 156.482 348.308 157.493C346.819 158.687 345.597 159.055 343.843 158.687C342.515 158.411 340.867 157.401 340.123 156.482C339.379 155.471 338.263 152.898 337.572 150.601C336.669 147.661 336.456 145.639 336.669 143.342C336.828 141.596 337.466 138.748 337.998 137.186Z" fill="#F3F6E7"/>
<path d="M333.108 186.988C333.799 184.507 335.819 177.891 337.519 172.286L340.602 162.179H348.998L352.134 172.194C353.835 177.707 355.907 184.691 356.704 187.815C357.501 190.939 358.192 194.155 358.192 195.074C358.192 196.544 357.183 196.636 331.089 196.636L331.408 194.155C331.62 192.685 332.364 189.561 333.108 186.988Z" fill="#F3F6E7"/>
<path d="M185.739 202.149C185.633 201.598 185.633 200.863 185.792 200.311C185.952 199.76 186.43 199.393 186.855 199.393C187.28 199.393 187.599 200.22 187.599 201.23C187.599 202.241 187.28 203.068 186.802 203.068C186.377 203.068 185.899 202.7 185.739 202.149Z" fill="#F3F6E7"/>
<path d="M196.528 202.792C195.89 202.976 195.624 202.517 195.624 201.138C195.659 199.913 195.978 199.393 196.581 199.576C197.059 199.76 197.431 200.495 197.431 201.23C197.431 201.965 197.006 202.7 196.528 202.792Z" fill="#F3F6E7"/>
<path d="M185.367 218.321C185.314 217.586 185.58 216.851 186.005 216.575C186.377 216.391 186.962 216.391 187.227 216.575C187.493 216.759 187.706 217.586 187.652 218.321C187.652 219.056 187.121 219.607 186.536 219.607C185.952 219.607 185.42 219.056 185.367 218.321Z" fill="#F3F6E7"/>
<path d="M195.837 219.607C195.73 219.056 195.677 218.045 195.837 217.31C195.943 216.575 196.421 216.208 196.846 216.483C197.325 216.759 197.697 217.31 197.697 217.678C197.75 217.954 197.378 218.78 196.953 219.424C196.421 220.067 195.996 220.159 195.837 219.607Z" fill="#F3F6E7"/>
<path d="M335.872 226.591C337.2 225.672 339.698 224.661 341.452 224.294C343.206 223.926 345.757 223.834 347.032 224.018C348.361 224.202 351.018 225.121 352.878 226.039C354.791 226.958 357.342 229.072 358.618 230.542C359.946 232.288 360.85 234.125 360.85 235.228C360.85 237.066 360.531 237.066 330.026 237.066V235.044C330.079 233.85 330.238 232.471 330.451 232.012C330.664 231.461 331.461 230.358 332.152 229.623C332.896 228.796 334.596 227.418 335.872 226.591Z" fill="#F3F6E7"/>
<path d="M182.657 81.411C183.241 79.9408 184.517 78.195 185.527 77.5518C186.536 76.8167 188.503 76.3572 189.991 76.541C191.745 76.7248 193.233 77.5518 194.455 79.0219C195.465 80.3083 196.74 82.973 197.272 84.9945C197.803 87.016 198.228 89.8645 198.175 91.4265C198.175 92.9886 197.059 98.6855 193.179 114.03L183.348 130.019C174.26 144.904 173.25 146.282 169.796 148.488C167.723 149.774 165.81 150.693 165.438 150.509C165.066 150.325 168.148 137.278 173.25 117.155C177.821 98.9612 182.072 82.8811 182.657 81.411Z" fill="#F6E258"/>
<path d="M154.012 92.8048C154.544 91.5184 156.032 89.5888 157.36 88.3943C159.167 86.7404 160.177 86.3728 161.824 86.8322C162.993 87.1079 164.641 88.1186 165.544 89.0375C166.395 89.8645 167.67 92.0697 168.361 93.8156C169.477 96.664 169.583 97.9504 169.53 122.208L165.757 137.186C163.684 145.364 161.718 152.531 161.346 153.082C161.027 153.633 158.901 155.195 156.616 156.482C154.384 157.86 152.418 158.963 152.258 158.963C152.099 158.963 151.993 146.282 151.993 130.754C151.993 115.133 152.258 100.799 152.524 98.7774C152.79 96.7559 153.481 94.0912 154.012 92.8048Z" fill="#F6E258"/>
<path d="M194.774 116.695C202.852 103.28 210.132 91.6103 210.93 90.7833C211.833 89.6807 213.374 89.1294 215.234 89.1294C217.413 89.1294 218.636 89.6807 220.017 91.2428C221.027 92.4373 222.302 94.9182 222.781 96.7559C223.312 98.6855 223.737 101.81 223.737 103.831C223.737 105.853 223.365 108.885 222.94 110.539C222.515 112.101 219.752 117.338 211.514 130.478L208.963 128.457C206.837 126.803 206.147 126.619 204.074 127.446C202.745 127.997 197.006 131.397 191.319 134.98C185.633 138.564 180.744 141.412 180.478 141.321C180.212 141.137 186.643 130.111 194.774 116.695Z" fill="#F6E258"/>
<path d="M172.985 155.655C188.768 143.158 202.533 132.408 203.543 131.764C204.552 131.121 205.562 130.57 205.775 130.478C206.04 130.478 206.784 130.846 207.528 131.397C208.272 131.948 215.075 140.218 222.674 149.774C231.178 160.525 236.917 168.427 237.555 170.265C238.139 171.827 238.777 174.675 238.937 176.421C239.149 178.167 238.99 181.199 238.671 183.129C238.352 184.966 237.449 187.815 236.598 189.469C235.801 191.031 234.366 192.869 233.41 193.604C232.506 194.247 230.752 194.798 229.583 194.798C228.414 194.798 226.66 194.155 225.704 193.236C224.8 192.409 219.964 186.988 205.934 170.724L195.677 178.351C190.044 182.577 184.623 187.172 183.72 188.458C182.763 189.745 181.328 193.052 180.425 195.809C179.149 199.852 178.884 201.873 178.884 206.743C178.884 211.613 179.149 213.635 180.425 217.678C181.328 220.434 182.869 223.834 183.879 225.304C184.889 226.775 186.908 228.52 188.396 229.255C190.416 230.358 194.136 230.634 204.18 230.634C214.171 230.634 217.785 230.909 219.061 231.92C220.017 232.563 221.346 234.125 221.984 235.32C222.621 236.514 223.525 239.179 224.003 241.201C224.588 243.59 224.8 246.163 224.588 248.552C224.428 250.573 223.737 253.697 223.1 255.443C222.409 257.189 220.814 259.578 217.094 262.794H173.622C137.006 262.794 129.619 262.61 126.59 261.416C124.623 260.68 121.594 258.567 119.84 256.729C118.087 254.984 115.854 252.135 114.898 250.573C113.941 248.919 112.453 245.795 111.603 243.498C110.753 241.201 109.53 236.882 108.946 233.85C108.202 230.082 107.83 225.948 107.83 220.986C107.777 216.943 108.042 211.797 108.414 209.5C108.733 207.203 109.796 202.976 110.699 199.944C111.656 197.004 113.569 192.593 115.057 190.296C116.492 187.907 118.777 184.875 120.106 183.496C121.435 182.21 123.932 180.464 125.686 179.637C127.865 178.718 131.266 178.259 144.287 178.259L172.985 155.655Z" fill="#F6E258"/>
<path d="M269.548 318.201C269.654 315.077 270.557 313.239 279.539 297.527C287.51 283.56 289.689 280.252 290.859 280.252C291.762 280.252 292.878 281.263 293.888 283.009C294.738 284.479 295.482 286.409 295.482 287.144C295.482 287.879 295.163 289.625 294.738 291.003C294.313 292.473 289.849 300.651 284.747 309.38C277.094 322.612 275.287 325.184 273.959 325.276C273.108 325.276 271.727 324.541 270.929 323.439C269.707 321.968 269.441 320.958 269.548 318.201Z" fill="#E06E9C"/>
<path d="M96.4569 180.556C96.2974 179.637 96.6163 179.086 97.4135 178.81H97.3603C98.0512 178.626 103.366 178.443 109.211 178.443C115.057 178.443 119.468 178.626 119.043 178.994C118.618 179.27 116.067 183.221 113.463 187.631C110.487 192.777 108.414 197.095 107.989 199.209C107.564 201.046 106.926 204.538 106.501 207.019C106.023 209.684 105.438 211.338 104.96 211.338C104.535 211.338 104.163 211.981 104.163 212.716C104.163 213.451 104.375 214.094 104.694 214.094C104.96 214.094 105.226 215.105 105.226 216.391C105.226 217.678 104.907 218.872 104.535 219.056C104.003 219.332 104.003 219.791 104.535 221.353C104.907 222.364 105.226 224.11 105.226 225.121C105.226 226.131 104.96 226.958 104.694 226.958C104.375 226.958 104.163 227.602 104.163 228.337C104.163 229.072 104.535 229.715 104.96 229.715C105.491 229.715 106.235 232.288 107.192 237.341C108.574 244.509 108.946 245.336 113.569 253.421C116.652 258.659 118.246 262.059 117.821 262.426C117.502 262.702 116.599 262.794 115.855 262.61C114.845 262.426 114.579 261.875 114.632 260.313C114.738 258.935 114.526 258.291 114.101 258.567C113.782 258.751 113.516 259.762 113.569 260.864C113.729 262.518 113.463 262.794 111.869 262.794C110.274 262.794 110.009 262.518 110.115 260.772C110.221 259.394 110.009 258.659 109.477 258.659C108.946 258.659 108.733 259.394 108.786 260.772C108.946 262.518 108.68 262.794 107.086 262.794C105.598 262.794 105.279 262.426 105.332 261.232C105.438 260.313 105.226 259.578 104.96 259.578C104.641 259.578 104.428 260.221 104.428 260.956C104.428 261.875 103.844 262.426 102.675 262.61C101.187 262.794 100.974 262.518 100.974 260.497C100.974 259.118 100.708 258.291 100.283 258.567C99.9644 258.751 99.6987 259.67 99.7518 260.589C99.8049 261.967 99.5392 262.334 98.2638 262.151C97.3072 261.967 96.7226 261.324 96.7226 260.497C96.7226 259.762 96.4569 258.935 96.1911 258.659C95.8723 258.383 95.2345 258.659 94.7031 259.21C94.0122 260.037 93.2151 259.762 90.983 257.832C89.495 256.546 88.0601 254.892 87.8475 254.34C87.6349 253.697 87.4223 252.778 87.4223 252.227C87.4223 251.768 86.944 251.216 86.3594 251.032C85.7749 250.849 84.7651 249.746 84.0742 248.735C83.4365 247.633 82.9051 245.979 82.9051 245.152C82.9051 244.233 82.5331 243.222 82.0548 242.855C81.5765 242.395 80.673 240.466 80.0884 238.444C79.5038 236.423 78.7598 232.288 78.3878 229.255C78.0689 226.223 77.8564 221.078 77.9095 217.77C78.0158 214.37 78.6004 209.408 79.2381 206.284C79.929 203.252 80.9919 199.852 81.6827 198.749C82.3736 197.555 82.7988 196.36 82.6393 195.993C82.5331 195.533 83.1176 194.063 83.968 192.501C84.8183 191.031 85.9343 189.745 86.4657 189.745C86.9972 189.745 87.3692 189.193 87.316 188.366C87.2098 187.631 87.9538 186.069 88.9104 184.966C89.8138 183.864 91.5144 182.302 92.5773 181.475C93.8528 180.648 94.7031 180.464 94.8625 181.015C95.022 181.567 95.5003 181.934 95.9254 181.934C96.4037 181.934 96.6163 181.383 96.4569 180.556Z" fill="#EEBDD2"/>
<path d="M325.934 205.181C326.306 203.895 326.997 202.241 327.422 201.598C328.06 200.679 332.045 200.311 344.959 200.311C361.009 200.22 361.753 200.311 363.135 202.149C364.198 203.436 364.623 204.814 364.623 207.019C364.676 208.581 364.198 210.97 362.603 214.554L345.65 214.829C331.355 215.013 328.591 214.829 327.528 213.635C326.89 212.9 326.093 211.246 325.828 209.959C325.456 208.305 325.509 206.927 325.934 205.181Z" fill="#EEBDD2"/>
</svg>
