<svg width="18" height="12" viewBox="0 0 18 12" fill="none" xmlns="http://www.w3.org/2000/svg">
<path d="M4.77332 10.1401L5.02912 10.2886C5.02912 10.2886 5.25889 10.1355 5.4067 10.1401C5.55452 10.1447 5.89151 10.1508 5.80573 10.4234C5.71995 10.6961 5.65255 10.9519 5.41742 11.0829C5.1823 11.2138 4.34518 11.0829 4.34518 11.0829C4.34518 11.0829 4.47462 10.199 4.77332 10.1401Z" fill="#FFC9B0"/>
<path d="M5.02608 11.2169C4.79523 11.2132 4.5649 11.1935 4.33678 11.1579C4.31696 11.1547 4.29918 11.1438 4.28729 11.1277C4.2754 11.1115 4.27035 11.0913 4.27322 11.0714C4.29543 10.9182 4.42639 10.1309 4.76032 10.065C4.77846 10.0611 4.79742 10.0644 4.81316 10.0742L5.02915 10.199C5.10573 10.1508 5.27576 10.0566 5.41209 10.0635H5.42281C5.55071 10.0681 5.76516 10.0757 5.85783 10.2067C5.8808 10.2416 5.89495 10.2816 5.89909 10.3232C5.90322 10.3649 5.89721 10.4069 5.88158 10.4456L5.86319 10.5046C5.78125 10.7666 5.70389 11.0132 5.45728 11.1487C5.36154 11.2008 5.19917 11.2169 5.02608 11.2169ZM4.43482 11.0178C4.75419 11.0622 5.2367 11.0944 5.38069 11.0178C5.57292 10.9113 5.63802 10.7038 5.71385 10.4625L5.73223 10.4028C5.75444 10.3331 5.73223 10.307 5.73223 10.2986C5.68321 10.2289 5.50246 10.222 5.41668 10.222H5.40596C5.31482 10.2166 5.15398 10.3032 5.07433 10.3576C5.06216 10.3652 5.04809 10.3692 5.03374 10.3692C5.01939 10.3692 5.00532 10.3652 4.99315 10.3576L4.76338 10.2266C4.6171 10.2909 4.49073 10.6976 4.43788 11.0178H4.43482Z" fill="#093F68"/>
<path d="M4.77332 10.14C4.57621 10.4264 4.43199 10.7457 4.34749 11.0829C3.90664 10.9373 3.50464 10.6935 3.17185 10.3698C3.03743 10.2486 2.92903 10.1014 2.85324 9.93709C2.6947 9.55415 2.95051 8.4888 3.48663 8.88936C3.7164 9.05862 3.83051 9.41705 4.02888 9.62614C4.23791 9.84814 4.49163 10.0233 4.77332 10.14Z" fill="#68E1FD"/>
<path d="M4.34748 11.1594C4.33935 11.1605 4.33111 11.1605 4.32298 11.1594C3.87098 11.0086 3.45907 10.7572 3.11824 10.4242C2.97568 10.296 2.86143 10.1395 2.78278 9.96466C2.65641 9.65831 2.76287 9.01726 3.04088 8.80128C3.12436 8.73618 3.29975 8.6527 3.53258 8.82656C3.6735 8.93148 3.7723 9.09691 3.86727 9.25698C3.92838 9.36935 4.00129 9.47487 4.08479 9.57176C4.28605 9.78608 4.5307 9.95501 4.80242 10.0673C4.81302 10.0716 4.82251 10.0783 4.8302 10.0868C4.83788 10.0952 4.84357 10.1053 4.84684 10.1163C4.85025 10.1273 4.85112 10.139 4.8494 10.1504C4.84768 10.1618 4.8434 10.1727 4.83689 10.1822C4.64434 10.4611 4.50372 10.7724 4.42177 11.1012C4.41917 11.1114 4.41449 11.121 4.40803 11.1293C4.40158 11.1376 4.39348 11.1445 4.38425 11.1495C4.37303 11.1559 4.36038 11.1593 4.34748 11.1594ZM3.25993 8.87711C3.21412 8.87756 3.16993 8.89409 3.13509 8.92382C2.91834 9.09232 2.82261 9.6629 2.9237 9.90722C2.99496 10.0627 3.09772 10.2017 3.22546 10.3154C3.53117 10.612 3.89676 10.8397 4.2977 10.9833C4.3779 10.6967 4.5008 10.4238 4.66226 10.1737C4.4045 10.0537 4.17189 9.88583 3.97679 9.67899C3.88553 9.57388 3.80568 9.45938 3.7386 9.3374C3.65129 9.18959 3.56015 9.03717 3.44374 8.95063C3.39229 8.90645 3.32765 8.8806 3.25993 8.87711Z" fill="#093F68"/>
<path d="M5.4764 10.2963C5.48098 10.4792 5.42735 10.6589 5.32322 10.8094C5.30101 10.8424 5.26808 10.8768 5.22825 10.8722C5.18843 10.8676 5.16239 10.8202 5.15167 10.778C5.13983 10.6776 5.14922 10.5759 5.17924 10.4793C5.12399 10.6058 5.02945 10.7111 4.90965 10.7796C4.89291 10.7907 4.87371 10.7975 4.85373 10.7995C4.84382 10.8004 4.83385 10.7984 4.82511 10.7936C4.81637 10.7888 4.80927 10.7815 4.80472 10.7727" fill="#FFC9B0"/>
<path d="M5.23516 10.9496H5.21831C5.18158 10.9425 5.1481 10.9238 5.12285 10.8962C5.0976 10.8686 5.08193 10.8336 5.07815 10.7964C5.07815 10.7849 5.07432 10.7734 5.07279 10.762C5.03498 10.7959 4.99364 10.8257 4.94948 10.8508C4.92219 10.8679 4.89119 10.8781 4.85911 10.8807C4.83305 10.8823 4.80713 10.8758 4.78491 10.8621C4.76269 10.8484 4.74527 10.8281 4.73503 10.8041C4.72819 10.7875 4.72736 10.7691 4.73268 10.7521C4.73799 10.735 4.74912 10.7203 4.76413 10.7105C4.77915 10.7008 4.7971 10.6966 4.81486 10.6988C4.83263 10.7009 4.8491 10.7091 4.8614 10.7221L4.87366 10.7152C4.97877 10.6551 5.06174 10.5627 5.11032 10.4518C5.11781 10.4341 5.13164 10.4199 5.14908 10.412C5.16652 10.4041 5.1863 10.403 5.20452 10.4089C5.22273 10.4149 5.23802 10.4275 5.24738 10.4442C5.25674 10.461 5.25948 10.4806 5.25507 10.4993C5.22829 10.5854 5.21917 10.676 5.22826 10.7658C5.23002 10.7754 5.23312 10.7846 5.23745 10.7934C5.24596 10.7862 5.25321 10.7776 5.2589 10.7681C5.35413 10.6309 5.40346 10.4671 5.39982 10.3001C5.39982 10.2798 5.40789 10.2603 5.42225 10.246C5.43662 10.2316 5.4561 10.2235 5.47641 10.2235C5.49672 10.2235 5.5162 10.2316 5.53057 10.246C5.54493 10.2603 5.553 10.2798 5.553 10.3001C5.55716 10.4998 5.49819 10.6958 5.3845 10.86C5.36881 10.886 5.34699 10.9077 5.32096 10.9233C5.29493 10.939 5.26547 10.948 5.23516 10.9496Z" fill="#093F68"/>
<path d="M12.6643 10.4242L12.4085 10.5728C12.4085 10.5728 12.1787 10.4196 12.0309 10.4242C11.8831 10.4288 11.5461 10.4349 11.6318 10.7076C11.7176 10.9802 11.785 11.236 12.0202 11.3662C12.2553 11.4964 13.0924 11.3662 13.0924 11.3662C13.0924 11.3662 12.963 10.4824 12.6643 10.4242Z" fill="#FFC9B0"/>
<path d="M12.4115 11.5003C12.2656 11.5095 12.1194 11.4865 11.9834 11.4329C11.736 11.2973 11.6594 11.0499 11.5775 10.7888L11.5606 10.7306C11.545 10.6918 11.539 10.6499 11.543 10.6083C11.547 10.5667 11.5609 10.5267 11.5836 10.4916C11.677 10.3599 11.8899 10.3522 12.0194 10.3476H12.0293C12.1649 10.3415 12.3357 10.4349 12.4123 10.4832L12.6275 10.3576C12.6437 10.3483 12.6628 10.3453 12.6811 10.3491C13.0166 10.415 13.146 11.1993 13.1682 11.3555C13.1711 11.3754 13.166 11.3956 13.1541 11.4118C13.1422 11.428 13.1245 11.4388 13.1046 11.4421C12.8752 11.4776 12.6436 11.497 12.4115 11.5003ZM12.0393 10.5008H12.0201C11.9336 10.5008 11.7536 10.5107 11.7046 10.5774C11.6985 10.5866 11.6801 10.6126 11.7046 10.6815L11.723 10.7413C11.7996 10.9825 11.8631 11.1908 12.0561 11.2973C12.2001 11.3739 12.6826 11.344 13.002 11.2973C12.9461 10.9772 12.8197 10.5705 12.6727 10.5023L12.4429 10.634C12.4307 10.6417 12.4167 10.6457 12.4023 10.6457C12.388 10.6457 12.3739 10.6417 12.3617 10.634C12.2659 10.5654 12.1556 10.5198 12.0393 10.5008Z" fill="#093F68"/>
<path d="M12.6642 10.4242C12.8611 10.7104 13.0053 11.0294 13.0901 11.3662C13.5309 11.2211 13.9329 10.9775 14.2657 10.654C14.4003 10.5327 14.5087 10.3852 14.5843 10.2205C14.7429 9.83753 14.4871 8.77295 13.9509 9.17351C13.7212 9.34277 13.6063 9.70044 13.4079 9.91029C13.1994 10.1325 12.9458 10.3077 12.6642 10.4242Z" fill="#68E1FD"/>
<path d="M13.0924 11.4421C13.0795 11.4421 13.0669 11.439 13.0556 11.4329C13.0464 11.4278 13.0383 11.421 13.0318 11.4127C13.0254 11.4044 13.0207 11.3948 13.0181 11.3846C12.9361 11.0558 12.7955 10.7444 12.603 10.4656C12.5965 10.456 12.5922 10.4452 12.5905 10.4338C12.5887 10.4224 12.5896 10.4107 12.593 10.3997C12.5963 10.3887 12.602 10.3786 12.6097 10.3701C12.6174 10.3617 12.6268 10.355 12.6374 10.3507C12.909 10.2381 13.1536 10.0692 13.3551 9.85515C13.4383 9.75808 13.5112 9.65258 13.5726 9.54037C13.6676 9.3803 13.7664 9.21487 13.9073 9.10918C14.137 8.93609 14.3155 9.0188 14.399 9.08467C14.677 9.30065 14.7819 9.94323 14.6571 10.2481C14.577 10.422 14.4629 10.5783 14.3216 10.7076C13.9802 11.0391 13.568 11.2889 13.1161 11.4382C13.1084 11.4407 13.1004 11.442 13.0924 11.4421ZM12.7807 10.4571C12.9413 10.7073 13.0634 10.9802 13.1429 11.2667C13.5439 11.123 13.9095 10.8953 14.2152 10.5988C14.3427 10.4849 14.4454 10.3459 14.5169 10.1906C14.618 9.94553 14.5223 9.37571 14.3055 9.20645C14.2167 9.13752 14.1164 9.14671 13.9992 9.23402C13.882 9.32133 13.7916 9.47298 13.7036 9.61696C13.637 9.73908 13.5574 9.85361 13.4661 9.95855C13.2705 10.1668 13.0371 10.336 12.7784 10.4571H12.7807Z" fill="#093F68"/>
<path d="M11.9604 10.5774C11.9563 10.7603 12.0099 10.9398 12.1136 11.0905C12.1358 11.1235 12.1687 11.1579 12.2085 11.1533C12.2484 11.1487 12.2744 11.1012 12.2851 11.0591C12.2966 10.9587 12.2872 10.857 12.2576 10.7604C12.3126 10.887 12.4072 10.9924 12.5271 11.0607C12.5439 11.0717 12.5631 11.0786 12.5831 11.0806C12.593 11.0815 12.6029 11.0795 12.6117 11.0747C12.6204 11.0699 12.6275 11.0626 12.6321 11.0538" fill="#FFC9B0"/>
<path d="M12.2024 11.2322C12.1709 11.2304 12.1403 11.2207 12.1135 11.204C12.0868 11.1873 12.0646 11.164 12.0492 11.1365C11.9357 10.9725 11.877 10.7768 11.8815 10.5774C11.8815 10.5571 11.8896 10.5376 11.9039 10.5232C11.9183 10.5089 11.9378 10.5008 11.9581 10.5008C11.9784 10.5008 11.9979 10.5089 12.0122 10.5232C12.0266 10.5376 12.0347 10.5571 12.0347 10.5774C12.0314 10.7444 12.081 10.9082 12.1764 11.0453C12.1823 11.0547 12.1895 11.0633 12.1978 11.0706C12.2021 11.0619 12.2052 11.0526 12.207 11.043C12.2161 10.9533 12.207 10.8626 12.1802 10.7765C12.1741 10.7571 12.176 10.7361 12.1854 10.7181C12.1948 10.7 12.211 10.6865 12.2304 10.6804C12.2498 10.6743 12.2708 10.6762 12.2888 10.6856C12.3068 10.695 12.3204 10.7112 12.3265 10.7306C12.3751 10.8415 12.458 10.9339 12.5631 10.994L12.5754 11.0002C12.5861 10.9891 12.5998 10.9815 12.6148 10.9784C12.6298 10.9752 12.6454 10.9767 12.6596 10.9825C12.6784 10.9902 12.6934 11.005 12.7013 11.0236C12.7092 11.0423 12.7093 11.0633 12.7018 11.0821C12.6915 11.1061 12.6741 11.1264 12.6519 11.1401C12.6297 11.1538 12.6037 11.1603 12.5777 11.1587C12.5456 11.1561 12.5146 11.1459 12.4873 11.1288C12.4432 11.1037 12.4018 11.0739 12.364 11.04C12.364 11.0515 12.364 11.063 12.3586 11.0744C12.3546 11.1116 12.3389 11.1464 12.3137 11.174C12.2885 11.2015 12.2551 11.2203 12.2185 11.2276L12.2024 11.2322Z" fill="#093F68"/>
<path d="M3.8558 11.6879L3.81444 10.9465L0.594654 10.1761L0.534149 11.6879H3.8558Z" fill="#093F68"/>
<path d="M3.85579 11.7645H0.53185C0.511537 11.7645 0.492057 11.7564 0.477693 11.7421C0.46333 11.7277 0.455261 11.7082 0.455261 11.6879L0.515766 10.176C0.516228 10.1647 0.519218 10.1536 0.524517 10.1435C0.529816 10.1334 0.537292 10.1247 0.546402 10.1178C0.555399 10.1111 0.565755 10.1065 0.576739 10.1043C0.587723 10.102 0.599067 10.1022 0.60997 10.1048L3.83052 10.8753C3.84639 10.8792 3.8606 10.8881 3.87107 10.9006C3.88154 10.9131 3.88773 10.9287 3.88873 10.945L3.93009 11.6864C3.93085 11.7075 3.92344 11.728 3.90941 11.7438C3.8949 11.7574 3.87567 11.7648 3.85579 11.7645ZM0.6138 11.6113H3.77461L3.74168 11.0078L0.667411 10.271L0.6138 11.6113Z" fill="#093F68"/>
<path d="M10.555 11.6879L10.5443 10.8761L10.2387 10.8615V10.847H9.92696L8.75439 10.7903L8.76051 10.847H8.7092L7.15981 10.2886L7.02731 11.6879H10.555Z" fill="#093F68"/>
<path d="M10.555 11.7645H7.02733C7.01664 11.7645 7.00607 11.7622 6.99631 11.7579C6.98655 11.7535 6.97781 11.7472 6.97065 11.7392C6.96349 11.7314 6.95802 11.7222 6.95459 11.7122C6.95117 11.7022 6.94985 11.6916 6.95074 11.681L7.08324 10.2817C7.08434 10.2701 7.08809 10.2589 7.0942 10.2489C7.1003 10.239 7.1086 10.2306 7.11847 10.2243C7.12836 10.2179 7.13958 10.2139 7.15127 10.2126C7.16296 10.2113 7.1748 10.2127 7.18587 10.2166L8.68547 10.7566C8.68865 10.7497 8.69306 10.7435 8.69849 10.7382C8.70613 10.7302 8.71543 10.7239 8.72575 10.7198C8.73606 10.7157 8.74715 10.7139 8.75823 10.7145L9.9308 10.7704H10.2372C10.255 10.7701 10.2723 10.7761 10.2862 10.7872L10.5473 10.8002C10.567 10.8012 10.5855 10.8097 10.599 10.824C10.6126 10.8382 10.6201 10.8572 10.6201 10.8768L10.6308 11.6887C10.6308 11.709 10.6228 11.7285 10.6084 11.7428C10.594 11.7572 10.5745 11.7653 10.5542 11.7653L10.555 11.7645ZM7.10851 11.6113H10.4784L10.4692 10.9496L10.2356 10.9381C10.2204 10.9375 10.2058 10.9325 10.1935 10.9236H9.92774L8.83405 10.8707C8.8302 10.8807 8.82477 10.89 8.81797 10.8983C8.81081 10.9062 8.80207 10.9126 8.7923 10.9169C8.78254 10.9213 8.77198 10.9235 8.76129 10.9236H8.70998C8.7011 10.9235 8.69229 10.922 8.68394 10.919L7.22875 10.3943L7.10851 11.6113Z" fill="#093F68"/>
<path d="M7.97319 5.41454H9.98211C10.2259 5.41454 10.4596 5.51137 10.632 5.68372C10.8043 5.85608 10.9012 6.08985 10.9012 6.3336V10.2917H7.05719V6.33054C7.058 6.08785 7.15476 5.85533 7.32637 5.68372C7.49798 5.51211 7.7305 5.41534 7.97319 5.41454Z" fill="#68E1FD"/>
<path d="M10.8981 10.3652H7.05721C7.0369 10.3652 7.01742 10.3572 7.00305 10.3428C6.98869 10.3284 6.98062 10.3089 6.98062 10.2886V6.33054C6.98062 6.06647 7.08552 5.81322 7.27224 5.6265C7.45896 5.43978 7.71221 5.33488 7.97627 5.33488H9.98519C10.2493 5.33488 10.5025 5.43978 10.6892 5.6265C10.8759 5.81322 10.9808 6.06647 10.9808 6.33054V10.2886C10.9809 10.2992 10.9787 10.3097 10.9745 10.3194C10.9703 10.3291 10.9641 10.3379 10.9563 10.3451C10.9485 10.3523 10.9393 10.3578 10.9293 10.3613C10.9193 10.3647 10.9087 10.3661 10.8981 10.3652ZM7.1338 10.212H10.8215V6.33054C10.8215 6.1071 10.7328 5.89281 10.5748 5.73482C10.4168 5.57682 10.2025 5.48806 9.97907 5.48806H7.97321C7.74977 5.48806 7.53548 5.57682 7.37749 5.73482C7.2195 5.89281 7.13074 6.1071 7.13074 6.33054L7.1338 10.212Z" fill="#093F68"/>
<path d="M8.71687 1.05129C8.78575 1.11847 8.83545 1.2028 8.86086 1.2956C9.17487 1.02678 9.65202 0.999206 10.0311 1.16617C10.4102 1.33313 10.6967 1.66629 10.8813 2.03698C11.0467 2.36861 11.085 2.75079 11.0888 3.11612C11.0926 3.48144 11 3.82226 11.0084 4.18836C11.0084 4.31702 10.9961 4.34153 10.869 4.36068C10.7489 4.36911 10.6284 4.36911 10.5083 4.36068H7.66837C7.63008 4.36068 7.05567 4.38519 7.0503 4.36068C7.02809 4.28409 7.06256 4.19218 7.06562 4.1156C7.07711 3.84983 6.98903 3.55344 6.97372 3.28308C6.95304 2.8649 6.87032 2.49881 7.04188 2.10515C7.21346 1.71271 7.4817 1.37016 7.82155 1.10949C7.96065 0.988486 8.1337 0.913332 8.31708 0.89428C8.39083 0.892418 8.4642 0.905353 8.53287 0.932319C8.60153 0.959286 8.6641 0.999738 8.71687 1.05129Z" fill="#725858"/>
<path d="M7.20271 4.45029C6.99362 4.45029 6.98902 4.43191 6.97294 4.38136C6.95835 4.31759 6.95835 4.25135 6.97294 4.18759C6.97794 4.16231 6.98126 4.13672 6.9829 4.111C6.98287 3.95672 6.96773 3.8028 6.93771 3.65147C6.91524 3.5307 6.8999 3.40871 6.89176 3.28614C6.88716 3.20113 6.88027 3.11841 6.87338 3.03723C6.84657 2.71173 6.8213 2.40384 6.96528 2.07374C7.14193 1.66833 7.41864 1.31441 7.76946 1.04516C7.8943 0.950189 8.08654 0.822286 8.30558 0.815393C8.39003 0.813562 8.47397 0.828911 8.55231 0.860509C8.63064 0.892106 8.70174 0.939294 8.76128 0.999206C8.81347 1.04972 8.85626 1.1091 8.88766 1.17459C9.06014 1.06594 9.257 1.00204 9.46041 0.988663C9.66381 0.97529 9.86735 1.01287 10.0526 1.09801C10.4125 1.25578 10.7281 1.57822 10.9402 2.00481C11.1248 2.37474 11.1524 2.79368 11.1562 3.11688C11.1547 3.29632 11.1409 3.47545 11.1149 3.653C11.0894 3.83058 11.0763 4.00972 11.0758 4.18912C11.0758 4.3423 11.0505 4.41276 10.8705 4.4388C10.7853 4.44837 10.6994 4.44991 10.614 4.44339C10.5749 4.44339 10.5374 4.44339 10.4991 4.44339H7.66836H7.60173C7.41945 4.44263 7.29232 4.45029 7.20271 4.45029ZM7.12229 4.29558C7.19837 4.29558 7.35767 4.29303 7.6002 4.28792H7.67143H10.5113H10.6331C10.7095 4.29496 10.7864 4.29496 10.8629 4.28792C10.918 4.28026 10.9303 4.27337 10.9326 4.27107C10.9361 4.24567 10.9361 4.21989 10.9326 4.19448C10.9323 4.00788 10.9459 3.82152 10.9732 3.63692C10.998 3.46722 11.0113 3.29604 11.013 3.12454C11.0092 2.81818 10.9839 2.41992 10.8131 2.07834C10.617 1.68391 10.3283 1.38904 10.0013 1.24352C9.62444 1.07733 9.18712 1.12481 8.9114 1.3607C8.90152 1.36918 8.88964 1.37501 8.87689 1.37762C8.86414 1.38024 8.85093 1.37956 8.83851 1.37565C8.82609 1.37174 8.81487 1.36473 8.80592 1.35528C8.79696 1.34583 8.79056 1.33425 8.78732 1.32164C8.7657 1.24216 8.72312 1.16994 8.66402 1.11256C8.61884 1.0678 8.56528 1.03238 8.50641 1.00834C8.44753 0.984287 8.3845 0.972075 8.3209 0.972399C8.14245 0.979292 7.97778 1.08958 7.86903 1.1723C7.53913 1.42576 7.27902 1.75887 7.1131 2.14038C6.98366 2.43524 7.00664 2.71096 7.03651 3.02957C7.04264 3.11228 7.0503 3.1973 7.05413 3.28384C7.06276 3.40071 7.07759 3.51703 7.09855 3.63232C7.13088 3.79395 7.14679 3.95843 7.14603 4.12325C7.14388 4.15462 7.13979 4.18583 7.13378 4.21669C7.12728 4.24141 7.12217 4.26647 7.11846 4.29175L7.12229 4.29558Z" fill="#093F68"/>
<path d="M8.69849 5.65044H9.25682V5.97211C9.25682 6.03508 9.23181 6.09547 9.18728 6.13999C9.14275 6.18452 9.08237 6.20953 9.0194 6.20953H8.93515C8.87218 6.20953 8.81179 6.18452 8.76726 6.13999C8.72274 6.09547 8.69772 6.03508 8.69772 5.97211V5.65044H8.69849Z" fill="#FFC9B0"/>
<path d="M9.02018 6.28841H8.93593C8.85271 6.28821 8.77296 6.25506 8.71411 6.19622C8.65527 6.13737 8.62212 6.05762 8.62192 5.9744V5.65349C8.62192 5.63318 8.62999 5.6137 8.64435 5.59934C8.65871 5.58497 8.67819 5.5769 8.69851 5.5769H9.25684C9.27715 5.5769 9.29663 5.58497 9.31099 5.59934C9.32536 5.6137 9.33343 5.63318 9.33343 5.65349V5.9744C9.33343 6.05755 9.30045 6.1373 9.24172 6.19617C9.183 6.25504 9.10333 6.28821 9.02018 6.28841ZM8.77509 5.73008V5.9744C8.77509 6.01705 8.79204 6.05796 8.8222 6.08813C8.85236 6.11829 8.89327 6.13523 8.93593 6.13523H9.02018C9.0627 6.13503 9.10341 6.118 9.13341 6.08786C9.16341 6.05772 9.18025 6.01692 9.18025 5.9744V5.73008H8.77509Z" fill="#093F68"/>
<path d="M7.47459 4.66703C7.75672 4.66703 7.98544 4.45786 7.98544 4.19984C7.98544 3.94182 7.75672 3.73265 7.47459 3.73265C7.19246 3.73265 6.96375 3.94182 6.96375 4.19984C6.96375 4.45786 7.19246 4.66703 7.47459 4.66703Z" fill="#FFC9B0"/>
<path d="M7.47461 4.74362C7.15064 4.74362 6.88718 4.50006 6.88718 4.19984C6.89791 4.05137 6.96445 3.91247 7.07344 3.81108C7.18242 3.70968 7.32576 3.65332 7.47461 3.65332C7.62347 3.65332 7.7668 3.70968 7.87578 3.81108C7.98477 3.91247 8.05132 4.05137 8.06205 4.19984C8.06205 4.50006 7.79858 4.74362 7.47461 4.74362ZM7.47461 3.80847C7.39912 3.81646 7.32755 3.84615 7.26858 3.89395C7.2096 3.94176 7.16573 4.00562 7.14228 4.07783C7.11883 4.15003 7.11681 4.22748 7.13644 4.30082C7.15608 4.37415 7.19654 4.44022 7.25293 4.49105C7.30933 4.54187 7.37924 4.57527 7.45421 4.5872C7.52919 4.59913 7.60601 4.58909 7.6754 4.55829C7.74478 4.52748 7.80376 4.47723 7.84519 4.41362C7.88663 4.35001 7.90874 4.27575 7.90887 4.19984C7.90293 4.09045 7.85391 3.98786 7.77253 3.91451C7.69114 3.84117 7.58403 3.80304 7.47461 3.80847Z" fill="#093F68"/>
<path d="M10.4524 4.66703C10.7345 4.66703 10.9632 4.45786 10.9632 4.19984C10.9632 3.94182 10.7345 3.73265 10.4524 3.73265C10.1702 3.73265 9.94153 3.94182 9.94153 4.19984C9.94153 4.45786 10.1702 4.66703 10.4524 4.66703Z" fill="#FFC9B0"/>
<path d="M10.4524 4.74362C10.1284 4.74362 9.86493 4.50006 9.86493 4.19984C9.87566 4.05137 9.94221 3.91247 10.0512 3.81108C10.1602 3.70968 10.3035 3.65332 10.4524 3.65332C10.6012 3.65332 10.7446 3.70968 10.8535 3.81108C10.9625 3.91247 11.0291 4.05137 11.0398 4.19984C11.0398 4.50006 10.7763 4.74362 10.4524 4.74362ZM10.4524 3.80847C10.3769 3.81646 10.3053 3.84615 10.2463 3.89395C10.1874 3.94176 10.1435 4.00562 10.12 4.07783C10.0966 4.15003 10.0946 4.22748 10.1142 4.30082C10.1338 4.37415 10.1743 4.44022 10.2307 4.49105C10.2871 4.54187 10.357 4.57527 10.432 4.5872C10.5069 4.59913 10.5838 4.58909 10.6531 4.55829C10.7225 4.52748 10.7815 4.47723 10.8229 4.41362C10.8644 4.35001 10.8865 4.27575 10.8866 4.19984C10.8807 4.09045 10.8317 3.98786 10.7503 3.91451C10.6689 3.84117 10.5618 3.80304 10.4524 3.80847Z" fill="#093F68"/>
<path d="M8.97803 5.72318C8.72293 5.72229 8.47152 5.6622 8.2436 5.54764C8.01567 5.43308 7.81745 5.26718 7.66453 5.06299C7.31988 4.60346 7.3038 4.04742 7.41409 3.50211C7.49068 3.13066 7.69517 3.11917 8.05054 3.14062C8.06765 2.94292 8.11304 2.7487 8.18533 2.5639C8.26282 2.74328 8.31142 2.93379 8.32932 3.12836C8.58053 3.12836 8.83251 3.12836 9.08372 3.13908L9.17409 2.66653C9.26111 2.80248 9.30833 2.96007 9.31042 3.12147L10.1835 3.21184L10.2693 2.75231C10.3394 2.87416 10.3664 3.01609 10.3459 3.15517C10.6974 2.9882 10.6163 3.35813 10.6163 3.59708V4.08955C10.616 4.30438 10.5733 4.51705 10.4908 4.71542C10.4084 4.91378 10.2876 5.09396 10.1355 5.24566C9.98336 5.39735 9.80284 5.5176 9.60425 5.59953C9.40565 5.68147 9.19286 5.72348 8.97803 5.72318Z" fill="#FFC9B0"/>
<path d="M8.97802 5.79978C8.71116 5.79913 8.44809 5.73653 8.20952 5.61692C7.97096 5.49731 7.76343 5.32394 7.60326 5.11049C7.29078 4.69001 7.20347 4.16002 7.33903 3.48834C7.41562 3.08931 7.65457 3.04795 7.98161 3.06174C8.00353 2.88149 8.04804 2.70471 8.11411 2.53558C8.11961 2.5213 8.12927 2.50901 8.14182 2.50027C8.15438 2.49153 8.16927 2.48676 8.18457 2.48656C8.19973 2.48642 8.21459 2.49079 8.22727 2.4991C8.23996 2.50742 8.24988 2.51932 8.25579 2.53328C8.32733 2.698 8.37504 2.87207 8.39748 3.05025C8.60504 3.05025 8.81336 3.05025 9.02091 3.05868L9.0975 2.65123C9.10046 2.63627 9.10782 2.62254 9.11862 2.61179C9.12943 2.60104 9.1432 2.59376 9.15817 2.59088C9.17314 2.588 9.18863 2.58966 9.20265 2.59563C9.21668 2.60161 9.2286 2.61163 9.23689 2.62442C9.31941 2.75293 9.36935 2.89962 9.38241 3.05178L10.1192 3.12837L10.1958 2.73471C10.1987 2.71929 10.2063 2.70515 10.2175 2.69419C10.2288 2.68323 10.2431 2.67599 10.2586 2.67344C10.2736 2.67139 10.289 2.67387 10.3026 2.68055C10.3162 2.68724 10.3276 2.69782 10.3352 2.71096C10.3931 2.81154 10.425 2.92502 10.4278 3.04106C10.4564 3.0331 10.4862 3.03103 10.5156 3.03498C10.545 3.03893 10.5732 3.04882 10.5986 3.06404C10.7112 3.14063 10.7028 3.31219 10.6944 3.47915C10.6944 3.51897 10.6905 3.55574 10.6905 3.59403V4.0865C10.6903 4.54069 10.5099 4.97624 10.1888 5.29748C9.86769 5.61872 9.43222 5.79938 8.97802 5.79978ZM7.87285 3.21109C7.63772 3.21109 7.53893 3.26853 7.48991 3.51744C7.36354 4.14394 7.44166 4.63487 7.72733 5.01781C7.92293 5.28095 8.1965 5.47573 8.50915 5.57448C8.8218 5.67323 9.15761 5.67092 9.46887 5.56787C9.78013 5.46482 10.051 5.26629 10.2429 5.00048C10.4349 4.73468 10.5382 4.41513 10.5381 4.08726V3.5948C10.5381 3.5565 10.5381 3.51821 10.542 3.47226C10.5466 3.37805 10.5542 3.21951 10.5144 3.19271C10.509 3.19271 10.4784 3.17433 10.3773 3.22181C10.365 3.22741 10.3514 3.22965 10.338 3.2283C10.3245 3.22696 10.3117 3.22207 10.3007 3.21415C10.286 3.20329 10.2757 3.18753 10.2716 3.16973L10.2586 3.22487C10.255 3.24368 10.2446 3.26048 10.2293 3.27196C10.214 3.28344 10.1949 3.28877 10.1759 3.28691L9.30276 3.1973C9.2838 3.1954 9.26624 3.18649 9.25349 3.17233C9.24074 3.15817 9.23373 3.13977 9.23383 3.12071C9.23302 3.05127 9.22298 2.98225 9.20396 2.91546L9.15877 3.15135C9.15535 3.16905 9.14579 3.18498 9.13178 3.19632C9.11778 3.20767 9.10021 3.21371 9.08219 3.21339C8.83327 3.20266 8.5813 3.19883 8.33315 3.20266C8.31398 3.20274 8.29547 3.19563 8.28129 3.18272C8.26711 3.16982 8.25829 3.15206 8.25656 3.13297C8.24669 3.01848 8.22513 2.90531 8.19223 2.79521C8.1616 2.90964 8.14085 3.02648 8.13019 3.14446C8.12862 3.16451 8.11923 3.18314 8.10404 3.19632C8.08884 3.20951 8.06908 3.21619 8.049 3.21492C7.98084 3.21339 7.92417 3.21109 7.87285 3.21109Z" fill="#093F68"/>
<path d="M8.82486 4.70917C8.77354 4.70883 8.72232 4.70448 8.67168 4.69615C8.65137 4.69259 8.6333 4.68111 8.62145 4.66424C8.6096 4.64736 8.60494 4.62647 8.60849 4.60615C8.61205 4.58584 8.62353 4.56777 8.6404 4.55592C8.65728 4.54407 8.67817 4.53941 8.69849 4.54297C8.76125 4.55337 8.82508 4.55569 8.88843 4.54986C8.8623 4.43785 8.82053 4.33008 8.76435 4.22972C8.75971 4.22077 8.75687 4.211 8.75601 4.20095C8.75516 4.19091 8.75629 4.18079 8.75935 4.17118C8.76241 4.16158 8.76733 4.15267 8.77384 4.14497C8.78035 4.13728 8.78832 4.13094 8.79729 4.12633C8.81519 4.11713 8.83599 4.11535 8.8552 4.12136C8.8744 4.12738 8.89047 4.14072 8.89991 4.15849C8.96884 4.28946 9.07607 4.52535 9.02935 4.62951C9.02241 4.64526 9.01187 4.65916 8.99856 4.67007C8.98525 4.68098 8.96956 4.6886 8.95276 4.69232C8.91095 4.70302 8.86801 4.70867 8.82486 4.70917Z" fill="#093F68"/>
<path d="M9.44601 4.32545C9.53738 4.32545 9.61144 4.25138 9.61144 4.16001C9.61144 4.06865 9.53738 3.99458 9.44601 3.99458C9.35465 3.99458 9.28058 4.06865 9.28058 4.16001C9.28058 4.25138 9.35465 4.32545 9.44601 4.32545Z" fill="#093F68"/>
<path d="M7.98544 4.19985C8.0768 4.19985 8.15087 4.12578 8.15087 4.03442C8.15087 3.94305 8.0768 3.86899 7.98544 3.86899C7.89407 3.86899 7.82001 3.94305 7.82001 4.03442C7.82001 4.12578 7.89407 4.19985 7.98544 4.19985Z" fill="#093F68"/>
<path d="M9.37171 3.86591C9.33109 3.86591 9.29213 3.84977 9.2634 3.82105C9.23467 3.79232 9.21854 3.75336 9.21854 3.71274C9.21854 3.67211 9.23467 3.63315 9.2634 3.60442C9.29213 3.5757 9.33109 3.55956 9.37171 3.55956L10.159 3.54271H10.1629C10.2035 3.54271 10.2425 3.55885 10.2712 3.58757C10.2999 3.6163 10.3161 3.65526 10.3161 3.69589C10.3161 3.73651 10.2999 3.77547 10.2712 3.8042C10.2425 3.83293 10.2035 3.84906 10.1629 3.84906L9.37478 3.86591H9.37171Z" fill="#093F68"/>
<path d="M8.57364 3.82073H8.56445L7.77789 3.77708C7.73726 3.77484 7.69919 3.75656 7.67204 3.72625C7.6449 3.69595 7.6309 3.6561 7.63314 3.61547C7.63537 3.57485 7.65365 3.53677 7.68396 3.50963C7.71426 3.48248 7.75411 3.46849 7.79474 3.47072L8.5813 3.51361C8.62193 3.51463 8.66049 3.53174 8.68849 3.56118C8.7165 3.59063 8.73167 3.62999 8.73065 3.67062C8.72963 3.71124 8.71252 3.7498 8.68308 3.77781C8.65363 3.80582 8.61427 3.82098 8.57364 3.81997V3.82073Z" fill="#093F68"/>
<path d="M8.81414 5.17328C8.65657 5.17189 8.50279 5.1248 8.37146 5.03772C8.36336 5.03174 8.35652 5.02422 8.35133 5.01559C8.34614 5.00696 8.3427 4.9974 8.34121 4.98744C8.33972 4.97748 8.3402 4.96733 8.34263 4.95756C8.34506 4.94779 8.34939 4.93859 8.35537 4.9305C8.36136 4.9224 8.36888 4.91556 8.37751 4.91037C8.38614 4.90518 8.3957 4.90174 8.40566 4.90025C8.41561 4.89875 8.42577 4.89924 8.43554 4.90167C8.44531 4.9041 8.4545 4.90843 8.4626 4.91441C8.57831 4.99236 8.71702 5.02881 8.8561 5.01782C8.99519 5.00684 9.12645 4.94906 9.22849 4.85391C9.24402 4.84081 9.26413 4.83441 9.28438 4.83614C9.30464 4.83786 9.32337 4.84756 9.33648 4.8631C9.34958 4.87864 9.35597 4.89874 9.35425 4.919C9.35252 4.93925 9.34282 4.95799 9.32728 4.97109C9.18625 5.09821 9.00399 5.17003 8.81414 5.17328Z" fill="#093F68"/>
<path d="M17.0727 11.6879L16.9616 10.2542L13.375 11.079L13.3551 11.6879H17.0727Z" fill="#093F68"/>
<path d="M17.075 11.7645H13.3551C13.3448 11.7645 13.3346 11.7623 13.3251 11.7583C13.3156 11.7542 13.3071 11.7482 13.2999 11.7408C13.2929 11.7334 13.2874 11.7248 13.2837 11.7153C13.28 11.7059 13.2782 11.6958 13.2785 11.6856L13.2984 11.0767C13.299 11.0599 13.3051 11.0438 13.3157 11.0308C13.3264 11.0177 13.341 11.0086 13.3574 11.0047L16.9448 10.1791C16.9555 10.1767 16.9665 10.1767 16.9772 10.1789C16.9879 10.1812 16.998 10.1857 17.0068 10.1921C17.0158 10.1986 17.0232 10.207 17.0287 10.2166C17.0341 10.2263 17.0373 10.237 17.0382 10.248L17.1516 11.6818C17.1525 11.6923 17.1512 11.703 17.1477 11.713C17.1443 11.723 17.1388 11.7322 17.1317 11.74C17.1244 11.7478 17.1157 11.754 17.1059 11.7582C17.0962 11.7624 17.0856 11.7646 17.075 11.7645ZM13.4363 11.6113H16.9923L16.8919 10.3476L13.4493 11.1395L13.4363 11.6113Z" fill="#093F68"/>
<path d="M5.08351 2.58229C5.15004 2.41476 5.17936 2.23477 5.16944 2.05479C5.15952 1.8748 5.1106 1.69913 5.02607 1.53992C4.87289 1.23357 4.56654 0.931808 4.2441 1.02678C4.26658 1.19998 4.31191 1.36944 4.37889 1.53073C4.09398 1.30097 3.69802 1.26114 3.33423 1.30096C3.18947 1.31705 3.02787 1.35458 2.95128 1.47635C2.87469 1.59813 2.96047 1.81181 3.10446 1.78271C2.79498 1.6423 2.44414 1.6229 2.12106 1.72833C2.01767 1.76279 1.90508 1.82713 1.8913 1.93512C1.87215 2.08217 2.04447 2.17408 2.1831 2.22233C1.90508 2.08294 1.51831 2.30428 1.4938 2.61446L1.70672 2.66348C1.26097 3.12301 1.52827 3.84294 1.74271 4.35532C1.80552 4.5039 2.10957 5.21464 2.31483 5.23685C2.32019 5.23685 3.39167 5.3502 3.9454 4.68771C4.24793 4.32622 4.46391 3.88889 4.6638 3.4623C4.81239 3.15671 4.98318 2.8718 5.08351 2.58229Z" fill="#725858"/>
<path d="M2.50938 5.32646C2.44237 5.32707 2.37538 5.32401 2.30871 5.31727C2.13792 5.29966 1.92577 4.98717 1.67379 4.38902C1.50147 3.9785 1.18975 3.23483 1.56887 2.71479L1.47849 2.69335C1.46122 2.68946 1.44582 2.6797 1.43493 2.66573C1.42404 2.65177 1.41832 2.63446 1.41875 2.61676C1.42768 2.52776 1.45842 2.44233 1.50825 2.36805C1.55808 2.29377 1.62546 2.23293 1.70443 2.19093C1.75646 2.16127 1.81241 2.1391 1.87063 2.12506C1.84833 2.09872 1.83178 2.06802 1.82202 2.03492C1.81226 2.00182 1.80951 1.96704 1.81395 1.93282C1.82927 1.81411 1.92883 1.71837 2.09503 1.664C2.33725 1.58421 2.59641 1.57072 2.8456 1.62494C2.83754 1.56082 2.85188 1.49588 2.88619 1.44112C2.98729 1.28795 3.18565 1.24659 3.32581 1.23127C3.58621 1.20293 3.93392 1.20676 4.23339 1.35381C4.20355 1.25203 4.18179 1.14806 4.16828 1.04286C4.1659 1.02475 4.17007 1.00638 4.18004 0.991071C4.19002 0.975763 4.20513 0.964523 4.22266 0.959381C4.5788 0.85522 4.91732 1.16157 5.09424 1.51082C5.27116 1.86006 5.2949 2.20854 5.15551 2.61063C5.07993 2.81207 4.99062 3.00808 4.88822 3.1973C4.8369 3.29686 4.78406 3.40026 4.73504 3.50365C4.53361 3.93025 4.31227 4.37753 4.00592 4.74286C3.57396 5.2583 2.85709 5.32646 2.50938 5.32646ZM1.58265 2.56085L1.72587 2.59378C1.73903 2.59688 1.75113 2.60339 1.76095 2.61268C1.77077 2.62196 1.77795 2.63367 1.78178 2.64663C1.78594 2.65986 1.78643 2.67398 1.78319 2.68747C1.77996 2.70095 1.77312 2.71331 1.7634 2.72322C1.38046 3.11688 1.56198 3.72882 1.81472 4.33158C2.03989 4.8677 2.24208 5.15797 2.3248 5.16639C2.33475 5.16639 3.3664 5.26902 3.88874 4.64482C4.18284 4.29252 4.39116 3.87358 4.59642 3.43855C4.64696 3.33133 4.69981 3.2264 4.74959 3.12607C4.8485 2.94291 4.93498 2.75331 5.00846 2.55855C5.07132 2.40123 5.09915 2.23211 5.09002 2.06294C5.0809 1.89377 5.03503 1.72863 4.95562 1.57898C4.81852 1.30939 4.57727 1.06737 4.32836 1.09265C4.35208 1.23465 4.39218 1.37344 4.44783 1.50622C4.45424 1.52196 4.45523 1.53937 4.45066 1.55573C4.44608 1.5721 4.4362 1.58647 4.42256 1.5966C4.40917 1.60691 4.39274 1.6125 4.37584 1.6125C4.35894 1.6125 4.34251 1.60691 4.32912 1.5966C4.03808 1.36224 3.63063 1.35151 3.34036 1.38368C3.23084 1.39517 3.07843 1.42351 3.01256 1.5246C3.00051 1.54782 2.99461 1.57373 2.99542 1.59988C2.99622 1.62602 3.0037 1.65152 3.01716 1.67395C3.05622 1.68774 3.09375 1.70306 3.13204 1.72067C3.14646 1.72727 3.15848 1.73818 3.16644 1.7519C3.1744 1.76562 3.1779 1.78147 3.17646 1.79726C3.17466 1.81344 3.16774 1.82862 3.15672 1.8406C3.14571 1.85258 3.13116 1.86074 3.11519 1.86389C3.08112 1.87042 3.04595 1.86831 3.0129 1.85774C2.97985 1.84717 2.94998 1.82848 2.92602 1.80339C2.67075 1.72146 2.39625 1.72146 2.14098 1.80339C2.0912 1.82024 1.97326 1.86772 1.9633 1.94661C1.95334 2.02549 2.05291 2.08906 2.13562 2.12583C2.16209 2.13352 2.18774 2.14378 2.21221 2.15646C2.2295 2.16521 2.24283 2.1802 2.24951 2.19839C2.25619 2.21658 2.25573 2.23663 2.24821 2.25449C2.24071 2.27231 2.22676 2.28663 2.20914 2.29458C2.19153 2.30253 2.17156 2.30354 2.15324 2.29738C2.12771 2.2887 2.10397 2.27951 2.08201 2.26981C1.97737 2.24847 1.86853 2.26602 1.7759 2.31918C1.68327 2.37233 1.6132 2.45744 1.57882 2.55855L1.58265 2.56085Z" fill="#093F68"/>
<path d="M3.72941 5.97287C3.31353 6.00121 2.92063 5.79978 2.61504 5.53019C2.45727 5.39003 2.20223 5.22384 2.2658 4.98335C2.29875 4.8805 2.35694 4.78755 2.43506 4.71299C2.48255 4.66167 2.5262 4.61036 2.56603 4.55981C2.48134 4.47181 2.42624 4.35957 2.40839 4.23876C2.39054 4.11794 2.41084 3.99456 2.46646 3.88583C2.5123 3.79805 2.5897 3.7309 2.68308 3.69793C2.77645 3.66496 2.87886 3.66861 2.96965 3.70815C3.17184 3.78014 3.24231 4.03901 3.28519 4.22512C3.28835 4.24715 3.29764 4.26785 3.312 4.28486C3.3285 4.29858 3.34882 4.30687 3.37021 4.3086C3.43013 4.32047 3.4918 4.32047 3.55172 4.3086C3.57014 4.30619 3.58717 4.29754 3.59997 4.28409C3.60527 4.27548 3.60881 4.2659 3.61039 4.25591C3.61197 4.24592 3.61155 4.23571 3.60916 4.22589C3.58542 3.89962 3.52262 3.56876 3.59308 3.24938C3.7026 2.74696 4.07712 2.86644 4.47385 2.77147C4.5267 2.75845 5.06665 2.62901 5.06511 2.5417L5.1777 4.20674C5.23974 5.11967 4.66762 5.9093 3.72941 5.97287Z" fill="#FFC9B0"/>
<path d="M3.65285 6.05175C3.28982 6.05175 2.90611 5.88939 2.56453 5.58763L2.49406 5.52789C2.34089 5.39769 2.12491 5.22153 2.19231 4.9642C2.228 4.84824 2.29195 4.74296 2.37842 4.65784C2.41058 4.62363 2.43969 4.5907 2.46573 4.55904C2.38845 4.45861 2.34112 4.3384 2.3292 4.21224C2.31727 4.08609 2.34124 3.95913 2.39833 3.846C2.45246 3.74147 2.54412 3.66127 2.65492 3.62149C2.76572 3.58172 2.88746 3.58531 2.99572 3.63155C3.24923 3.72193 3.32352 4.04743 3.36028 4.20367C3.36028 4.21669 3.36564 4.22282 3.36641 4.22588C3.37124 4.22521 3.37613 4.22521 3.38096 4.22588C3.43156 4.23557 3.48354 4.23557 3.53414 4.22588C3.52878 4.14929 3.52112 4.07271 3.51346 4.00301C3.48818 3.7472 3.46214 3.48297 3.51882 3.2241C3.61302 2.79214 3.90176 2.76074 4.18131 2.73087C4.27406 2.72266 4.36617 2.70833 4.45703 2.68798C4.75419 2.61752 4.94949 2.54476 4.99315 2.50877C4.99538 2.48845 5.0056 2.46986 5.02154 2.45708C5.03748 2.44429 5.05785 2.43837 5.07816 2.4406C5.09848 2.44284 5.11707 2.45305 5.12985 2.46899C5.14264 2.48493 5.14856 2.5053 5.14633 2.52562L5.25891 4.18989C5.32708 5.20085 4.68833 5.98053 3.7394 6.04563C3.70723 6.05099 3.68042 6.05175 3.65285 6.05175ZM2.81038 3.7541C2.7539 3.75291 2.69827 3.76784 2.64998 3.79714C2.60169 3.82644 2.56275 3.86889 2.53772 3.91953C2.48899 4.01327 2.47091 4.11994 2.48603 4.22451C2.50114 4.32907 2.54869 4.42626 2.62197 4.50237C2.63567 4.51533 2.6441 4.53289 2.64566 4.55169C2.64721 4.57048 2.64178 4.58919 2.63039 4.60423C2.59133 4.65478 2.54691 4.70762 2.49406 4.76507C2.42464 4.83072 2.37209 4.91217 2.34089 5.00249C2.30106 5.15567 2.41748 5.26595 2.59363 5.41071C2.6189 5.43215 2.64418 5.45283 2.67022 5.47351C3.00568 5.76914 3.38096 5.92002 3.72791 5.89628C4.58876 5.83807 5.16777 5.13039 5.1065 4.20444L5.00387 2.68339C4.83864 2.75276 4.66703 2.80586 4.49149 2.84193C4.39433 2.86357 4.29582 2.87866 4.19663 2.88711C3.92091 2.91698 3.7371 2.9369 3.6674 3.26163C3.61609 3.49676 3.63983 3.73725 3.6674 3.99229C3.67506 4.06888 3.68272 4.14163 3.68808 4.21669C3.69193 4.23518 3.69189 4.25426 3.68798 4.27274C3.68406 4.29121 3.67635 4.30867 3.66534 4.32401C3.65432 4.33934 3.64024 4.35223 3.62398 4.36183C3.60772 4.37144 3.58965 4.37757 3.5709 4.37983C3.50085 4.3936 3.4288 4.3936 3.35875 4.37983C3.32249 4.37608 3.28839 4.36077 3.26148 4.33617C3.23646 4.30901 3.21972 4.27526 3.21323 4.2389C3.16498 4.03135 3.09988 3.83145 2.9467 3.77937C2.90206 3.76293 2.85489 3.75438 2.80731 3.7541H2.81038Z" fill="#093F68"/>
<path d="M4.74421 3.54654H4.05491C4.01429 3.54654 3.97532 3.5304 3.9466 3.50168C3.91787 3.47295 3.90173 3.43399 3.90173 3.39337C3.90173 3.35274 3.91787 3.31378 3.9466 3.28505C3.97532 3.25633 4.01429 3.24019 4.05491 3.24019H4.74421C4.78483 3.24019 4.82379 3.25633 4.85252 3.28505C4.88125 3.31378 4.89739 3.35274 4.89739 3.39337C4.89739 3.43399 4.88125 3.47295 4.85252 3.50168C4.82379 3.5304 4.78483 3.54654 4.74421 3.54654Z" fill="#093F68"/>
<path d="M4.59871 3.90344C4.68415 3.90344 4.75342 3.83418 4.75342 3.74873C4.75342 3.66329 4.68415 3.59402 4.59871 3.59402C4.51327 3.59402 4.444 3.66329 4.444 3.74873C4.444 3.83418 4.51327 3.90344 4.59871 3.90344Z" fill="#093F68"/>
<path d="M5.01077 3.78932C5.01077 3.78932 5.45268 4.45488 5.34852 4.48858C5.22737 4.51153 5.10419 4.52206 4.9809 4.51998" fill="#FFC9B0"/>
<path d="M4.99544 4.59658H4.98012C4.95981 4.59658 4.94033 4.58851 4.92597 4.57415C4.9116 4.55978 4.90353 4.5403 4.90353 4.51999C4.90353 4.49968 4.9116 4.4802 4.92597 4.46583C4.94033 4.45147 4.95981 4.4434 4.98012 4.4434H4.99467C5.09021 4.44396 5.18567 4.43781 5.28035 4.42502C5.18805 4.21706 5.07624 4.01831 4.94642 3.83146C4.93565 3.8145 4.93197 3.79398 4.93619 3.77434C4.9404 3.75469 4.95216 3.73749 4.96894 3.72643C4.98572 3.71538 5.00617 3.71137 5.02589 3.71525C5.0456 3.71914 5.063 3.73062 5.07433 3.74721C5.34468 4.15466 5.46569 4.40817 5.43353 4.49931C5.42872 4.51376 5.4206 4.52689 5.40984 4.53766C5.39907 4.54842 5.38594 4.55654 5.37149 4.56135C5.24788 4.58729 5.12172 4.59911 4.99544 4.59658Z" fill="#093F68"/>
<path d="M4.73426 5.13959C4.71434 5.13959 4.2395 5.11814 4.01816 4.72371C4.01313 4.71496 4.00987 4.70531 4.00857 4.6953C4.00727 4.68529 4.00796 4.67512 4.01059 4.66538C4.01322 4.65564 4.01775 4.64651 4.02391 4.63851C4.03007 4.63052 4.03774 4.62381 4.04649 4.61879C4.05524 4.61376 4.0649 4.6105 4.07491 4.6092C4.08492 4.60791 4.09508 4.60859 4.10482 4.61122C4.11457 4.61386 4.1237 4.61838 4.13169 4.62454C4.13969 4.6307 4.14639 4.63837 4.15142 4.64712C4.32987 4.96573 4.73579 4.98488 4.73962 4.98488C4.75993 4.98488 4.77941 4.99295 4.79378 5.00731C4.80814 5.02167 4.81621 5.04116 4.81621 5.06147C4.81645 5.07212 4.81446 5.08271 4.81038 5.09255C4.80629 5.10239 4.8002 5.11127 4.79248 5.11863C4.78477 5.12598 4.77561 5.13164 4.76558 5.13525C4.75556 5.13886 4.74489 5.14034 4.73426 5.13959Z" fill="#093F68"/>
<path d="M3.8604 10.9075L0.594666 10.1761L1.39961 6.70046C1.4469 6.51072 1.53112 6.33217 1.64745 6.175C1.76379 6.01783 1.90996 5.88513 2.07761 5.78448C2.24526 5.68383 2.4311 5.61721 2.62451 5.58843C2.81793 5.55965 3.01511 5.56926 3.20481 5.61673L3.55022 5.70251C3.9332 5.79838 4.26246 6.04235 4.46566 6.38084C4.66886 6.71932 4.72939 7.12462 4.63395 7.50771L3.8604 10.9075Z" fill="#68E1FD"/>
<path d="M3.86038 10.9841C3.85479 10.9848 3.84913 10.9848 3.84353 10.9841L0.577794 10.2503C0.567927 10.2482 0.558584 10.2441 0.550303 10.2383C0.542022 10.2325 0.534967 10.2252 0.529544 10.2166C0.524244 10.208 0.520703 10.1985 0.519126 10.1885C0.517548 10.1785 0.517965 10.1683 0.520353 10.1584L1.32453 6.68285C1.42567 6.28017 1.68227 5.93397 2.03813 5.72008C2.39399 5.50619 2.82011 5.44204 3.22316 5.54168L3.56858 5.62823C3.97142 5.72898 4.31776 5.98557 4.53147 6.34161C4.74518 6.69764 4.80875 7.12397 4.70822 7.52686L3.93544 10.9251C3.93145 10.942 3.92185 10.957 3.90822 10.9677C3.89459 10.9784 3.87772 10.9842 3.86038 10.9841ZM0.685018 10.1179L3.80141 10.8163L4.55734 7.49086C4.64798 7.12739 4.59076 6.74281 4.39822 6.42148C4.20568 6.10014 3.89354 5.8683 3.53028 5.77681L3.1841 5.69103C2.82083 5.60068 2.43655 5.65816 2.11562 5.85086C1.79469 6.04356 1.56334 6.35573 1.47235 6.71885L0.685018 10.1179Z" fill="#093F68"/>
<path d="M7.74496 9.78392C8.02144 9.88735 8.28803 10.0155 8.54148 10.1669C8.92442 10.4035 9.26754 11.0729 9.04696 11.0637C8.82639 11.0545 8.31708 10.9105 8.12101 10.8975C8.00689 10.8876 7.3735 10.7329 7.3735 10.7329L7.74496 9.78392Z" fill="#FFC9B0"/>
<path d="M9.05157 11.1395H9.04391C8.86326 11.1207 8.68413 11.0895 8.50779 11.0461C8.35001 11.0124 8.20143 10.981 8.11872 10.9741C8.00154 10.9634 7.42406 10.8209 7.35896 10.8079C7.34836 10.8053 7.33843 10.8005 7.32984 10.7938C7.32126 10.787 7.31421 10.7785 7.30918 10.7688C7.30401 10.7591 7.301 10.7484 7.30034 10.7375C7.29968 10.7265 7.30139 10.7155 7.30535 10.7053L7.67757 9.75634C7.68493 9.73786 7.6992 9.72296 7.71736 9.71481C7.73551 9.70667 7.75613 9.7059 7.77483 9.71269C8.05642 9.81697 8.32769 9.94722 8.58514 10.1018C8.90758 10.2994 9.25223 10.8355 9.18866 11.043C9.18044 11.0725 9.1623 11.0981 9.13732 11.1157C9.11233 11.1333 9.08204 11.1417 9.05157 11.1395ZM7.47614 10.68C7.72658 10.7397 8.05668 10.8156 8.12791 10.8217C8.26493 10.8403 8.40092 10.8659 8.53536 10.8983C8.70218 10.9382 8.87123 10.9681 9.04161 10.9879C9.0531 10.8745 8.81184 10.4242 8.50166 10.2343C8.27397 10.0983 8.03549 9.98119 7.78862 9.88425L7.47614 10.68Z" fill="#093F68"/>
<path d="M13.7897 6.7606L13.6994 6.76254C13.6556 6.76348 13.6121 6.7558 13.5714 6.73992C13.5306 6.72405 13.4933 6.70031 13.4617 6.67004C13.4302 6.63977 13.4048 6.60358 13.3872 6.56353C13.3696 6.52348 13.3601 6.48035 13.3591 6.43661L13.3489 5.9611L14.1062 5.94484L14.1163 6.41652C14.1178 6.46064 14.1105 6.5046 14.0948 6.54586C14.0791 6.58712 14.0554 6.62486 14.025 6.65687C13.9946 6.68888 13.9582 6.71454 13.9178 6.73235C13.8774 6.75015 13.8339 6.75976 13.7897 6.7606Z" fill="#FFC9B0"/>
<path d="M13.6928 6.83832C13.5857 6.83815 13.4828 6.79608 13.4063 6.72109C13.3297 6.6461 13.2855 6.54414 13.2831 6.437L13.2724 5.96138C13.2724 5.94107 13.2804 5.92159 13.2948 5.90723C13.3092 5.89287 13.3286 5.8848 13.349 5.8848L14.1064 5.86871C14.1267 5.86871 14.1462 5.87678 14.1606 5.89115C14.1749 5.90551 14.183 5.92499 14.183 5.9453L14.193 6.42092C14.195 6.52954 14.1539 6.63454 14.0787 6.71293C14.0035 6.79131 13.9003 6.83668 13.7916 6.83909H13.7013L13.6928 6.83832ZM13.4271 6.03491L13.4363 6.43394C13.4377 6.50105 13.4653 6.56494 13.5133 6.6119C13.5613 6.65887 13.6257 6.68516 13.6928 6.68515H13.6982H13.7886C13.8223 6.68445 13.8555 6.67712 13.8864 6.66358C13.9172 6.65004 13.9451 6.63055 13.9684 6.60622C13.9918 6.5819 14.0101 6.55322 14.0223 6.52182C14.0346 6.49042 14.0405 6.45691 14.0398 6.42321L14.0314 6.02419L13.4271 6.03491Z" fill="#093F68"/>
<path d="M13.6729 6.09159C14.1286 6.20417 14.605 6.05712 14.9956 5.81893C15.1986 5.69486 15.5141 5.56083 15.4904 5.28281C15.4737 5.16267 15.4277 5.0485 15.3563 4.95042C15.2078 4.72065 15.0393 4.45642 14.9734 4.18453C14.893 3.84678 15.037 3.50136 14.9052 3.16054C14.6801 2.58153 13.8751 2.49499 13.3444 2.42606C13.2147 2.40233 13.0819 2.40233 12.9522 2.42606C12.6237 2.50265 12.6459 2.89401 12.5777 3.1659L12.4115 3.83759C12.1626 4.85009 12.6466 5.83808 13.6729 6.09159Z" fill="#FFC9B0"/>
<path d="M13.9938 6.20569C13.8795 6.20618 13.7656 6.1928 13.6545 6.16586C13.4103 6.10926 13.1809 6.00157 12.9813 5.84989C12.7817 5.69822 12.6165 5.50599 12.4965 5.28586C12.2639 4.83458 12.2071 4.31301 12.3372 3.82225L12.505 3.14521C12.518 3.09083 12.5279 3.03033 12.5379 2.96676C12.5777 2.72474 12.6275 2.42298 12.9354 2.34945C13.0744 2.32376 13.2169 2.32376 13.3558 2.34945L13.4064 2.35558C13.9387 2.42451 14.7436 2.52867 14.978 3.13219C15.0546 3.33592 15.0454 3.53658 15.0339 3.73111C15.0176 3.87611 15.023 4.02274 15.05 4.16614C15.109 4.41428 15.2652 4.66626 15.4199 4.90368C15.4986 5.01246 15.5491 5.13902 15.567 5.27207C15.5915 5.56311 15.3203 5.71782 15.1227 5.83117L15.0354 5.88249C14.7243 6.08348 14.3641 6.19528 13.9938 6.20569ZM13.1115 2.48348C13.0644 2.48286 13.0174 2.48774 12.9714 2.49804C12.7768 2.54476 12.7332 2.72397 12.6895 2.99203C12.6788 3.0556 12.6681 3.12147 12.6535 3.18121L12.4858 3.85902C12.3644 4.31395 12.4168 4.79779 12.6329 5.21617C12.7426 5.41752 12.8939 5.59331 13.0766 5.73193C13.2593 5.87055 13.4693 5.96885 13.6928 6.02035C14.0758 6.11455 14.5238 6.02035 14.9566 5.75612C14.9857 5.73927 15.0163 5.72088 15.0485 5.70327C15.2729 5.57383 15.4314 5.46891 15.4161 5.28969C15.3995 5.18205 15.3575 5.07991 15.2935 4.99176C15.1312 4.74361 14.9673 4.47785 14.9022 4.20596C14.8716 4.04804 14.8649 3.88643 14.8823 3.72652C14.893 3.54041 14.9037 3.36502 14.8363 3.1904C14.6356 2.67113 13.9172 2.57769 13.388 2.51029L13.3375 2.5034C13.2626 2.49214 13.1872 2.48549 13.1115 2.48348Z" fill="#093F68"/>
<path d="M12.6635 3.71887C12.6635 3.71887 12.0431 4.37141 12.1519 4.42885C12.2818 4.47819 12.4166 4.51387 12.554 4.53531" fill="#FFC9B0"/>
<path d="M12.5563 4.61189H12.544C12.3984 4.58986 12.2558 4.55132 12.1189 4.49701C12.1051 4.48994 12.0931 4.47964 12.084 4.46697C12.075 4.45431 12.0691 4.43966 12.0669 4.42425C12.0454 4.29328 12.3502 3.94021 12.6099 3.66679C12.617 3.65961 12.6255 3.65391 12.6348 3.65002C12.6441 3.64614 12.6541 3.64413 12.6643 3.64413C12.6744 3.64413 12.6844 3.64614 12.6937 3.65002C12.703 3.65391 12.7115 3.65961 12.7186 3.66679C12.7329 3.68114 12.7409 3.70055 12.7409 3.72078C12.7409 3.74102 12.7329 3.76043 12.7186 3.77478C12.5065 3.99765 12.276 4.2749 12.2254 4.38059C12.337 4.41678 12.4512 4.44443 12.567 4.46331C12.5873 4.46504 12.6061 4.47476 12.6192 4.49035C12.6324 4.50593 12.6388 4.5261 12.6371 4.54641C12.6353 4.56672 12.6256 4.58552 12.61 4.59866C12.5944 4.6118 12.5743 4.61821 12.554 4.61649L12.5563 4.61189Z" fill="#093F68"/>
<path d="M14.8172 3.76099C14.8172 3.76099 15.3403 3.56186 15.4827 4.01909C15.6252 4.47633 15.2254 5.09746 14.5361 4.71758" fill="#FFC9B0"/>
<path d="M14.9428 4.90983C14.7864 4.90577 14.6336 4.8623 14.4985 4.78346C14.4808 4.7733 14.4678 4.7565 14.4624 4.73675C14.457 4.717 14.4597 4.69592 14.4698 4.67815C14.48 4.66037 14.4968 4.64736 14.5165 4.64198C14.5363 4.63659 14.5574 4.63927 14.5751 4.64943C14.8332 4.79112 15.0684 4.79341 15.2376 4.65555C15.322 4.58061 15.3832 4.48312 15.414 4.37457C15.4448 4.26602 15.4439 4.15092 15.4115 4.04284C15.4005 3.99787 15.3801 3.95576 15.3516 3.9193C15.323 3.88285 15.2871 3.85291 15.2461 3.83146C15.076 3.74874 14.8493 3.83146 14.847 3.83146C14.8376 3.83503 14.8276 3.83672 14.8176 3.83642C14.8075 3.83612 14.7976 3.83384 14.7884 3.82971C14.7792 3.82559 14.771 3.8197 14.7641 3.81237C14.7572 3.80505 14.7518 3.79644 14.7482 3.78704C14.7447 3.77763 14.743 3.76762 14.7433 3.75756C14.7436 3.74751 14.7458 3.73761 14.75 3.72844C14.7541 3.71926 14.76 3.71099 14.7673 3.70409C14.7746 3.6972 14.7832 3.69181 14.7926 3.68824C14.8041 3.68824 15.0829 3.58025 15.3119 3.68824C15.3724 3.71881 15.4256 3.76196 15.468 3.8148C15.5104 3.86764 15.541 3.92895 15.5578 3.99459C15.6004 4.1321 15.6019 4.27906 15.5622 4.41743C15.5225 4.5558 15.4432 4.67956 15.3341 4.7735C15.224 4.86401 15.0853 4.91234 14.9428 4.90983Z" fill="#093F68"/>
<path d="M12.9392 3.30606C12.8986 3.30657 12.8594 3.29092 12.8303 3.26255C12.8012 3.23418 12.7846 3.19542 12.7841 3.1548C12.7836 3.11417 12.7992 3.07501 12.8276 3.04592C12.856 3.01684 12.8947 3.00021 12.9354 2.9997L13.7127 2.98056C13.7534 2.97944 13.7928 2.99451 13.8223 3.02244C13.8518 3.05038 13.869 3.0889 13.8701 3.12952C13.8712 3.17015 13.8562 3.20955 13.8282 3.23907C13.8003 3.26859 13.7618 3.28579 13.7212 3.28691L12.943 3.30682L12.9392 3.30606Z" fill="#093F68"/>
<path d="M13.1245 3.81537C13.2256 3.81537 13.3076 3.73342 13.3076 3.63233C13.3076 3.53123 13.2256 3.44928 13.1245 3.44928C13.0235 3.44928 12.9415 3.53123 12.9415 3.63233C12.9415 3.73342 13.0235 3.81537 13.1245 3.81537Z" fill="#093F68"/>
<path d="M12.9239 5.17712C12.8723 5.17794 12.8208 5.17202 12.7707 5.15951C12.7522 5.15312 12.7368 5.13986 12.7277 5.12246C12.7187 5.10507 12.7166 5.08486 12.722 5.066C12.7274 5.04714 12.7398 5.03108 12.7567 5.02112C12.7736 5.01115 12.7937 5.00805 12.8128 5.01246C12.8304 5.01782 13.2433 5.12657 13.4194 4.61649C13.4224 4.60664 13.4273 4.59749 13.4339 4.5896C13.4405 4.5817 13.4487 4.57521 13.4578 4.57053C13.467 4.56584 13.477 4.56305 13.4873 4.56232C13.4976 4.5616 13.5079 4.56295 13.5176 4.5663C13.5273 4.56965 13.5363 4.57492 13.544 4.58181C13.5516 4.5887 13.5578 4.59706 13.5621 4.60639C13.5665 4.61573 13.5689 4.62584 13.5692 4.63613C13.5696 4.64642 13.5679 4.65667 13.5642 4.66628C13.4133 5.10513 13.1085 5.17712 12.9239 5.17712Z" fill="#093F68"/>
<path d="M13.375 11.079L16.9616 10.2542L15.9399 6.98385C15.8527 6.58478 15.6105 6.23669 15.2667 6.0161C14.9229 5.79551 14.5055 5.72046 14.1064 5.80745L13.7457 5.88403C13.3466 5.97131 12.9985 6.21346 12.7779 6.55728C12.5573 6.9011 12.4823 7.31844 12.5693 7.71756L13.375 11.079Z" fill="#68E1FD"/>
<path d="M13.375 11.1556C13.3575 11.1561 13.3404 11.1506 13.3264 11.14C13.3125 11.1294 13.3026 11.1144 13.2984 11.0974L12.495 7.73823C12.4036 7.31901 12.4823 6.88067 12.7138 6.51941C12.9452 6.15814 13.3106 5.90346 13.7296 5.81126L14.0896 5.73467C14.2971 5.68924 14.5115 5.68513 14.7206 5.7226C14.9296 5.76006 15.1293 5.83836 15.3081 5.95301C15.4869 6.06767 15.6414 6.21643 15.7627 6.39081C15.884 6.56518 15.9697 6.76175 16.015 6.96928L17.0352 10.2327C17.0383 10.2428 17.0392 10.2535 17.038 10.264C17.0368 10.2745 17.0334 10.2846 17.0281 10.2938C17.0228 10.3029 17.0156 10.3108 17.0071 10.3171C16.9986 10.3233 16.9888 10.3277 16.9785 10.33L13.3918 11.1556H13.375ZM14.438 5.84802C14.3319 5.84812 14.2261 5.85968 14.1225 5.88249L13.7625 5.95908C13.3833 6.04231 13.0526 6.2726 12.8429 6.5994C12.6333 6.92621 12.5619 7.32283 12.6443 7.70223L13.4317 10.9864L16.8636 10.1944L15.8679 7.00374C15.7978 6.67646 15.6178 6.38302 15.3578 6.17222C15.0978 5.96141 14.7735 5.84593 14.4388 5.84496L14.438 5.84802Z" fill="#093F68"/>
<path d="M13.1429 6.71577C13.1429 6.71577 11.1011 9.00577 9.65967 9.96466L10.0503 10.9465C10.0503 10.9465 12.9392 9.71805 13.6744 8.15794" fill="#68E1FD"/>
<path d="M10.0503 11.0254C10.04 11.0252 10.0299 11.0232 10.0204 11.0193C10.0111 11.0154 10.0026 11.0096 9.99552 11.0024C9.98842 10.9951 9.98282 10.9866 9.97906 10.9772L9.58846 9.99531C9.58204 9.97897 9.58144 9.96093 9.58673 9.9442C9.59203 9.92747 9.60291 9.91307 9.61756 9.9034C11.0344 8.9583 13.064 6.68668 13.0855 6.66523C13.092 6.65713 13.1001 6.65043 13.1093 6.64555C13.1184 6.64067 13.1285 6.63771 13.1389 6.63684C13.1492 6.63598 13.1597 6.63724 13.1695 6.64054C13.1794 6.64384 13.1885 6.64911 13.1962 6.65603C13.204 6.66296 13.2102 6.67138 13.2146 6.68081C13.219 6.69023 13.2215 6.70045 13.2218 6.71084C13.2221 6.72123 13.2203 6.73158 13.2165 6.74125C13.2127 6.75092 13.2069 6.75972 13.1996 6.7671C13.1797 6.78931 11.1846 9.02033 9.75312 9.99607L10.0909 10.8462C10.5397 10.644 12.9507 9.50514 13.604 8.12501C13.6083 8.11588 13.6144 8.1077 13.622 8.10094C13.6295 8.09418 13.6383 8.08898 13.6478 8.08564C13.6574 8.08229 13.6675 8.08087 13.6776 8.08145C13.6877 8.08203 13.6975 8.0846 13.7066 8.08902C13.7249 8.09779 13.7389 8.11343 13.7456 8.13252C13.7524 8.15161 13.7513 8.17259 13.7426 8.19088C13.4301 8.85107 12.7171 9.52888 11.6249 10.2036C11.1286 10.5097 10.6122 10.7822 10.0794 11.0193C10.0702 11.0232 10.0603 11.0253 10.0503 11.0254Z" fill="#093F68"/>
<path d="M14.3737 1.57362C14.6709 1.61268 14.978 1.54835 15.2621 1.67855C16.1667 2.09213 16.4983 3.44009 16.6407 4.32698C16.6989 4.68695 16.7273 5.05994 16.6338 5.41224C16.5616 5.66524 16.434 5.89898 16.2602 6.0965C16.0864 6.29402 15.8708 6.45036 15.629 6.55418C15.1393 6.75831 14.5905 6.7698 14.0926 6.58635C13.9428 6.53967 13.8059 6.45863 13.6928 6.34969C13.4493 6.09388 13.457 5.6826 13.5841 5.35404C13.7112 5.02547 13.9379 4.74133 14.1011 4.43497C14.2679 4.1055 14.3395 3.73603 14.3079 3.36809C14.2634 2.96294 14.0015 2.87793 13.6415 2.8381C13.5458 2.82738 13.0702 2.47967 13.1383 2.37857C13.0533 2.50341 12.8917 2.544 12.7439 2.57617C12.7301 2.57617 12.7102 2.57617 12.7064 2.56468C12.7056 2.56063 12.7056 2.55647 12.7064 2.55243C12.8442 1.857 13.7449 1.49167 14.3737 1.57362Z" fill="#725858"/>
<path d="M14.8325 6.79237C14.5714 6.79214 14.3123 6.7468 14.0666 6.65834C13.9057 6.60701 13.7587 6.5195 13.6369 6.40253C13.3528 6.10383 13.3926 5.63664 13.5129 5.32569C13.5987 5.12321 13.7036 4.92934 13.8261 4.74668C13.8973 4.63257 13.9709 4.51692 14.0337 4.39591C14.1929 4.07965 14.2615 3.72552 14.232 3.37268C14.1945 3.03416 14.0023 2.95145 13.6331 2.91315C13.5343 2.90243 13.2195 2.68339 13.1031 2.52255C12.9986 2.58792 12.8818 2.63143 12.76 2.65045C12.7474 2.65473 12.734 2.65643 12.7208 2.65545C12.7075 2.65448 12.6945 2.65085 12.6827 2.64478C12.6708 2.63871 12.6603 2.63032 12.6517 2.62011C12.6432 2.60991 12.6368 2.59809 12.6329 2.58535C12.6291 2.56949 12.6291 2.55296 12.6329 2.5371C12.786 1.77122 13.7556 1.41891 14.3844 1.50086C14.4846 1.51183 14.5854 1.51694 14.6862 1.51618C14.8869 1.51618 15.0944 1.51618 15.2951 1.61191C16.0028 1.93588 16.4814 2.84575 16.7173 4.31779C16.7679 4.6318 16.8123 5.04232 16.7089 5.43445C16.6345 5.69909 16.5017 5.94367 16.3202 6.15018C16.1387 6.35669 15.9133 6.51987 15.6604 6.6277C15.3987 6.73893 15.1168 6.79499 14.8325 6.79237ZM13.2103 2.40307C13.241 2.48885 13.5665 2.74083 13.6515 2.75844C13.977 2.79444 14.3308 2.87333 14.3837 3.35583C14.4184 3.73883 14.344 4.12382 14.1692 4.46637C14.1041 4.59121 14.0291 4.71145 13.9563 4.82787C13.8386 5.0022 13.7378 5.18736 13.6553 5.38084C13.5519 5.6489 13.5136 6.05022 13.748 6.2999C13.8527 6.40075 13.9797 6.47553 14.1187 6.51818C14.598 6.6955 15.1266 6.68483 15.5984 6.48831C15.8291 6.38817 16.0348 6.23837 16.2009 6.04959C16.3671 5.86081 16.4895 5.63769 16.5596 5.39616C16.6561 5.03159 16.6132 4.64176 16.5657 4.34306C16.3359 2.92464 15.8886 2.05306 15.2307 1.75207C15.06 1.67548 14.8769 1.67548 14.6839 1.67012C14.5769 1.67092 14.47 1.66529 14.3638 1.65327C13.8276 1.58357 12.9898 1.87461 12.8029 2.48502C12.9086 2.46971 13.0054 2.41699 13.0755 2.33644C13.0861 2.32097 13.102 2.30993 13.1202 2.30539C13.1384 2.30085 13.1576 2.30314 13.1742 2.31183C13.1908 2.32051 13.2037 2.33498 13.2103 2.3525C13.217 2.37003 13.217 2.38938 13.2103 2.4069V2.40307Z" fill="#093F68"/>
<path d="M9.72249 9.95547C9.39229 10.0287 9.06735 10.1239 8.74982 10.2404C8.25888 10.4211 7.85679 10.7237 8.12715 10.9925C8.26195 11.1273 8.62881 10.9243 9.05311 10.9044C9.47741 10.8845 9.81899 10.994 10.0526 10.9488L9.72249 9.95547Z" fill="#FFC9B0"/>
<path d="M8.26271 11.1135C8.22772 11.1158 8.19262 11.1109 8.15957 11.0992C8.12652 11.0875 8.0962 11.0692 8.07047 11.0453C8.02838 11.0086 7.99672 10.9615 7.9787 10.9086C7.96068 10.8558 7.95693 10.7991 7.96784 10.7443C8.03294 10.4495 8.51622 10.2419 8.72148 10.1669C9.04259 10.0494 9.37111 9.95317 9.70487 9.87889C9.72329 9.87514 9.74245 9.8783 9.75869 9.88776C9.77493 9.89722 9.78713 9.91233 9.79295 9.9302L10.123 10.9259C10.1264 10.9362 10.1276 10.9472 10.1264 10.958C10.1252 10.9688 10.1217 10.9793 10.1162 10.9887C10.1107 10.9981 10.1033 11.0062 10.0945 11.0126C10.0856 11.0189 10.0755 11.0233 10.0648 11.0254C9.91315 11.0434 9.75964 11.0393 9.60914 11.0132C9.4255 10.9874 9.24 10.9771 9.05464 10.9825C8.89683 10.9932 8.7404 11.0188 8.58745 11.0591C8.48146 11.0888 8.37259 11.107 8.26271 11.1135ZM9.66964 10.0413C9.3661 10.1123 9.06711 10.2015 8.77432 10.3085C8.40823 10.4426 8.15013 10.6264 8.11796 10.775C8.11289 10.8045 8.11583 10.8349 8.12647 10.8629C8.13711 10.8909 8.15507 10.9155 8.17846 10.9343C8.22825 10.9841 8.38525 10.9465 8.55222 10.9067C8.7142 10.8638 8.87984 10.8361 9.04698 10.824C9.24077 10.8183 9.43471 10.8288 9.62675 10.8554C9.73306 10.8706 9.84028 10.8785 9.94766 10.8791L9.66964 10.0413Z" fill="#093F68"/>
<path d="M4.47922 6.40407C4.47922 6.40407 6.03397 8.67032 7.74496 9.78392L7.34823 10.7589C7.34823 10.7589 4.7626 9.93633 3.52646 7.73977" fill="#68E1FD"/>
<path d="M7.34824 10.8355C7.34018 10.8353 7.33219 10.834 7.3245 10.8317C7.29846 10.8232 4.69674 9.97539 3.45984 7.7773C3.45481 7.76855 3.45155 7.75889 3.45025 7.74889C3.44896 7.73888 3.44964 7.72871 3.45227 7.71897C3.4549 7.70923 3.45943 7.70009 3.46559 7.6921C3.47175 7.68411 3.47942 7.6774 3.48817 7.67237C3.49692 7.66735 3.50658 7.66409 3.51659 7.66279C3.5266 7.66149 3.53676 7.66218 3.54651 7.66481C3.55625 7.66744 3.56538 7.67197 3.57337 7.67813C3.58137 7.68429 3.58807 7.69196 3.5931 7.70071C4.69061 9.65066 6.89254 10.5138 7.30458 10.6609L7.65459 9.81149C5.96964 8.691 4.43787 6.4684 4.41949 6.44619C4.40831 6.42943 4.40418 6.40893 4.40801 6.38915C4.41184 6.36937 4.4233 6.35189 4.43993 6.3405C4.45655 6.32912 4.477 6.32474 4.49683 6.32832C4.51666 6.33191 4.53427 6.34316 4.54586 6.35964C4.56118 6.38186 6.1121 8.6259 7.79092 9.71806C7.80574 9.72776 7.81674 9.74229 7.82204 9.75919C7.82735 9.77608 7.82664 9.7943 7.82002 9.81073L7.42483 10.7872C7.41884 10.8024 7.40819 10.8152 7.39442 10.8239C7.38065 10.8326 7.36448 10.8366 7.34824 10.8355Z" fill="#093F68"/>
<path d="M8.2673 9.89727C8.44882 10.0642 8.50473 10.3568 8.61195 10.5743C8.6594 10.693 8.72819 10.8021 8.81491 10.896C8.88178 10.9534 8.96585 10.987 9.05389 10.9914C9.14193 10.9959 9.22894 10.9709 9.30125 10.9205C9.34438 10.8968 9.38218 10.8645 9.4123 10.8255C9.45165 10.7578 9.47029 10.6801 9.46591 10.6019C9.47075 10.4058 9.44491 10.2102 9.38933 10.0221C9.40828 10.0436 9.43199 10.0605 9.45858 10.0712C9.48517 10.082 9.51391 10.0864 9.5425 10.0842C9.54836 10.0425 9.54449 10.0001 9.53121 9.96027C9.51792 9.9204 9.49557 9.88416 9.46591 9.85439C9.38044 9.74159 9.27935 9.64154 9.16569 9.55722C9.09829 9.51357 8.96273 9.40404 8.88537 9.38566C8.62497 9.32363 8.46797 9.50438 8.21675 9.58479C7.96554 9.66521 8.25888 9.88808 8.2673 9.89727Z" fill="#FFC9B0"/>
<path d="M9.06382 11.0683C8.95299 11.0693 8.84602 11.0277 8.76512 10.9519C8.67763 10.8603 8.60778 10.7533 8.5591 10.6364L8.54531 10.608C8.51008 10.536 8.48021 10.4548 8.45111 10.3783C8.39137 10.2189 8.32933 10.0543 8.22134 9.95242C8.08655 9.83805 8.02808 9.73593 8.04595 9.64606C8.05454 9.61139 8.07288 9.57991 8.09881 9.55534C8.12473 9.53077 8.15716 9.51415 8.19224 9.50744C8.26706 9.48108 8.33956 9.44854 8.40898 9.41017C8.55221 9.33358 8.70079 9.257 8.90145 9.30678C8.98928 9.33833 9.07093 9.38498 9.1427 9.44464L9.20551 9.48829C9.32664 9.5772 9.43422 9.68323 9.52488 9.80307C9.58079 9.87506 9.65202 9.98459 9.61525 10.1033C9.61077 10.1182 9.60185 10.1314 9.58967 10.1411C9.57749 10.1509 9.56263 10.1566 9.54709 10.1577C9.53358 10.1588 9.52 10.1588 9.5065 10.1577C9.53712 10.3034 9.551 10.4522 9.54786 10.6011C9.55238 10.6944 9.52891 10.787 9.48046 10.8669C9.44437 10.9148 9.39873 10.9547 9.34643 10.9841C9.26167 11.0374 9.16394 11.0665 9.06382 11.0683ZM8.77584 9.4477C8.66921 9.45674 8.56641 9.4917 8.47638 9.54956C8.39935 9.59228 8.3186 9.62791 8.23513 9.65602C8.20373 9.66598 8.19377 9.6767 8.193 9.679C8.19224 9.6813 8.21215 9.74869 8.31555 9.83218L8.32091 9.83754C8.45953 9.96391 8.52846 10.1439 8.59509 10.3223C8.62077 10.3953 8.65017 10.4669 8.68317 10.5368L8.69696 10.5651C8.73745 10.6652 8.79584 10.7571 8.86928 10.8363C8.92407 10.8822 8.99258 10.9085 9.064 10.9111C9.13543 10.9138 9.20569 10.8925 9.26371 10.8508C9.29844 10.8322 9.32855 10.806 9.35179 10.7742C9.38219 10.7191 9.39602 10.6563 9.39161 10.5935C9.39496 10.4053 9.36912 10.2177 9.31503 10.0374C9.30989 10.0207 9.31066 10.0026 9.31722 9.98636C9.32378 9.97009 9.33572 9.95656 9.35106 9.94804C9.36639 9.93952 9.38419 9.93653 9.40147 9.93955C9.41875 9.94258 9.43447 9.95145 9.44599 9.96467C9.43236 9.93751 9.41593 9.91185 9.39698 9.88808C9.31696 9.78187 9.22233 9.6875 9.1159 9.60777C9.09752 9.59552 9.07301 9.57867 9.04697 9.55952C8.98933 9.51414 8.92631 9.47607 8.85932 9.44617C8.83152 9.44376 8.80354 9.44428 8.77584 9.4477Z" fill="#093F68"/>
<path d="M10.2977 9.39409C10.2773 9.39409 10.2579 9.38602 10.2435 9.37165C10.2291 9.35729 10.2211 9.33781 10.2211 9.3175C10.2471 8.43213 10.2731 6.98537 10.2318 6.8322C10.2219 6.81612 10.2183 6.79696 10.2216 6.77838C10.225 6.7598 10.2351 6.74312 10.25 6.73154C10.2649 6.71995 10.2836 6.71428 10.3024 6.71561C10.3212 6.71695 10.3389 6.72519 10.352 6.73876C10.3804 6.76786 10.4478 6.83526 10.3742 9.32209C10.3731 9.3416 10.3645 9.35992 10.3502 9.3733C10.336 9.38668 10.3172 9.39412 10.2977 9.39409Z" fill="#093F68"/>
<path d="M7.29768 5.69102C7.29768 5.69102 6.32424 7.02673 6.27599 8.05378C6.22774 9.08084 8.26729 9.89727 8.26729 9.89727C8.26729 9.89727 8.25427 9.7732 8.56216 9.54267C8.87005 9.31213 8.97497 9.39715 8.97497 9.39715C8.97497 9.39715 7.62012 8.82809 7.53894 8.05378C7.4723 7.41427 8.0337 6.40406 8.0337 6.40406" fill="#68E1FD"/>
<path d="M8.27418 9.97539C8.2626 9.9754 8.25113 9.97305 8.24048 9.9685C8.15547 9.9348 6.15344 9.1199 6.20169 8.05379C6.24841 7.01525 7.19735 5.70405 7.23564 5.6489C7.24156 5.64074 7.24904 5.63383 7.25764 5.62856C7.26624 5.62329 7.27579 5.61977 7.28575 5.61821C7.29571 5.61664 7.30589 5.61706 7.31569 5.61944C7.32549 5.62181 7.33472 5.6261 7.34286 5.63205C7.35103 5.63798 7.35794 5.64545 7.36321 5.65405C7.36848 5.66265 7.372 5.67221 7.37356 5.68217C7.37513 5.69213 7.37471 5.7023 7.37233 5.7121C7.36996 5.72191 7.36567 5.73114 7.35971 5.73928C7.34823 5.7523 6.39929 7.06503 6.35257 8.05762C6.31351 8.90928 7.85371 9.63458 8.21827 9.79388C8.29269 9.66854 8.39455 9.5617 8.5162 9.4814C8.57759 9.43391 8.64352 9.3926 8.71303 9.35809C8.31171 9.15207 7.52744 8.67492 7.46311 8.06221C7.39418 7.40585 7.94332 6.40943 7.96706 6.36731C7.97194 6.3585 7.9785 6.35075 7.98637 6.34448C7.99425 6.33821 8.00328 6.33356 8.01295 6.33079C8.02263 6.32801 8.03275 6.32717 8.04275 6.32831C8.05275 6.32945 8.06242 6.33255 8.07122 6.33744C8.08887 6.34741 8.10185 6.36398 8.1073 6.3835C8.11276 6.40303 8.11025 6.42392 8.10033 6.4416C8.09497 6.45155 7.55119 7.43725 7.61552 8.04613C7.68368 8.70096 8.76894 9.22023 8.9719 9.31214C8.9906 9.31686 9.00808 9.32547 9.02322 9.33741C9.03755 9.349 9.04723 9.36537 9.05046 9.38352C9.0537 9.40167 9.05028 9.42038 9.04083 9.43621C9.03137 9.45214 9.01646 9.4641 8.99886 9.46987C8.98125 9.47564 8.96215 9.47484 8.9451 9.46761L8.92518 9.45919C8.88919 9.45306 8.78733 9.46914 8.60811 9.60394C8.35537 9.79311 8.34311 9.89574 8.34311 9.89727C8.34449 9.90981 8.34244 9.92249 8.33718 9.93395C8.33192 9.94542 8.32365 9.95524 8.31324 9.96237C8.30188 9.97064 8.28823 9.97518 8.27418 9.97539Z" fill="#093F68"/>
</svg>
