<svg width="28" height="27" viewBox="0 0 28 27" fill="none" xmlns="http://www.w3.org/2000/svg">
<path d="M16.3212 10.5877L13.6571 6.18964L10.9929 10.5877L5.98685 11.7624L9.34639 15.6552L8.91661 20.7793L13.6571 18.787L18.3975 20.7793L17.9677 15.6552L21.3272 11.7624L16.3212 10.5877Z" fill="black"/>
<path fill-rule="evenodd" clip-rule="evenodd" d="M11.9326 0.971612C12.7173 -0.323872 14.5969 -0.32387 15.3816 0.971612L18.5464 6.19611C18.8271 6.65963 19.2827 6.99061 19.8103 7.11441L25.7569 8.50978C27.2316 8.85579 27.8125 10.6434 26.8229 11.79L22.832 16.4143C22.4779 16.8246 22.3039 17.3601 22.3493 17.9002L22.8598 23.9871C22.9864 25.4964 21.4658 26.6011 20.0695 26.0144L14.4382 23.6478C13.9386 23.4379 13.3755 23.4379 12.8759 23.6478L7.24473 26.0144C5.84841 26.6011 4.32781 25.4964 4.45441 23.9871L4.96496 17.9001C5.01026 17.3601 4.83626 16.8246 4.48219 16.4143L0.491349 11.79C-0.498226 10.6434 0.082592 8.85579 1.55716 8.50978L7.50392 7.11441C8.0315 6.99061 8.48705 6.65963 8.76783 6.19611L11.9326 0.971612ZM13.6571 2.01624L16.8218 7.24072C17.3834 8.16777 18.2945 8.82972 19.3497 9.07731L25.2964 10.4727L21.3057 15.097C20.5974 15.9176 20.2494 16.9886 20.3401 18.0687L20.8506 24.1556L15.2194 21.789C14.2202 21.3692 13.094 21.3692 12.0948 21.789L6.46358 24.1556L6.97413 18.0687C7.06474 16.9886 6.71672 15.9176 6.0086 15.097L2.01775 10.4727L7.9645 9.07731C9.0197 8.82972 9.9308 8.16777 10.4924 7.24072L13.6571 2.01624Z" fill="black"/>
</svg>
