<svg width="18" height="17" viewBox="0 0 18 17" fill="none" xmlns="http://www.w3.org/2000/svg">
<path d="M5.20214 4.79639H12.4017C13.9851 4.79639 15.2155 6.11587 15.0341 7.62163L14.2547 14.1079H3.34914L2.56971 7.62163C2.38833 6.11587 3.61876 4.79639 5.20214 4.79639Z" fill="#093F68"/>
<path d="M14.2547 14.1896H3.34913C3.32893 14.1898 3.3094 14.1824 3.29432 14.169C3.27923 14.1555 3.26965 14.137 3.26743 14.1169L2.48717 7.63144C2.44352 7.27311 2.4774 6.90959 2.5865 6.5655C2.69561 6.22142 2.87739 5.9048 3.11955 5.6371C3.38169 5.34501 3.70275 5.11179 4.06158 4.95279C4.4204 4.7938 4.80884 4.71265 5.20131 4.71468H12.4009C12.7933 4.71265 13.1818 4.7938 13.5406 4.95279C13.8994 5.11179 14.2205 5.34501 14.4826 5.6371C14.7248 5.9048 14.9066 6.22142 15.0157 6.5655C15.1248 6.90959 15.1587 7.27311 15.115 7.63144L14.3348 14.1169C14.3326 14.1367 14.3232 14.155 14.3085 14.1684C14.2937 14.1818 14.2746 14.1894 14.2547 14.1896ZM3.42184 14.0262H14.182L14.9532 7.61183C14.994 7.27657 14.9623 6.93645 14.8603 6.61451C14.7582 6.29256 14.5882 5.99629 14.3617 5.74576C14.1148 5.47075 13.8123 5.25122 13.4743 5.10165C13.1363 4.95209 12.7705 4.87589 12.4009 4.87809H5.20213C4.83252 4.87589 4.46666 4.95209 4.12866 5.10165C3.79066 5.25122 3.48822 5.47075 3.24128 5.74576C3.01479 5.99629 2.84477 6.29256 2.74272 6.61451C2.64066 6.93645 2.60896 7.27657 2.64976 7.61183L3.42184 14.0262Z" fill="#093F68"/>
<path d="M7.35744 8.93294H10.2464C10.992 8.93294 11.7071 9.22913 12.2343 9.75637C12.7616 10.2836 13.0578 10.9987 13.0578 11.7443V15.2575H4.54608V11.7443C4.54608 10.9987 4.84228 10.2836 5.36951 9.75637C5.89674 9.22913 6.61182 8.93294 7.35744 8.93294Z" fill="#68E1FD"/>
<path d="M13.0578 15.3359H4.54606C4.52439 15.3359 4.50361 15.3273 4.48829 15.312C4.47296 15.2967 4.46436 15.2759 4.46436 15.2542V11.741C4.465 10.9739 4.77002 10.2385 5.31243 9.69605C5.85484 9.15364 6.59033 8.84863 7.35742 8.84798H10.2464C11.0135 8.84863 11.749 9.15364 12.2914 9.69605C12.8338 10.2385 13.1388 10.9739 13.1395 11.741V15.2542C13.1395 15.2759 13.1308 15.2967 13.1155 15.312C13.1002 15.3273 13.0794 15.3359 13.0578 15.3359ZM4.62776 15.1725H12.976V11.741C12.9752 11.0174 12.6873 10.3236 12.1756 9.81183C11.6639 9.30011 10.9701 9.01225 10.2464 9.01138H7.35742C6.63373 9.01225 5.93994 9.30011 5.42821 9.81183C4.91649 10.3236 4.62862 11.0174 4.62776 11.741V15.1725Z" fill="#093F68"/>
<path d="M11.9548 4.79638C11.9548 4.79638 12.472 3.03734 12.2653 2.43275C12.2288 2.32337 12.1633 2.22594 12.0758 2.15084C11.9884 2.07573 11.8821 2.02577 11.7685 2.00627C11.7685 2.00627 11.4033 1.13696 10.1476 0.930253C8.89179 0.723547 5.84922 1.81999 5.08204 1.15738C5.08204 1.15738 4.77157 1.9646 5.59921 2.66887C5.41293 3.98263 5.76262 4.70651 5.76262 4.70651L11.9548 4.79638Z" fill="#725858"/>
<path d="M11.9548 4.87808L5.76506 4.78413C5.74994 4.78378 5.73521 4.77924 5.72252 4.77102C5.70983 4.7628 5.69966 4.75121 5.69316 4.73756C5.67846 4.70733 5.34021 3.99325 5.51424 2.69501C4.69722 1.96868 5.00442 1.13042 5.00768 1.12225C5.01229 1.10988 5.01983 1.09881 5.02964 1.08999C5.03946 1.08117 5.05127 1.07486 5.06406 1.0716C5.07673 1.06858 5.08995 1.06863 5.1026 1.07176C5.11525 1.07489 5.12696 1.08099 5.13677 1.08957C5.551 1.44743 6.74385 1.24399 7.89748 1.04709C8.78231 0.895938 9.61812 0.753777 10.1606 0.842832C11.3044 1.03156 11.7334 1.74564 11.8249 1.92701C11.9449 1.95527 12.0555 2.01404 12.1462 2.09764C12.2368 2.18123 12.3042 2.28682 12.3421 2.40415C12.5553 3.0259 12.0545 4.74409 12.0332 4.81681C12.0287 4.83423 12.0186 4.84969 12.0044 4.86077C11.9902 4.87185 11.9728 4.87794 11.9548 4.87808ZM5.82144 4.62072L11.8935 4.71305C11.9801 4.40258 12.3633 2.97035 12.1876 2.45889C12.1571 2.36305 12.1011 2.27733 12.0255 2.21096C11.9499 2.1446 11.8577 2.1001 11.7587 2.08225C11.7445 2.08053 11.7309 2.0751 11.7195 2.06649C11.708 2.05789 11.699 2.04642 11.6933 2.03323C11.6933 2.02506 11.3265 1.20232 10.1337 1.00624C9.61812 0.920448 8.7578 1.06751 7.92771 1.20967C6.76264 1.40821 5.65803 1.59694 5.13351 1.28647C5.08285 1.51605 5.04363 2.08797 5.65395 2.60187C5.66451 2.61088 5.67261 2.62244 5.67747 2.63545C5.68233 2.64846 5.68379 2.66249 5.68172 2.67622C5.52731 3.76531 5.75199 4.44588 5.82144 4.62072Z" fill="#093F68"/>
<path d="M8.80192 15.3359C8.78025 15.3359 8.75947 15.3273 8.74414 15.312C8.72882 15.2967 8.72021 15.2759 8.72021 15.2542V12.9903C8.72021 12.9686 8.72882 12.9478 8.74414 12.9325C8.75947 12.9172 8.78025 12.9086 8.80192 12.9086C8.82359 12.9086 8.84437 12.9172 8.85969 12.9325C8.87501 12.9478 8.88362 12.9686 8.88362 12.9903V15.2542C8.88362 15.2759 8.87501 15.2967 8.85969 15.312C8.84437 15.3273 8.82359 15.3359 8.80192 15.3359Z" fill="#093F68"/>
<path d="M10.592 8.93294L9.37874 12.4486L8.80193 14.1218L8.22511 12.4486L7.01184 8.93294H10.592Z" fill="white"/>
<path d="M8.80193 14.2035C8.7849 14.2036 8.76826 14.1984 8.75435 14.1886C8.74043 14.1788 8.72993 14.1649 8.72431 14.1488L6.93422 8.95909C6.93017 8.9468 6.9291 8.93373 6.93109 8.92094C6.93307 8.90816 6.93807 8.89603 6.94566 8.88556C6.95318 8.875 6.9631 8.86638 6.97461 8.86041C6.98612 8.85444 6.99888 8.8513 7.01184 8.85124H10.592C10.605 8.8513 10.6177 8.85444 10.6292 8.86041C10.6408 8.86638 10.6507 8.875 10.6582 8.88556C10.6658 8.89603 10.6708 8.90816 10.6728 8.92094C10.6748 8.93373 10.6737 8.9468 10.6696 8.95909L8.88363 14.1488C8.8778 14.1655 8.86668 14.18 8.85194 14.1898C8.8372 14.1997 8.81964 14.2045 8.80193 14.2035ZM7.12622 9.01465L8.80193 13.871L10.4776 9.01465H7.12622Z" fill="#093F68"/>
<path d="M9.04703 9.8815H8.55682L8.13034 8.34714H9.47352L9.04703 9.8815Z" fill="#F56132"/>
<path d="M9.04702 9.96321H8.5568C8.53847 9.96388 8.52043 9.95837 8.50561 9.94755C8.49079 9.93673 8.48004 9.92124 8.4751 9.90356L8.04862 8.36839C8.04587 8.35596 8.04606 8.34306 8.04919 8.33072C8.05231 8.31838 8.05827 8.30693 8.06659 8.29731C8.0742 8.28742 8.08398 8.27941 8.09517 8.27388C8.10636 8.26836 8.11866 8.26547 8.13114 8.26544H9.47432C9.48679 8.26547 9.4991 8.26836 9.51029 8.27388C9.52147 8.27941 9.53125 8.28742 9.53886 8.29731C9.54648 8.30729 9.5517 8.31889 9.55411 8.33122C9.55652 8.34355 9.55605 8.35627 9.55275 8.36839L9.12872 9.90356C9.12377 9.92124 9.11303 9.93673 9.09821 9.94755C9.08338 9.95837 9.06535 9.96388 9.04702 9.96321ZM8.6189 9.7998H8.98492L9.36565 8.42885H8.23817L8.6189 9.7998Z" fill="#093F68"/>
<path d="M9.37873 12.4486L8.80191 14.1218L8.2251 12.4486L8.55681 9.8815H9.0462L9.37873 12.4486Z" fill="#F56132"/>
<path d="M8.80191 14.2035C8.78488 14.2036 8.76825 14.1984 8.75433 14.1886C8.74042 14.1788 8.72991 14.1649 8.72429 14.1488L8.1483 12.4755C8.14414 12.4638 8.14274 12.4512 8.14421 12.4388L8.4751 9.8717C8.47751 9.85178 8.48717 9.83343 8.50224 9.82017C8.51731 9.80691 8.53673 9.79966 8.55681 9.79981H9.04702C9.06709 9.79966 9.08651 9.80691 9.10158 9.82017C9.11665 9.83343 9.12631 9.85178 9.12872 9.8717L9.46125 12.438C9.46271 12.4504 9.46131 12.4629 9.45716 12.4747L8.88361 14.1488C8.87779 14.1656 8.86666 14.18 8.85192 14.1898C8.83718 14.1997 8.81963 14.2045 8.80191 14.2035ZM8.3117 12.4404L8.80191 13.871L9.29212 12.4396L8.97185 9.96321H8.62544L8.3117 12.4404Z" fill="#093F68"/>
<path d="M6.22342 5.84462C6.7121 5.84462 7.10825 5.46346 7.10825 4.99329C7.10825 4.52311 6.7121 4.14195 6.22342 4.14195C5.73474 4.14195 5.33859 4.52311 5.33859 4.99329C5.33859 5.46346 5.73474 5.84462 6.22342 5.84462Z" fill="#FFC9B0"/>
<path d="M6.22341 5.92795C6.0402 5.92154 5.86294 5.86134 5.71371 5.75487C5.56448 5.6484 5.44989 5.50037 5.38421 5.32922C5.31854 5.15807 5.3047 4.97137 5.3444 4.79241C5.38411 4.61344 5.47561 4.45012 5.6075 4.3228C5.73939 4.19548 5.90583 4.1098 6.08609 4.07643C6.26634 4.04305 6.45243 4.06347 6.62116 4.13514C6.78989 4.2068 6.93379 4.32654 7.03494 4.47943C7.13608 4.63232 7.18999 4.8116 7.18994 4.99492C7.18521 5.24672 7.0808 5.48637 6.8996 5.66129C6.7184 5.83621 6.47522 5.93211 6.22341 5.92795ZM6.22341 4.22447C6.07258 4.23087 5.92696 4.28144 5.80464 4.3699C5.68231 4.45836 5.58866 4.5808 5.53533 4.72202C5.48199 4.86325 5.47132 5.01703 5.50464 5.16426C5.53795 5.3115 5.61379 5.4457 5.72273 5.55021C5.83166 5.65471 5.9689 5.72491 6.1174 5.75209C6.26589 5.77926 6.41909 5.76221 6.55798 5.70306C6.69687 5.64391 6.81532 5.54526 6.89862 5.41937C6.98192 5.29347 7.0264 5.14588 7.02654 4.99492C7.02224 4.78609 6.93526 4.5875 6.78468 4.44274C6.63411 4.29799 6.43224 4.2189 6.22341 4.22284V4.22447Z" fill="#093F68"/>
<path d="M11.3804 5.84462C11.8691 5.84462 12.2653 5.46346 12.2653 4.99329C12.2653 4.52311 11.8691 4.14195 11.3804 4.14195C10.8918 4.14195 10.4956 4.52311 10.4956 4.99329C10.4956 5.46346 10.8918 5.84462 11.3804 5.84462Z" fill="#FFC9B0"/>
<path d="M11.3804 5.92795C11.1972 5.92154 11.0199 5.86134 10.8707 5.75487C10.7215 5.6484 10.6069 5.50037 10.5412 5.32922C10.4756 5.15807 10.4617 4.97137 10.5014 4.79241C10.5411 4.61344 10.6326 4.45012 10.7645 4.3228C10.8964 4.19548 11.0628 4.1098 11.2431 4.07643C11.4234 4.04305 11.6094 4.06347 11.7782 4.13514C11.9469 4.2068 12.0908 4.32654 12.192 4.47943C12.2931 4.63232 12.347 4.8116 12.347 4.99492C12.3422 5.24672 12.2378 5.48637 12.0566 5.66129C11.8754 5.83621 11.6322 5.93211 11.3804 5.92795ZM11.3804 4.22447C11.2296 4.23087 11.084 4.28144 10.9616 4.3699C10.8393 4.45836 10.7457 4.5808 10.6923 4.72202C10.639 4.86325 10.6283 5.01703 10.6616 5.16426C10.695 5.3115 10.7708 5.4457 10.8797 5.55021C10.9887 5.65471 11.1259 5.72491 11.2744 5.75209C11.4229 5.77926 11.5761 5.76221 11.715 5.70306C11.8539 5.64391 11.9723 5.54526 12.0556 5.41937C12.1389 5.29347 12.1834 5.14588 12.1835 4.99492C12.1793 4.78609 12.0923 4.5875 11.9417 4.44274C11.7911 4.29799 11.5893 4.2189 11.3804 4.22284V4.22447Z" fill="#093F68"/>
<path d="M10.5397 2.43356C10.6721 2.43356 10.8032 2.45964 10.9255 2.51031C11.0478 2.56097 11.159 2.63524 11.2526 2.72886C11.3462 2.82248 11.4205 2.93362 11.4712 3.05594C11.5218 3.17826 11.5479 3.30936 11.5479 3.44176V6.17305C11.5479 6.86927 11.2713 7.53697 10.779 8.02927C10.2867 8.52156 9.61904 8.79813 8.92282 8.79813H8.6818C8.337 8.79824 7.99556 8.73042 7.67698 8.59855C7.3584 8.46667 7.06891 8.27333 6.82507 8.02955C6.58122 7.78578 6.38778 7.49636 6.25581 7.17782C6.12383 6.85928 6.05591 6.51785 6.05591 6.17305V3.44176C6.05591 3.3093 6.08201 3.17813 6.13273 3.05575C6.18345 2.93338 6.25779 2.8222 6.35149 2.72857C6.4452 2.63494 6.55644 2.56069 6.67885 2.51007C6.80127 2.45945 6.93246 2.43346 7.06493 2.43356H10.5397Z" fill="#FFC9B0"/>
<path d="M8.92283 8.87576H8.68181C7.96476 8.87511 7.27719 8.59031 6.76969 8.08374C6.2622 7.57716 5.97616 6.89011 5.97421 6.17306V3.44177C5.97465 3.1527 6.08973 2.87561 6.2942 2.67128C6.49868 2.46696 6.77586 2.35208 7.06493 2.35187H10.5397C10.8286 2.3523 11.1056 2.46727 11.3099 2.67157C11.5142 2.87587 11.6292 3.15284 11.6296 3.44177V6.17306C11.6279 6.89004 11.342 7.57709 10.8347 8.08369C10.3273 8.59028 9.63981 8.87511 8.92283 8.87576ZM7.06493 2.51527C6.81913 2.51527 6.58339 2.61286 6.40951 2.78659C6.23563 2.96032 6.13783 3.19597 6.13762 3.44177V6.17306C6.13848 6.84748 6.40683 7.49402 6.8838 7.97083C7.36076 8.44764 8.00739 8.71579 8.68181 8.71644H8.92283C9.59711 8.71557 10.2435 8.44733 10.7203 7.97055C11.1971 7.49376 11.4653 6.84734 11.4662 6.17306V3.44177C11.466 3.19611 11.3683 2.96058 11.1946 2.78688C11.0209 2.61317 10.7854 2.51549 10.5397 2.51527H7.06493Z" fill="#093F68"/>
<path d="M7.44486 8.13881L7.01184 8.93213L7.40646 10.0751L8.65078 8.49993L7.44486 8.13881Z" fill="white"/>
<path d="M7.40646 10.1568H7.39258C7.37809 10.1544 7.36452 10.1481 7.35331 10.1386C7.34209 10.1291 7.33364 10.1168 7.32885 10.1029L6.93504 8.95909C6.93131 8.94828 6.92989 8.9368 6.93088 8.9254C6.93186 8.914 6.93523 8.90293 6.94076 8.89291L7.37297 8.09959C7.38194 8.08304 7.39636 8.0701 7.41378 8.06295C7.43119 8.05581 7.45055 8.0549 7.46856 8.06037L8.67366 8.4215C8.68641 8.42523 8.69807 8.43202 8.70761 8.44127C8.71715 8.45052 8.72428 8.46196 8.7284 8.4746C8.73253 8.48743 8.73342 8.50108 8.731 8.51434C8.72858 8.5276 8.72291 8.54005 8.71451 8.55058L7.47019 10.1258C7.46258 10.1354 7.4529 10.1432 7.44187 10.1486C7.43084 10.154 7.41874 10.1568 7.40646 10.1568ZM7.1009 8.93949L7.43506 9.90683L8.51189 8.54241L7.4849 8.23522L7.1009 8.93949Z" fill="#093F68"/>
<path d="M10.159 8.13881L10.592 8.93213L10.1982 10.0751L8.95389 8.49993L10.159 8.13881Z" fill="white"/>
<path d="M10.1982 10.1568C10.1858 10.1569 10.1735 10.1541 10.1624 10.1488C10.1512 10.1434 10.1414 10.1355 10.1337 10.1258L8.88934 8.55058C8.88094 8.54005 8.87528 8.5276 8.87285 8.51434C8.87043 8.50108 8.87132 8.48743 8.87545 8.4746C8.87957 8.46196 8.88671 8.45052 8.89625 8.44127C8.90579 8.43202 8.91744 8.42523 8.93019 8.4215L10.1353 8.06037C10.1533 8.0549 10.1727 8.05581 10.1901 8.06295C10.2075 8.0701 10.2219 8.08304 10.2309 8.09959L10.6639 8.89291C10.6693 8.90299 10.6725 8.91408 10.6734 8.92548C10.6742 8.93688 10.6727 8.94833 10.6688 8.95909L10.275 10.1029C10.2702 10.1168 10.2618 10.1291 10.2505 10.1386C10.2393 10.1481 10.2258 10.1544 10.2113 10.1568H10.1982ZM9.09196 8.54241L10.1696 9.90602L10.503 8.93867L10.119 8.23522L9.09196 8.54241Z" fill="#093F68"/>
<path d="M11.5479 5.19836V6.17306C11.5479 6.86928 11.2713 7.53698 10.779 8.02928C10.2867 8.52157 9.61904 8.79814 8.92282 8.79814H8.6818C8.337 8.79825 7.99556 8.73043 7.67698 8.59855C7.3584 8.46668 7.06891 8.27333 6.82507 8.02956C6.58122 7.78579 6.38778 7.49637 6.25581 7.17783C6.12383 6.85928 6.05591 6.51786 6.05591 6.17306V5.19264C6.3582 5.53416 6.81328 5.959 7.20872 5.959C7.87132 5.959 7.78799 5.35196 8.94733 5.49004C10.1067 5.62811 10.0781 6.20738 10.4923 6.12404C10.7203 6.08237 11.1794 5.61259 11.5479 5.19836Z" fill="#E28362"/>
<path d="M8.92283 8.87576H8.68181C7.96476 8.87511 7.27719 8.59031 6.76969 8.08374C6.2622 7.57717 5.97616 6.89011 5.97421 6.17306V5.19264C5.97416 5.17595 5.97922 5.15964 5.98871 5.14591C5.99821 5.13218 6.01168 5.12168 6.02732 5.11584C6.04277 5.11 6.05963 5.10898 6.07568 5.11292C6.09172 5.11686 6.1062 5.12557 6.11719 5.1379C6.53877 5.61504 6.92604 5.87322 7.20873 5.87322C7.45383 5.87322 7.58701 5.78089 7.73897 5.67386C7.97591 5.51046 8.24307 5.3201 8.95715 5.40507C9.65651 5.48677 9.94655 5.73187 10.1394 5.89528C10.2799 6.01456 10.3469 6.06603 10.476 6.03989C10.5699 6.0211 10.8265 5.87649 11.4866 5.14117C11.4976 5.12873 11.5121 5.11992 11.5282 5.11592C11.5443 5.11192 11.5612 5.11291 11.5767 5.11876C11.5923 5.12462 11.6056 5.13505 11.6151 5.14869C11.6245 5.16232 11.6296 5.17851 11.6296 5.19509V6.17306C11.6279 6.89004 11.342 7.57709 10.8347 8.08369C10.3273 8.59029 9.63981 8.87511 8.92283 8.87576ZM6.13762 5.40507V6.17306C6.13848 6.84748 6.40683 7.49402 6.8838 7.97084C7.36076 8.44765 8.00739 8.71579 8.68181 8.71644H8.92283C9.59711 8.71558 10.2435 8.44734 10.7203 7.97055C11.1971 7.49376 11.4653 6.84734 11.4662 6.17306V5.41487C10.7848 6.15672 10.5789 6.19757 10.5087 6.21146C10.2971 6.25395 10.1745 6.151 10.034 6.03172C9.84606 5.87322 9.5887 5.65589 8.93754 5.57827C8.28637 5.50066 8.05597 5.65998 7.83293 5.82338C7.66953 5.93613 7.50612 6.05214 7.20873 6.05214C6.84515 6.04397 6.44645 5.72452 6.13762 5.40507Z" fill="#093F68"/>
<path d="M8.76352 4.33395C8.76352 4.33395 8.17036 5.74086 8.62544 5.70001C9.08052 5.65916 9.14997 5.34134 9.14997 5.34134" fill="#FFC9B0"/>
<path d="M8.60665 5.78252C8.57306 5.78415 8.53958 5.77756 8.50911 5.76332C8.47864 5.74909 8.4521 5.72763 8.43181 5.70082C8.23164 5.42711 8.61073 4.49081 8.68835 4.30617C8.6968 4.28612 8.71287 4.27026 8.73302 4.26206C8.75316 4.25386 8.77574 4.254 8.79579 4.26245C8.81583 4.27091 8.8317 4.28697 8.83989 4.30712C8.84809 4.32727 8.84795 4.34985 8.8395 4.36989C8.66057 4.79392 8.45632 5.45816 8.56335 5.60441C8.56907 5.61176 8.57969 5.62647 8.61809 5.62238C9.00372 5.58725 9.06826 5.33806 9.07071 5.32744C9.07537 5.30577 9.08845 5.28684 9.10707 5.27481C9.12568 5.26278 9.14831 5.25864 9.16998 5.2633C9.19165 5.26796 9.21058 5.28104 9.22261 5.29965C9.23464 5.31827 9.23878 5.3409 9.23412 5.36257C9.23412 5.37809 9.1467 5.73921 8.6377 5.78497L8.60665 5.78252Z" fill="#093F68"/>
<path d="M8.92691 7.00396C8.52192 6.99821 8.12842 6.86847 7.79942 6.63222C7.78454 6.61817 7.77547 6.59904 7.77401 6.57863C7.77255 6.55821 7.77881 6.53799 7.79155 6.52197C7.80428 6.50594 7.82257 6.49529 7.84279 6.4921C7.86301 6.48891 7.88369 6.49343 7.90073 6.50476C7.93505 6.53173 8.75534 7.16655 9.7137 6.62895C9.72307 6.62358 9.73342 6.62013 9.74413 6.61878C9.75485 6.61744 9.76573 6.61823 9.77614 6.62112C9.78655 6.62401 9.79628 6.62893 9.80478 6.6356C9.81327 6.64228 9.82036 6.65057 9.82563 6.66C9.83084 6.66939 9.83414 6.67971 9.83536 6.69037C9.83658 6.70104 9.83568 6.71184 9.83272 6.72216C9.82976 6.73248 9.8248 6.74211 9.81812 6.75051C9.81143 6.75891 9.80316 6.76591 9.79376 6.77111C9.53009 6.92305 9.23123 7.00333 8.92691 7.00396Z" fill="#093F68"/>
<path d="M7.45628 4.96306C7.60022 4.96306 7.71691 4.84637 7.71691 4.70243C7.71691 4.55849 7.60022 4.4418 7.45628 4.4418C7.31234 4.4418 7.19565 4.55849 7.19565 4.70243C7.19565 4.84637 7.31234 4.96306 7.45628 4.96306Z" fill="#093F68"/>
<path d="M10.1475 4.96306C10.2915 4.96306 10.4082 4.84637 10.4082 4.70243C10.4082 4.55849 10.2915 4.4418 10.1475 4.4418C10.0036 4.4418 9.8869 4.55849 9.8869 4.70243C9.8869 4.84637 10.0036 4.96306 10.1475 4.96306Z" fill="#093F68"/>
<path d="M7.90321 4.00061H6.69076C6.6563 4.00061 6.62326 3.98692 6.5989 3.96256C6.57454 3.9382 6.56085 3.90516 6.56085 3.8707C6.56085 3.83625 6.57454 3.80321 6.5989 3.77885C6.62326 3.75449 6.6563 3.7408 6.69076 3.7408H7.90321C7.93767 3.7408 7.97071 3.75449 7.99507 3.77885C8.01943 3.80321 8.03312 3.83625 8.03312 3.8707C8.03312 3.90516 8.01943 3.9382 7.99507 3.96256C7.97071 3.98692 7.93767 4.00061 7.90321 4.00061Z" fill="#093F68"/>
<path d="M10.9131 4.00061H9.70065C9.66619 4.00061 9.63315 3.98692 9.60879 3.96256C9.58443 3.9382 9.57074 3.90516 9.57074 3.8707C9.57074 3.83625 9.58443 3.80321 9.60879 3.77885C9.63315 3.75449 9.66619 3.7408 9.70065 3.7408H10.9115C10.9459 3.7408 10.979 3.75449 11.0033 3.77885C11.0277 3.80321 11.0414 3.83625 11.0414 3.8707C11.0414 3.90516 11.0277 3.9382 11.0033 3.96256C10.979 3.98692 10.9459 4.00061 10.9115 4.00061H10.9131Z" fill="#093F68"/>
<path d="M9.85913 12.5246H11.1329V12.9903H9.85913V12.5246Z" fill="#FFBC0E"/>
<path d="M11.1329 13.072H9.85914C9.83747 13.072 9.81669 13.0634 9.80137 13.048C9.78604 13.0327 9.77744 13.0119 9.77744 12.9903V12.5246C9.77744 12.5029 9.78604 12.4821 9.80137 12.4668C9.81669 12.4515 9.83747 12.4429 9.85914 12.4429H11.1329C11.1545 12.4429 11.1753 12.4515 11.1906 12.4668C11.206 12.4821 11.2146 12.5029 11.2146 12.5246V12.9903C11.2146 13.0119 11.206 13.0327 11.1906 13.048C11.1753 13.0634 11.1545 13.072 11.1329 13.072ZM9.94084 12.9086H11.0512V12.6063H9.94084V12.9086Z" fill="#093F68"/>
<path d="M6.05591 15.3359C6.03425 15.3359 6.01346 15.3273 5.99814 15.312C5.98282 15.2967 5.97421 15.2759 5.97421 15.2542V11.2745C5.97421 11.2528 5.98282 11.2321 5.99814 11.2167C6.01346 11.2014 6.03425 11.1928 6.05591 11.1928C6.07758 11.1928 6.09836 11.2014 6.11369 11.2167C6.12901 11.2321 6.13762 11.2528 6.13762 11.2745V15.2542C6.13762 15.2759 6.12901 15.2967 6.11369 15.312C6.09836 15.3273 6.07758 15.3359 6.05591 15.3359Z" fill="#093F68"/>
<path d="M11.5479 15.3359C11.5263 15.3359 11.5055 15.3273 11.4901 15.312C11.4748 15.2967 11.4662 15.2759 11.4662 15.2542V11.2745C11.4662 11.2528 11.4748 11.2321 11.4901 11.2167C11.5055 11.2014 11.5263 11.1928 11.5479 11.1928C11.5696 11.1928 11.5904 11.2014 11.6057 11.2167C11.621 11.2321 11.6296 11.2528 11.6296 11.2745V15.2542C11.6296 15.2759 11.621 15.2967 11.6057 15.312C11.5904 15.3273 11.5696 15.3359 11.5479 15.3359Z" fill="#093F68"/>
<path d="M16.6061 13.3947H0.997758C0.741461 13.3947 0.533691 13.6025 0.533691 13.8588V15.6358C0.533691 15.8921 0.741461 16.0998 0.997758 16.0998H16.6061C16.8624 16.0998 17.0701 15.8921 17.0701 15.6358V13.8588C17.0701 13.6025 16.8624 13.3947 16.6061 13.3947Z" fill="white"/>
<path d="M16.6061 16.1823H1.00103C0.856208 16.1821 0.717392 16.1244 0.615064 16.022C0.512736 15.9195 0.455261 15.7806 0.455261 15.6358V13.8587C0.455477 13.7141 0.513047 13.5754 0.615352 13.4731C0.717656 13.3708 0.856349 13.3132 1.00103 13.313H16.6061C16.7508 13.3132 16.8894 13.3708 16.9917 13.4731C17.0941 13.5754 17.1516 13.7141 17.1518 13.8587V15.6358C17.1518 15.7806 17.0944 15.9195 16.992 16.022C16.8897 16.1244 16.7509 16.1821 16.6061 16.1823ZM1.00103 13.4764C0.899686 13.4766 0.802556 13.5169 0.730896 13.5886C0.659235 13.6603 0.618881 13.7574 0.618665 13.8587V15.6358C0.618665 15.7372 0.658923 15.8346 0.730607 15.9064C0.802291 15.9783 0.899545 16.0187 1.00103 16.0189H16.6061C16.7076 16.0187 16.8048 15.9783 16.8765 15.9064C16.9482 15.8346 16.9884 15.7372 16.9884 15.6358V13.8587C16.9882 13.7574 16.9479 13.6603 16.8762 13.5886C16.8045 13.5169 16.7074 13.4766 16.6061 13.4764H1.00103Z" fill="#093F68"/>
<path d="M12.0439 12.9902H16.0472V14.8906H12.0439V12.9902Z" fill="white"/>
<path d="M16.0472 14.9723H12.0438C12.0222 14.9723 12.0014 14.9637 11.9861 14.9484C11.9707 14.9331 11.9621 14.9123 11.9621 14.8906V12.9903C11.9621 12.9686 11.9707 12.9478 11.9861 12.9325C12.0014 12.9172 12.0222 12.9086 12.0438 12.9086H16.0472C16.0689 12.9086 16.0897 12.9172 16.105 12.9325C16.1203 12.9478 16.1289 12.9686 16.1289 12.9903V14.8906C16.1289 14.9123 16.1203 14.9331 16.105 14.9484C16.0897 14.9637 16.0689 14.9723 16.0472 14.9723ZM12.1255 14.8089H15.9655V13.072H12.1255V14.8089Z" fill="#093F68"/>
<path d="M12.5218 13.6079H12.8053C12.8389 13.6079 12.8725 13.6104 12.9058 13.6153C12.9374 13.6194 12.968 13.6288 12.9965 13.6431C13.0226 13.6573 13.0448 13.6778 13.061 13.7027C13.0793 13.7329 13.0882 13.7679 13.0864 13.8032C13.0874 13.8424 13.0744 13.8807 13.0496 13.911C13.0245 13.9405 12.9913 13.9619 12.954 13.9723C12.9778 13.9754 13.001 13.9823 13.0226 13.9927C13.0424 14.0031 13.0604 14.0166 13.0757 14.0328C13.0906 14.0496 13.1022 14.069 13.1101 14.09C13.1183 14.1122 13.1224 14.1357 13.1223 14.1594C13.1235 14.195 13.1144 14.2301 13.0962 14.2607C13.0792 14.2874 13.0562 14.3098 13.0292 14.3261C13.0004 14.3433 12.9689 14.3555 12.936 14.362C12.9025 14.3691 12.8682 14.3727 12.8339 14.3727H12.5193L12.5218 13.6079ZM12.6909 13.9151H12.8135C12.8264 13.9152 12.8393 13.9135 12.8519 13.9102C12.8641 13.9078 12.8757 13.9031 12.8862 13.8963C12.8962 13.8895 12.9046 13.8806 12.9107 13.8702C12.9169 13.8581 12.92 13.8446 12.9197 13.831C12.9203 13.8171 12.9166 13.8034 12.9091 13.7918C12.9027 13.7814 12.8937 13.773 12.8829 13.7672C12.8714 13.7612 12.859 13.7571 12.8462 13.755C12.8328 13.7538 12.8194 13.7538 12.8061 13.755H12.6909V13.9151ZM12.6909 14.2321H12.8429C12.8559 14.2333 12.8691 14.2333 12.8821 14.2321C12.8952 14.2292 12.9076 14.2239 12.9189 14.2166C12.9297 14.2095 12.9386 14.2 12.945 14.1888C12.9524 14.1759 12.956 14.1612 12.9556 14.1463C12.9562 14.1305 12.9513 14.1149 12.9417 14.1022C12.9325 14.0911 12.9207 14.0825 12.9074 14.0769C12.8934 14.0709 12.8785 14.067 12.8633 14.0655C12.8486 14.0643 12.8339 14.0643 12.8192 14.0655H12.6909V14.2321Z" fill="#093F68"/>
<path d="M13.2955 13.9936C13.2945 13.9362 13.3051 13.8792 13.3265 13.8261C13.3446 13.7786 13.3724 13.7354 13.4083 13.6994C13.446 13.6634 13.4908 13.6356 13.5398 13.6177C13.6468 13.5794 13.7637 13.5794 13.8707 13.6177C13.9197 13.6356 13.9645 13.6634 14.0022 13.6994C14.0395 13.735 14.0688 13.7782 14.088 13.8261C14.1091 13.8794 14.1196 13.9362 14.1191 13.9936C14.1193 14.0495 14.1088 14.105 14.088 14.157C14.0688 14.205 14.0395 14.2485 14.0022 14.2844C13.9645 14.3204 13.9197 14.3482 13.8707 14.3661C13.7635 14.4032 13.647 14.4032 13.5398 14.3661C13.4908 14.3482 13.446 14.3204 13.4083 14.2844C13.3724 14.2481 13.3446 14.2047 13.3265 14.157C13.3054 14.1051 13.2949 14.0495 13.2955 13.9936ZM13.4712 13.9936C13.4709 14.0272 13.4765 14.0606 13.4875 14.0924C13.4979 14.1226 13.5143 14.1504 13.5357 14.1741C13.557 14.1962 13.5826 14.2137 13.6109 14.2256C13.642 14.238 13.6754 14.2441 13.7089 14.2436C13.7425 14.2443 13.7759 14.2382 13.807 14.2256C13.8356 14.2139 13.8615 14.1963 13.8829 14.1741C13.9043 14.1504 13.9207 14.1226 13.9311 14.0924C13.9529 14.0283 13.9529 13.9588 13.9311 13.8947C13.9207 13.8645 13.9043 13.8367 13.8829 13.813C13.8615 13.7907 13.8356 13.7732 13.807 13.7615C13.7759 13.7486 13.7425 13.7422 13.7089 13.7427C13.6753 13.7424 13.642 13.7488 13.6109 13.7615C13.5826 13.7734 13.557 13.7909 13.5357 13.813C13.5143 13.8367 13.4979 13.8645 13.4875 13.8947C13.4751 13.9262 13.4682 13.9597 13.4671 13.9936H13.4712Z" fill="#093F68"/>
<path d="M14.7212 13.7975C14.7072 13.7792 14.6877 13.7657 14.6656 13.7591C14.6446 13.7507 14.6221 13.7463 14.5995 13.746C14.5865 13.7461 14.5736 13.7477 14.5611 13.7509C14.5483 13.7535 14.5359 13.7579 14.5243 13.764C14.5133 13.7699 14.5038 13.7783 14.4965 13.7885C14.4888 13.7991 14.4847 13.8121 14.4851 13.8252C14.4847 13.8356 14.4869 13.8458 14.4914 13.8551C14.496 13.8644 14.5028 13.8724 14.5112 13.8784C14.5314 13.892 14.5534 13.9028 14.5766 13.9102C14.6036 13.9184 14.6313 13.9274 14.6624 13.9355C14.6911 13.9446 14.7185 13.9572 14.7441 13.9731C14.7738 13.9902 14.7981 14.0152 14.8143 14.0454C14.8305 14.0756 14.8378 14.1097 14.8356 14.1439C14.8364 14.1826 14.828 14.221 14.8111 14.2558C14.7965 14.2876 14.7747 14.3156 14.7473 14.3375C14.7189 14.3585 14.6867 14.3741 14.6526 14.3833C14.6159 14.3939 14.578 14.3991 14.5398 14.3988C14.4925 14.3994 14.4455 14.3916 14.4009 14.3759C14.3564 14.3601 14.3158 14.335 14.2816 14.3024L14.4017 14.17C14.4188 14.1931 14.4412 14.2116 14.4671 14.2239C14.4927 14.236 14.5205 14.2424 14.5488 14.2427C14.5628 14.2426 14.5768 14.241 14.5905 14.2378C14.6037 14.2348 14.6163 14.2298 14.6281 14.2231C14.6388 14.2171 14.648 14.2087 14.655 14.1986C14.6623 14.1881 14.666 14.1755 14.6656 14.1627C14.666 14.152 14.6637 14.1415 14.659 14.1319C14.6543 14.1224 14.6473 14.1141 14.6387 14.1079C14.6184 14.0934 14.5961 14.0819 14.5725 14.0736C14.5455 14.0646 14.5169 14.0548 14.4859 14.0458C14.4555 14.0367 14.4264 14.0238 14.3993 14.0074C14.3725 13.9918 14.3496 13.9703 14.3323 13.9445C14.3128 13.9138 14.3034 13.8779 14.3053 13.8416C14.3045 13.8042 14.313 13.7671 14.3299 13.7337C14.3455 13.7021 14.3678 13.6742 14.3952 13.652C14.4232 13.6306 14.4551 13.6148 14.4892 13.6055C14.5247 13.5947 14.5616 13.5892 14.5987 13.5891C14.641 13.5891 14.6832 13.5955 14.7237 13.6079C14.7642 13.62 14.8016 13.6409 14.8331 13.6692L14.7212 13.7975Z" fill="#093F68"/>
<path d="M15.4516 13.7975C15.4376 13.7792 15.4181 13.7657 15.3961 13.7591C15.3747 13.7506 15.352 13.7462 15.3291 13.746C15.3164 13.7461 15.3038 13.7477 15.2915 13.7509C15.2787 13.7535 15.2663 13.7579 15.2547 13.764C15.2436 13.7701 15.2339 13.7784 15.2261 13.7885C15.219 13.7994 15.2153 13.8122 15.2155 13.8252C15.2151 13.8356 15.2173 13.8458 15.2218 13.8551C15.2264 13.8644 15.2332 13.8724 15.2416 13.8784C15.2618 13.892 15.2838 13.9028 15.307 13.9102C15.334 13.9184 15.3617 13.9274 15.3887 13.9355C15.4175 13.9443 15.445 13.9569 15.4704 13.9731C15.4972 13.9889 15.5199 14.0107 15.5366 14.0369C15.5555 14.0692 15.5646 14.1064 15.5627 14.1439C15.5635 14.1826 15.5551 14.221 15.5382 14.2558C15.5236 14.2879 15.5015 14.3159 15.4737 14.3375C15.4456 14.3587 15.4137 14.3742 15.3797 14.3833C15.297 14.4062 15.2093 14.4037 15.1281 14.3759C15.0836 14.3601 15.0429 14.335 15.0088 14.3024L15.1289 14.17C15.1459 14.1931 15.1684 14.2116 15.1943 14.2239C15.2198 14.2361 15.2477 14.2425 15.276 14.2427C15.29 14.2427 15.304 14.2411 15.3176 14.2378C15.3311 14.2349 15.3441 14.23 15.356 14.2231C15.3667 14.2171 15.376 14.2087 15.383 14.1986C15.3899 14.1879 15.3936 14.1754 15.3936 14.1627C15.394 14.152 15.3917 14.1415 15.387 14.1319C15.3823 14.1224 15.3753 14.1141 15.3666 14.1079C15.3462 14.0936 15.324 14.082 15.3005 14.0736C15.2735 14.0646 15.2441 14.0548 15.213 14.0458C15.1828 14.0364 15.1537 14.0236 15.1264 14.0074C15.1 13.9916 15.0775 13.9701 15.0603 13.9445C15.0408 13.9138 15.0314 13.8779 15.0333 13.8416C15.0325 13.8042 15.0409 13.7671 15.0578 13.7337C15.0735 13.7021 15.0958 13.6742 15.1232 13.652C15.151 13.6308 15.1826 13.615 15.2163 13.6055C15.2518 13.5947 15.2887 13.5892 15.3258 13.5891C15.3684 13.5891 15.4108 13.5955 15.4516 13.6079C15.4921 13.6201 15.5295 13.641 15.5611 13.6692L15.4516 13.7975Z" fill="#093F68"/>
<path d="M3.40878 14.8498C4.34102 14.8498 5.09674 14.6845 5.09674 14.4805C5.09674 14.2765 4.34102 14.1112 3.40878 14.1112C2.47655 14.1112 1.72083 14.2765 1.72083 14.4805C1.72083 14.6845 2.47655 14.8498 3.40878 14.8498Z" fill="#FFBC0E"/>
<path d="M3.40958 14.9315C2.79764 14.9315 1.63992 14.8367 1.63992 14.4805C1.63992 14.1243 2.79764 14.0295 3.40958 14.0295C4.02153 14.0295 5.17925 14.1235 5.17925 14.4805C5.17925 14.8375 4.02071 14.9315 3.40958 14.9315ZM3.40958 14.1962C2.34746 14.1962 1.80333 14.398 1.80333 14.4838C1.80333 14.5696 2.34746 14.7681 3.40958 14.7681C4.47171 14.7681 5.01584 14.5663 5.01584 14.4805C5.01584 14.3947 4.47171 14.1929 3.40958 14.1929V14.1962Z" fill="#093F68"/>
<path d="M2.5411 14.1145H2.52966C2.00514 14.045 1.62195 13.8465 1.4512 13.5548C1.40222 13.4753 1.37244 13.3855 1.36421 13.2924C1.35599 13.1994 1.36955 13.1057 1.40381 13.0188C1.41972 12.978 1.44411 12.941 1.47538 12.9103C1.50665 12.8796 1.54407 12.8559 1.58519 12.8407C1.85889 12.737 2.30008 12.951 2.3491 12.9755C2.3588 12.9803 2.36746 12.987 2.37457 12.9951C2.38169 13.0033 2.38711 13.0128 2.39053 13.023C2.39395 13.0333 2.3953 13.0441 2.3945 13.0549C2.3937 13.0657 2.39076 13.0762 2.38587 13.0858C2.37607 13.1051 2.35906 13.1197 2.33854 13.1264C2.31803 13.1331 2.29568 13.1315 2.27639 13.1218C2.15955 13.0638 1.81886 12.9273 1.6432 12.9935C1.62329 13.0007 1.60517 13.012 1.59007 13.0268C1.57498 13.0416 1.56328 13.0595 1.55578 13.0793C1.53098 13.1431 1.52132 13.2118 1.52755 13.28C1.53379 13.3482 1.55576 13.414 1.59172 13.4723C1.7347 13.7174 2.08194 13.8906 2.5509 13.9519C2.56163 13.9525 2.57213 13.9553 2.5818 13.96C2.59146 13.9647 2.60011 13.9712 2.60724 13.9793C2.61437 13.9873 2.61985 13.9967 2.62336 14.0068C2.62687 14.017 2.62835 14.0278 2.6277 14.0385C2.62706 14.0492 2.62431 14.0597 2.61961 14.0694C2.61491 14.079 2.60835 14.0877 2.60031 14.0948C2.59227 14.102 2.5829 14.1074 2.57274 14.1109C2.56258 14.1145 2.55183 14.1159 2.5411 14.1153V14.1145Z" fill="#093F68"/>
<path d="M3.38181 14.4805H3.43655C3.70571 14.4805 3.96728 14.3913 4.18043 14.227C4.39357 14.0626 4.54627 13.8323 4.61469 13.572L4.85979 12.643H1.95938L2.20449 13.572C2.27287 13.8322 2.42545 14.0624 2.63843 14.2267C2.8514 14.3911 3.11279 14.4803 3.38181 14.4805Z" fill="#FFBC0E"/>
<path d="M3.43655 14.5622H3.38181C3.09455 14.5621 2.81541 14.4669 2.58794 14.2914C2.36048 14.116 2.19749 13.8702 2.12442 13.5924L1.87931 12.6634C1.87625 12.6514 1.87598 12.6388 1.87853 12.6266C1.88108 12.6144 1.88638 12.603 1.89402 12.5932C1.90163 12.5833 1.9114 12.5753 1.92259 12.5698C1.93378 12.5642 1.94608 12.5614 1.95856 12.5613H4.85816C4.87084 12.5609 4.88345 12.5635 4.89498 12.5688C4.9065 12.5741 4.91663 12.582 4.92456 12.5919C4.93249 12.6019 4.938 12.6135 4.94066 12.6259C4.94331 12.6383 4.94304 12.6512 4.93986 12.6634L4.69475 13.5924C4.62177 13.8704 4.45869 14.1164 4.23103 14.2919C4.00338 14.4673 3.72398 14.5624 3.43655 14.5622ZM2.06559 12.7247L2.2821 13.5507C2.34612 13.7936 2.4887 14.0085 2.68761 14.1619C2.88653 14.3153 3.13061 14.3986 3.38181 14.3988H3.43655C3.6876 14.3984 3.9315 14.3151 4.13025 14.1617C4.329 14.0083 4.47146 13.7935 4.53544 13.5507L4.75276 12.7247H2.06559Z" fill="#093F68"/>
<path d="M16.3373 14.9723H11.6803C11.6586 14.9723 11.6378 14.9637 11.6225 14.9484C11.6072 14.9331 11.5986 14.9123 11.5986 14.8906C11.5986 14.869 11.6072 14.8482 11.6225 14.8329C11.6378 14.8176 11.6586 14.8089 11.6803 14.8089H16.3373C16.3589 14.8089 16.3797 14.8176 16.395 14.8329C16.4104 14.8482 16.419 14.869 16.419 14.8906C16.419 14.9123 16.4104 14.9331 16.395 14.9484C16.3797 14.9637 16.3589 14.9723 16.3373 14.9723Z" fill="#093F68"/>
</svg>
