<svg width="33" height="31" viewBox="0 0 33 31" fill="none" xmlns="http://www.w3.org/2000/svg">
<path d="M8.03155 30.6377C7.89503 30.6431 7.75878 30.6214 7.63062 30.5741C7.50245 30.5267 7.3849 30.4545 7.2847 30.3616C7.1845 30.2687 7.10362 30.157 7.0467 30.0328C6.98977 29.9085 6.95792 29.7743 6.95298 29.6378L5.99339 5.20676C5.988 5.07013 6.00959 4.93379 6.05694 4.80551C6.10428 4.67724 6.17646 4.55956 6.26932 4.45921C6.36219 4.35886 6.47393 4.27779 6.59816 4.22066C6.72238 4.16354 6.85665 4.13146 6.99328 4.12627L30.2037 3.22234C30.3403 3.21694 30.4767 3.23853 30.605 3.28588C30.7332 3.33323 30.8509 3.4054 30.9513 3.49827C31.0516 3.59113 31.1327 3.70288 31.1898 3.8271C31.2469 3.95132 31.279 4.08559 31.2842 4.22222L32.2361 28.4613C32.2486 28.7889 32.1304 29.1079 31.9076 29.3483C31.6848 29.5888 31.3757 29.7308 31.0481 29.7433L8.03155 30.6377Z" fill="#68E1FD"/>
<path d="M7.99125 30.8315C7.67249 30.8317 7.3661 30.7082 7.13662 30.4869C6.90714 30.2657 6.7725 29.964 6.76106 29.6455L5.80148 5.21444C5.78902 4.88773 5.90672 4.56943 6.12873 4.32943C6.35074 4.08942 6.65893 3.94733 6.98561 3.93435L30.2037 3.03234C30.3654 3.02566 30.5269 3.05096 30.6789 3.1068C30.8308 3.16264 30.9702 3.24791 31.0891 3.35774C31.2081 3.46757 31.3041 3.59979 31.3719 3.74681C31.4396 3.89384 31.4776 4.05279 31.4838 4.21455L32.428 28.4613C32.442 28.8396 32.3055 29.2081 32.0482 29.4858C31.791 29.7635 31.4341 29.9279 31.0558 29.9429L8.03923 30.8392L7.99125 30.8315ZM30.2536 3.41426H30.2191L7.00864 4.31818C6.78378 4.32717 6.57166 4.42495 6.41877 4.59007C6.26588 4.75519 6.18469 4.9742 6.19299 5.19908L7.14298 29.632C7.14719 29.7434 7.17344 29.8528 7.22022 29.9539C7.267 30.055 7.33337 30.1459 7.4155 30.2212C7.58147 30.3734 7.80075 30.4541 8.0258 30.4457L31.0424 29.5495C31.3187 29.5385 31.5793 29.4184 31.7671 29.2154C31.9549 29.0125 32.0546 28.7434 32.0442 28.4671L31.1 4.2299C31.0915 4.01096 30.9987 3.80377 30.841 3.65173C30.6832 3.49969 30.4727 3.41459 30.2536 3.41426Z" fill="#093F68"/>
<path d="M25.2753 28.5208H5.53471C5.25884 28.5208 4.99426 28.4112 4.79919 28.2162C4.60411 28.0211 4.49452 27.7565 4.49452 27.4806V3.03042C4.49427 2.89375 4.52101 2.75838 4.57319 2.63206C4.62537 2.50574 4.70198 2.39097 4.79863 2.29433C4.89527 2.19769 5.01004 2.12108 5.13635 2.0689C5.26267 2.01671 5.39804 1.98998 5.53471 1.99023H28.7567C28.8933 1.99023 29.0285 2.01714 29.1547 2.06941C29.2809 2.12169 29.3956 2.19831 29.4922 2.2949C29.5888 2.39149 29.6654 2.50616 29.7177 2.63236C29.7699 2.75856 29.7968 2.89382 29.7968 3.03042V23.767L25.2753 28.5208Z" fill="white"/>
<path d="M25.2753 28.7127H5.53471C5.20792 28.7122 4.89462 28.5823 4.66336 28.3514C4.4321 28.1205 4.3017 27.8074 4.30069 27.4806V3.03042C4.3017 2.70363 4.4321 2.39054 4.66336 2.15964C4.89462 1.92874 5.20792 1.79882 5.53471 1.79832H28.7567C29.0833 1.79882 29.3964 1.9288 29.6273 2.15975C29.8583 2.39071 29.9883 2.7038 29.9888 3.03042V23.767C29.9886 23.8165 29.9693 23.8639 29.935 23.8995L25.4135 28.6532C25.3956 28.672 25.3742 28.6869 25.3504 28.6971C25.3267 28.7073 25.3011 28.7126 25.2753 28.7127ZM5.53471 2.18215C5.30956 2.18215 5.0936 2.27146 4.93422 2.43049C4.77483 2.58951 4.68503 2.80527 4.68452 3.03042V27.4806C4.68554 27.7056 4.7755 27.9211 4.93477 28.08C5.09405 28.2389 5.30972 28.3284 5.53471 28.3289H25.1928L29.6068 23.6903V3.03042C29.6063 2.8056 29.5168 2.59014 29.3578 2.43116C29.1989 2.27219 28.9834 2.18266 28.7586 2.18215H5.53471Z" fill="#093F68"/>
<path d="M25.2753 28.5208V24.8514C25.2758 24.5884 25.3805 24.3363 25.5665 24.1503C25.7524 23.9644 26.0045 23.8597 26.2675 23.8592H29.8045L25.2753 28.5208Z" fill="#FFBC0E"/>
<path d="M25.2753 28.7127C25.2511 28.7122 25.2271 28.7076 25.2043 28.6993C25.1686 28.6851 25.138 28.6605 25.1164 28.6286C25.0949 28.5968 25.0834 28.5593 25.0834 28.5208V24.8514C25.0839 24.5375 25.2088 24.2366 25.4308 24.0146C25.6527 23.7927 25.9536 23.6677 26.2675 23.6672H29.8045C29.8424 23.667 29.8795 23.678 29.9112 23.6988C29.9428 23.7197 29.9676 23.7494 29.9824 23.7843C29.9972 23.8192 30.0013 23.8577 29.9942 23.8949C29.9872 23.9321 29.9692 23.9664 29.9427 23.9935L25.4135 28.6532C25.3956 28.672 25.3742 28.6869 25.3505 28.6971C25.3267 28.7073 25.3012 28.7126 25.2753 28.7127ZM26.2675 24.0472C26.0553 24.0472 25.8517 24.1315 25.7016 24.2816C25.5515 24.4317 25.4672 24.6353 25.4672 24.8475V28.0429L29.3497 24.0472H26.2675Z" fill="#093F68"/>
<path d="M25.2753 8.19107H14.1441C14.0932 8.19107 14.0444 8.17085 14.0084 8.13485C13.9724 8.09886 13.9522 8.05005 13.9522 7.99915C13.9522 7.94825 13.9724 7.89943 14.0084 7.86344C14.0444 7.82745 14.0932 7.80723 14.1441 7.80723H25.2753C25.3262 7.80723 25.375 7.82745 25.411 7.86344C25.447 7.89943 25.4672 7.94825 25.4672 7.99915C25.4672 8.05005 25.447 8.09886 25.411 8.13485C25.375 8.17085 25.3262 8.19107 25.2753 8.19107Z" fill="#093F68"/>
<path d="M25.2753 11.2329H9.18307C9.13217 11.2329 9.08335 11.2127 9.04736 11.1767C9.01137 11.1407 8.99115 11.0919 8.99115 11.041C8.99115 10.9901 9.01137 10.9413 9.04736 10.9053C9.08335 10.8693 9.13217 10.8491 9.18307 10.8491H25.2753C25.3262 10.8491 25.375 10.8693 25.411 10.9053C25.447 10.9413 25.4672 10.9901 25.4672 11.041C25.4672 11.0919 25.447 11.1407 25.411 11.1767C25.375 11.2127 25.3262 11.2329 25.2753 11.2329Z" fill="#093F68"/>
<path d="M25.2753 14.2767H9.18307C9.13217 14.2767 9.08335 14.2565 9.04736 14.2205C9.01137 14.1845 8.99115 14.1357 8.99115 14.0848C8.99115 14.0339 9.01137 13.9851 9.04736 13.9491C9.08335 13.9131 9.13217 13.8929 9.18307 13.8929H25.2753C25.3262 13.8929 25.375 13.9131 25.411 13.9491C25.447 13.9851 25.4672 14.0339 25.4672 14.0848C25.4672 14.1357 25.447 14.1845 25.411 14.2205C25.375 14.2565 25.3262 14.2767 25.2753 14.2767Z" fill="#093F68"/>
<path d="M25.2753 17.3186H9.18307C9.13217 17.3186 9.08335 17.2984 9.04736 17.2624C9.01137 17.2264 8.99115 17.1776 8.99115 17.1267C8.99115 17.0758 9.01137 17.027 9.04736 16.991C9.08335 16.955 9.13217 16.9348 9.18307 16.9348H25.2753C25.3262 16.9348 25.375 16.955 25.411 16.991C25.447 17.027 25.4672 17.0758 25.4672 17.1267C25.4672 17.1776 25.447 17.2264 25.411 17.2624C25.375 17.2984 25.3262 17.3186 25.2753 17.3186Z" fill="#093F68"/>
<path d="M25.2753 20.3624H9.18307C9.13217 20.3624 9.08335 20.3422 9.04736 20.3062C9.01137 20.2702 8.99115 20.2214 8.99115 20.1705C8.99115 20.1196 9.01137 20.0708 9.04736 20.0348C9.08335 19.9988 9.13217 19.9786 9.18307 19.9786H25.2753C25.3262 19.9786 25.375 19.9988 25.411 20.0348C25.447 20.0708 25.4672 20.1196 25.4672 20.1705C25.4672 20.2214 25.447 20.2702 25.411 20.3062C25.375 20.3422 25.3262 20.3624 25.2753 20.3624Z" fill="#093F68"/>
<path d="M19.1109 23.4062H9.18307C9.13217 23.4062 9.08335 23.386 9.04736 23.35C9.01137 23.314 8.99115 23.2652 8.99115 23.2143C8.99115 23.1634 9.01137 23.1146 9.04736 23.0786C9.08335 23.0426 9.13217 23.0224 9.18307 23.0224H19.1109C19.1618 23.0224 19.2106 23.0426 19.2466 23.0786C19.2826 23.1146 19.3028 23.1634 19.3028 23.2143C19.3028 23.2652 19.2826 23.314 19.2466 23.35C19.2106 23.386 19.1618 23.4062 19.1109 23.4062Z" fill="#093F68"/>
<path d="M11.0312 5.50999C10.7827 5.52234 10.5382 5.44296 10.3443 5.28693C10.1504 5.1309 10.0206 4.90909 9.97953 4.66363L9.37307 1.23984C9.34263 1.09321 9.34618 0.941558 9.38344 0.796513C9.4207 0.651469 9.49068 0.516884 9.58802 0.403079C9.77155 0.201576 10.0166 0.0665017 10.285 0.0189377C10.5534 -0.0286264 10.8299 0.0139959 11.0715 0.140152C11.202 0.2137 11.3139 0.316084 11.3987 0.439485C11.4835 0.562886 11.539 0.704039 11.5609 0.852164L11.7298 1.81175C11.7342 1.83657 11.7337 1.86203 11.7283 1.88666C11.7229 1.91128 11.7127 1.9346 11.6982 1.95527C11.6838 1.97595 11.6654 1.99358 11.6442 2.00715C11.6229 2.02072 11.5992 2.02997 11.5744 2.03437C11.5495 2.03879 11.5241 2.03828 11.4995 2.03286C11.4748 2.02744 11.4515 2.01722 11.4308 2.00278C11.4102 1.98834 11.3925 1.96997 11.379 1.94872C11.3654 1.92747 11.3561 1.90375 11.3517 1.87892L11.1828 0.919334C11.1706 0.827081 11.1372 0.738906 11.0853 0.661677C11.0333 0.584448 10.9643 0.520251 10.8835 0.474087C10.7192 0.391968 10.5328 0.364983 10.352 0.397134C10.1712 0.429285 10.0056 0.518859 9.87973 0.65257C9.81964 0.723475 9.77677 0.807318 9.75446 0.897542C9.73216 0.987767 9.73102 1.08193 9.75115 1.17266L10.3557 4.59646C10.4363 5.04555 10.8316 5.17221 11.1867 5.12039C11.5417 5.06858 11.868 4.79222 11.7893 4.35273L11.6646 3.65223C11.6557 3.60133 11.6673 3.54898 11.697 3.50669C11.7267 3.4644 11.772 3.43564 11.8229 3.42673C11.8738 3.41782 11.9261 3.4295 11.9684 3.45919C12.0107 3.48888 12.0395 3.53416 12.0484 3.58506L12.1712 4.28556C12.2921 4.9611 11.8027 5.41211 11.2596 5.50807C11.1837 5.51479 11.1073 5.51543 11.0312 5.50999Z" fill="#093F68"/>
<path d="M7.25624 22.4229L5.11973 23.2826L0.31953 11.3538C0.234784 11.1432 0.237169 10.9076 0.326161 10.6987C0.415154 10.4899 0.583463 10.3249 0.794063 10.2402L1.34065 10.0202C1.55125 9.9355 1.78689 9.93788 1.99573 10.0269C2.20458 10.1159 2.36951 10.2842 2.45426 10.4948L7.25446 22.4236L7.25624 22.4229Z" fill="#F56132"/>
<path d="M5.1221 23.4811C5.09632 23.4816 5.07076 23.4763 5.04725 23.4657C5.00036 23.4463 4.96309 23.409 4.94362 23.3621L0.145696 11.4383C0.093007 11.3111 0.0658875 11.1748 0.0658875 11.0372C0.0658875 10.8995 0.093007 10.7633 0.145696 10.6361C0.199437 10.509 0.278061 10.3939 0.37694 10.2977C0.475818 10.2015 0.592953 10.126 0.721446 10.0757L1.26649 9.85499C1.52389 9.75161 1.81172 9.75411 2.06728 9.86195C2.32285 9.96978 2.52547 10.1742 2.63102 10.4307L7.42894 22.3526C7.44793 22.3997 7.44748 22.4524 7.4277 22.4992C7.40791 22.5459 7.37041 22.5829 7.32339 22.6021L5.19503 23.4715C5.17157 23.4794 5.1468 23.4826 5.1221 23.4811ZM1.6676 10.164C1.58276 10.1639 1.4987 10.1802 1.42002 10.212L0.878818 10.4307C0.715657 10.4972 0.585473 10.6256 0.51677 10.7878C0.448068 10.95 0.446444 11.1329 0.512256 11.2963L5.23917 23.0397L7.01632 22.3238L2.27981 10.5804C2.23019 10.4576 2.14506 10.3524 2.03533 10.2782C1.92559 10.204 1.79622 10.1643 1.66376 10.164H1.6676Z" fill="#093F68"/>
<path d="M5.12402 23.2911L7.25814 22.4313L7.48652 25.2333L7.5748 26.3023L6.89734 25.4693L5.12402 23.2911Z" fill="white"/>
<path d="M7.57479 26.4942C7.54644 26.494 7.51849 26.4875 7.49294 26.4752C7.46739 26.463 7.44487 26.4452 7.42701 26.4232L4.97432 23.412C4.95528 23.3887 4.94199 23.3613 4.93552 23.3319C4.92904 23.3025 4.92956 23.272 4.93703 23.2429C4.9445 23.2138 4.95872 23.1868 4.97853 23.1642C4.99834 23.1415 5.02319 23.1239 5.05108 23.1126L7.18712 22.2528C7.21483 22.242 7.24469 22.2377 7.27433 22.2403C7.30398 22.243 7.33259 22.2525 7.35792 22.2682C7.38384 22.2838 7.4057 22.3053 7.42171 22.331C7.43772 22.3567 7.44743 22.3858 7.45005 22.4159L7.76671 26.2869C7.76956 26.3276 7.75938 26.3681 7.73764 26.4026C7.7159 26.4371 7.68373 26.4638 7.6458 26.4788C7.62341 26.4887 7.59926 26.4939 7.57479 26.4942ZM5.43684 23.3717L7.33298 25.7016L7.08732 22.7038L5.43684 23.3717Z" fill="#093F68"/>
<path d="M6.89732 25.4693L7.48651 25.2333L7.57479 26.3023L6.89732 25.4693Z" fill="#093F68"/>
<path d="M7.5748 26.4942C7.54645 26.494 7.5185 26.4875 7.49295 26.4752C7.4674 26.463 7.44488 26.4452 7.42702 26.4232L6.74764 25.5922C6.72848 25.5686 6.71519 25.5408 6.70885 25.5112C6.70251 25.4815 6.70331 25.4507 6.71117 25.4214C6.71899 25.3924 6.73348 25.3657 6.75348 25.3434C6.77347 25.3211 6.79842 25.3037 6.82633 25.2928L7.41551 25.0548C7.44332 25.0436 7.47337 25.0391 7.50325 25.0416C7.53313 25.0441 7.56201 25.0535 7.58757 25.0692C7.61313 25.0849 7.63467 25.1063 7.65045 25.1318C7.66623 25.1573 7.67581 25.1861 7.67843 25.216L7.76672 26.2869C7.76957 26.3276 7.75939 26.3681 7.73765 26.4026C7.71591 26.4371 7.68374 26.4638 7.64581 26.4788C7.62342 26.4887 7.59927 26.4939 7.5748 26.4942ZM7.21016 25.5499L7.33299 25.7016L7.31763 25.5096L7.21016 25.5499Z" fill="#093F68"/>
</svg>
